%TF.GenerationSoftware,KiCad,Pcbnew,9.0.7*%
%TF.CreationDate,2026-02-12T01:51:18+01:00*%
%TF.ProjectId,ESP_catphones,4553505f-6361-4747-9068-6f6e65732e6b,rev?*%
%TF.SameCoordinates,Original*%
%TF.FileFunction,Soldermask,Top*%
%TF.FilePolarity,Negative*%
%FSLAX46Y46*%
G04 Gerber Fmt 4.6, Leading zero omitted, Abs format (unit mm)*
G04 Created by KiCad (PCBNEW 9.0.7) date 2026-02-12 01:51:18*
%MOMM*%
%LPD*%
G01*
G04 APERTURE LIST*
%ADD10O,1.600000X2.500000*%
%ADD11O,1.200000X2.200000*%
%ADD12O,2.200000X1.200000*%
%ADD13O,1.600000X2.300000*%
%ADD14C,1.200000*%
%ADD15C,1.700000*%
%ADD16R,1.700000X1.700000*%
%ADD17C,0.600000*%
%ADD18R,3.800000X3.800000*%
%ADD19R,1.500000X0.900000*%
%ADD20R,0.900000X1.500000*%
%ADD21C,1.600000*%
%ADD22C,1.400000*%
G04 APERTURE END LIST*
D10*
%TO.C,J10*%
X27835413Y-60369717D03*
D11*
X30335413Y-60369717D03*
D12*
X25335413Y-65369717D03*
D13*
X22835413Y-60369717D03*
D11*
X20335413Y-60369717D03*
D14*
X30335413Y-67869717D03*
X30335413Y-65369717D03*
X25335413Y-60369717D03*
X20335413Y-67869717D03*
X20335413Y-65369717D03*
%TD*%
D15*
%TO.C,J8*%
X39500000Y-18840000D03*
X39500000Y-21380000D03*
X39500000Y-23920000D03*
X39500000Y-26460000D03*
X39500000Y-29000000D03*
D16*
X39500000Y-31540000D03*
%TD*%
D15*
%TO.C,J7*%
X15000000Y-52580000D03*
X15000000Y-50040000D03*
X15000000Y-47500000D03*
X15000000Y-44960000D03*
X15000000Y-42420000D03*
X15000000Y-39880000D03*
D16*
X15000000Y-37340000D03*
%TD*%
D17*
%TO.C,U1*%
X26800000Y-25100000D03*
X26800000Y-23700000D03*
X26100000Y-25800000D03*
X26100000Y-24400000D03*
X26100000Y-23000000D03*
X25400000Y-25100000D03*
D18*
X25400000Y-24400000D03*
D17*
X25400000Y-23700000D03*
X24700000Y-25800000D03*
X24700000Y-24400000D03*
X24700000Y-23000000D03*
X24000000Y-25100000D03*
X24000000Y-23700000D03*
D19*
X35650000Y-17060000D03*
X35650000Y-18330000D03*
X35650000Y-19600000D03*
X35650000Y-20870000D03*
X35650000Y-22140000D03*
X35650000Y-23410000D03*
X35650000Y-24680000D03*
X35650000Y-25950000D03*
X35650000Y-27220000D03*
X35650000Y-28490000D03*
X35650000Y-29760000D03*
X35650000Y-31030000D03*
X35650000Y-32300000D03*
X35650000Y-33570000D03*
D20*
X32615000Y-34820000D03*
X31345000Y-34820000D03*
X30075000Y-34820000D03*
X28805000Y-34820000D03*
X27535000Y-34820000D03*
X26265000Y-34820000D03*
X24995000Y-34820000D03*
X23725000Y-34820000D03*
X22455000Y-34820000D03*
X21185000Y-34820000D03*
D19*
X18150000Y-33570000D03*
X18150000Y-32300000D03*
X18150000Y-31030000D03*
X18150000Y-29760000D03*
X18150000Y-28490000D03*
X18150000Y-27220000D03*
X18150000Y-25950000D03*
X18150000Y-24680000D03*
X18150000Y-23410000D03*
X18150000Y-22140000D03*
X18150000Y-20870000D03*
X18150000Y-19600000D03*
X18150000Y-18330000D03*
X18150000Y-17060000D03*
%TD*%
D16*
%TO.C,J2*%
X31000000Y-39460000D03*
D15*
X31000000Y-42000000D03*
%TD*%
D21*
%TO.C,C1*%
X35500000Y-48000000D03*
X35500000Y-38000000D03*
%TD*%
D16*
%TO.C,J4*%
X26960000Y-39250000D03*
D15*
X26960000Y-41790000D03*
%TD*%
D16*
%TO.C,J6*%
X39000000Y-36420000D03*
D15*
X39000000Y-38960000D03*
X39000000Y-41500000D03*
X39000000Y-44040000D03*
X39000000Y-46580000D03*
X39000000Y-49120000D03*
X39000000Y-51660000D03*
%TD*%
D16*
%TO.C,J5*%
X19380000Y-49000000D03*
D15*
X21920000Y-49000000D03*
X24460000Y-49000000D03*
X27000000Y-49000000D03*
X29540000Y-49000000D03*
X32080000Y-49000000D03*
%TD*%
D22*
%TO.C,R1*%
X18000000Y-45000000D03*
X18000000Y-37380000D03*
%TD*%
D16*
%TO.C,J3*%
X22370000Y-39250000D03*
D15*
X22370000Y-41790000D03*
%TD*%
D16*
%TO.C,J9*%
X15000000Y-33500000D03*
D15*
X15000000Y-30960000D03*
X15000000Y-28420000D03*
X15000000Y-25880000D03*
X15000000Y-23340000D03*
X15000000Y-20800000D03*
X15000000Y-18260000D03*
%TD*%
D16*
%TO.C,J1*%
X33850000Y-53000000D03*
D15*
X31310000Y-53000000D03*
X28770000Y-53000000D03*
X26230000Y-53000000D03*
X23690000Y-53000000D03*
X21150000Y-53000000D03*
%TD*%
D21*
%TO.C,C2*%
X34500000Y-56500000D03*
X39500000Y-56500000D03*
%TD*%
D16*
%TO.C,J11*%
X16500000Y-67040000D03*
D15*
X16500000Y-64500000D03*
X16500000Y-61960000D03*
X16500000Y-59420000D03*
X16500000Y-56880000D03*
%TD*%
M02*
