%TF.GenerationSoftware,KiCad,Pcbnew,9.0.7*%
%TF.CreationDate,2026-02-12T01:51:18+01:00*%
%TF.ProjectId,ESP_catphones,4553505f-6361-4747-9068-6f6e65732e6b,rev?*%
%TF.SameCoordinates,Original*%
%TF.FileFunction,Copper,L1,Top*%
%TF.FilePolarity,Positive*%
%FSLAX46Y46*%
G04 Gerber Fmt 4.6, Leading zero omitted, Abs format (unit mm)*
G04 Created by KiCad (PCBNEW 9.0.7) date 2026-02-12 01:51:18*
%MOMM*%
%LPD*%
G01*
G04 APERTURE LIST*
%TA.AperFunction,ComponentPad*%
%ADD10O,1.600000X2.500000*%
%TD*%
%TA.AperFunction,ComponentPad*%
%ADD11O,1.200000X2.200000*%
%TD*%
%TA.AperFunction,ComponentPad*%
%ADD12O,2.200000X1.200000*%
%TD*%
%TA.AperFunction,ComponentPad*%
%ADD13O,1.600000X2.300000*%
%TD*%
%TA.AperFunction,ComponentPad*%
%ADD14C,1.700000*%
%TD*%
%TA.AperFunction,ComponentPad*%
%ADD15R,1.700000X1.700000*%
%TD*%
%TA.AperFunction,SMDPad,CuDef*%
%ADD16R,0.900000X0.900000*%
%TD*%
%TA.AperFunction,HeatsinkPad*%
%ADD17C,0.600000*%
%TD*%
%TA.AperFunction,HeatsinkPad*%
%ADD18R,3.800000X3.800000*%
%TD*%
%TA.AperFunction,SMDPad,CuDef*%
%ADD19R,1.500000X0.900000*%
%TD*%
%TA.AperFunction,SMDPad,CuDef*%
%ADD20R,0.900000X1.500000*%
%TD*%
%TA.AperFunction,ComponentPad*%
%ADD21C,1.600000*%
%TD*%
%TA.AperFunction,ComponentPad*%
%ADD22C,1.400000*%
%TD*%
%TA.AperFunction,ViaPad*%
%ADD23C,0.600000*%
%TD*%
%TA.AperFunction,Conductor*%
%ADD24C,0.200000*%
%TD*%
G04 APERTURE END LIST*
D10*
%TO.P,J10,TN*%
%TO.N,N/C*%
X27835413Y-60369717D03*
D11*
%TO.P,J10,T*%
%TO.N,Net-(J11-Pin_4)*%
X30335413Y-60369717D03*
D12*
%TO.P,J10,S*%
%TO.N,Net-(J11-Pin_1)*%
X25335413Y-65369717D03*
D13*
%TO.P,J10,RN*%
%TO.N,N/C*%
X22835413Y-60369717D03*
D11*
%TO.P,J10,R*%
X20335413Y-60369717D03*
%TD*%
D14*
%TO.P,J8,6,Pin_6*%
%TO.N,GND*%
X39500000Y-18840000D03*
%TO.P,J8,5,Pin_5*%
%TO.N,Net-(J8-Pin_5)*%
X39500000Y-21380000D03*
%TO.P,J8,4,Pin_4*%
%TO.N,Net-(J8-Pin_4)*%
X39500000Y-23920000D03*
%TO.P,J8,3,Pin_3*%
%TO.N,Net-(J8-Pin_3)*%
X39500000Y-26460000D03*
%TO.P,J8,2,Pin_2*%
%TO.N,Net-(J8-Pin_2)*%
X39500000Y-29000000D03*
D15*
%TO.P,J8,1,Pin_1*%
%TO.N,Net-(J8-Pin_1)*%
X39500000Y-31540000D03*
%TD*%
D14*
%TO.P,J7,7,Pin_7*%
%TO.N,+3V3*%
X15000000Y-52580000D03*
%TO.P,J7,6,Pin_6*%
%TO.N,GND*%
X15000000Y-50040000D03*
%TO.P,J7,5,Pin_5*%
%TO.N,unconnected-(J7-Pin_5-Pad5)*%
X15000000Y-47500000D03*
%TO.P,J7,4,Pin_4*%
%TO.N,unconnected-(J7-Pin_4-Pad4)*%
X15000000Y-44960000D03*
%TO.P,J7,3,Pin_3*%
%TO.N,Net-(J7-Pin_3)*%
X15000000Y-42420000D03*
%TO.P,J7,2,Pin_2*%
%TO.N,Net-(J7-Pin_2)*%
X15000000Y-39880000D03*
D15*
%TO.P,J7,1,Pin_1*%
%TO.N,Net-(J7-Pin_1)*%
X15000000Y-37340000D03*
%TD*%
D16*
%TO.P,U1,39,GND*%
%TO.N,GND*%
X26800000Y-25800000D03*
D17*
X26800000Y-25100000D03*
D16*
X26800000Y-24400000D03*
D17*
X26800000Y-23700000D03*
D16*
X26800000Y-23000000D03*
D17*
X26100000Y-25800000D03*
X26100000Y-24400000D03*
X26100000Y-23000000D03*
D16*
X25400000Y-25800000D03*
D17*
X25400000Y-25100000D03*
D18*
X25400000Y-24400000D03*
D16*
X25400000Y-24400000D03*
D17*
X25400000Y-23700000D03*
D16*
X25400000Y-23000000D03*
D17*
X24700000Y-25800000D03*
X24700000Y-24400000D03*
X24700000Y-23000000D03*
D16*
X24000000Y-25800000D03*
D17*
X24000000Y-25100000D03*
D16*
X24000000Y-24400000D03*
D17*
X24000000Y-23700000D03*
D16*
X24000000Y-23000000D03*
D19*
%TO.P,U1,38,GND*%
X35650000Y-17060000D03*
%TO.P,U1,37,IO23*%
%TO.N,Net-(J6-Pin_1)*%
X35650000Y-18330000D03*
%TO.P,U1,36,IO22*%
%TO.N,Net-(J8-Pin_5)*%
X35650000Y-19600000D03*
%TO.P,U1,35,TXD0/IO1*%
%TO.N,Net-(J1-Pin_4)*%
X35650000Y-20870000D03*
%TO.P,U1,34,RXD0/IO3*%
%TO.N,Net-(J1-Pin_3)*%
X35650000Y-22140000D03*
%TO.P,U1,33,IO21*%
%TO.N,Net-(J8-Pin_4)*%
X35650000Y-23410000D03*
%TO.P,U1,32,NC*%
%TO.N,unconnected-(U1-NC-Pad32)*%
X35650000Y-24680000D03*
%TO.P,U1,31,IO19*%
%TO.N,Net-(J8-Pin_3)*%
X35650000Y-25950000D03*
%TO.P,U1,30,IO18*%
%TO.N,Net-(J8-Pin_2)*%
X35650000Y-27220000D03*
%TO.P,U1,29,IO5*%
%TO.N,Net-(J8-Pin_1)*%
X35650000Y-28490000D03*
%TO.P,U1,28,IO17*%
%TO.N,Net-(J9-Pin_5)*%
X35650000Y-29760000D03*
%TO.P,U1,27,IO16*%
%TO.N,Net-(J9-Pin_4)*%
X35650000Y-31030000D03*
%TO.P,U1,26,IO4*%
%TO.N,Net-(J9-Pin_2)*%
X35650000Y-32300000D03*
%TO.P,U1,25,IO0*%
%TO.N,Net-(U1-EN)*%
X35650000Y-33570000D03*
D20*
%TO.P,U1,24,IO2*%
%TO.N,Net-(J9-Pin_1)*%
X32615000Y-34820000D03*
%TO.P,U1,23,IO15*%
%TO.N,Net-(J7-Pin_3)*%
X31345000Y-34820000D03*
%TO.P,U1,22,NC*%
%TO.N,unconnected-(U1-NC-Pad22)*%
X30075000Y-34820000D03*
%TO.P,U1,21,NC*%
%TO.N,unconnected-(U1-NC-Pad21)*%
X28805000Y-34820000D03*
%TO.P,U1,20,NC*%
%TO.N,unconnected-(U1-NC-Pad20)*%
X27535000Y-34820000D03*
%TO.P,U1,19,NC*%
%TO.N,unconnected-(U1-NC-Pad19)*%
X26265000Y-34820000D03*
%TO.P,U1,18,NC*%
%TO.N,unconnected-(U1-NC-Pad18)*%
X24995000Y-34820000D03*
%TO.P,U1,17,NC*%
%TO.N,unconnected-(U1-NC-Pad17)*%
X23725000Y-34820000D03*
%TO.P,U1,16,IO13*%
%TO.N,Net-(J7-Pin_1)*%
X22455000Y-34820000D03*
%TO.P,U1,15,GND*%
%TO.N,GND*%
X21185000Y-34820000D03*
D19*
%TO.P,U1,14,IO12*%
%TO.N,Net-(J9-Pin_3)*%
X18150000Y-33570000D03*
%TO.P,U1,13,IO14*%
%TO.N,Net-(J7-Pin_2)*%
X18150000Y-32300000D03*
%TO.P,U1,12,IO27*%
%TO.N,Net-(J5-Pin_2)*%
X18150000Y-31030000D03*
%TO.P,U1,11,IO26*%
%TO.N,Net-(J5-Pin_4)*%
X18150000Y-29760000D03*
%TO.P,U1,10,IO25*%
%TO.N,Net-(J5-Pin_3)*%
X18150000Y-28490000D03*
%TO.P,U1,9,IO33*%
%TO.N,Net-(J6-Pin_3)*%
X18150000Y-27220000D03*
%TO.P,U1,8,IO32*%
%TO.N,Net-(J6-Pin_2)*%
X18150000Y-25950000D03*
%TO.P,U1,7,IO35*%
%TO.N,Net-(J9-Pin_7)*%
X18150000Y-24680000D03*
%TO.P,U1,6,IO34*%
%TO.N,Net-(J9-Pin_6)*%
X18150000Y-23410000D03*
%TO.P,U1,5,SENSOR_VN*%
%TO.N,unconnected-(U1-SENSOR_VN-Pad5)*%
X18150000Y-22140000D03*
%TO.P,U1,4,SENSOR_VP*%
%TO.N,unconnected-(U1-SENSOR_VP-Pad4)*%
X18150000Y-20870000D03*
%TO.P,U1,3,EN*%
%TO.N,Net-(U1-EN)*%
X18150000Y-19600000D03*
%TO.P,U1,2,VDD*%
%TO.N,+3V3*%
X18150000Y-18330000D03*
%TO.P,U1,1,GND*%
%TO.N,GND*%
X18150000Y-17060000D03*
%TD*%
D15*
%TO.P,J2,1,Pin_1*%
%TO.N,GND*%
X31000000Y-39460000D03*
D14*
%TO.P,J2,2,Pin_2*%
X31000000Y-42000000D03*
%TD*%
D21*
%TO.P,C1,1*%
%TO.N,Net-(J1-Pin_5)*%
X35500000Y-48000000D03*
%TO.P,C1,2*%
%TO.N,Net-(U1-EN)*%
X35500000Y-38000000D03*
%TD*%
D15*
%TO.P,J4,1,Pin_1*%
%TO.N,+5V*%
X26960000Y-39250000D03*
D14*
%TO.P,J4,2,Pin_2*%
X26960000Y-41790000D03*
%TD*%
D15*
%TO.P,J6,1,Pin_1*%
%TO.N,Net-(J6-Pin_1)*%
X39000000Y-36420000D03*
D14*
%TO.P,J6,2,Pin_2*%
%TO.N,Net-(J6-Pin_2)*%
X39000000Y-38960000D03*
%TO.P,J6,3,Pin_3*%
%TO.N,Net-(J6-Pin_3)*%
X39000000Y-41500000D03*
%TO.P,J6,4,Pin_4*%
%TO.N,unconnected-(J6-Pin_4-Pad4)*%
X39000000Y-44040000D03*
%TO.P,J6,5,Pin_5*%
%TO.N,unconnected-(J6-Pin_5-Pad5)*%
X39000000Y-46580000D03*
%TO.P,J6,6,Pin_6*%
%TO.N,GND*%
X39000000Y-49120000D03*
%TO.P,J6,7,Pin_7*%
%TO.N,+3V3*%
X39000000Y-51660000D03*
%TD*%
D15*
%TO.P,J5,1,Pin_1*%
%TO.N,GND*%
X19380000Y-49000000D03*
D14*
%TO.P,J5,2,Pin_2*%
%TO.N,Net-(J5-Pin_2)*%
X21920000Y-49000000D03*
%TO.P,J5,3,Pin_3*%
%TO.N,Net-(J5-Pin_3)*%
X24460000Y-49000000D03*
%TO.P,J5,4,Pin_4*%
%TO.N,Net-(J5-Pin_4)*%
X27000000Y-49000000D03*
%TO.P,J5,5,Pin_5*%
%TO.N,GND*%
X29540000Y-49000000D03*
%TO.P,J5,6,Pin_6*%
%TO.N,+5V*%
X32080000Y-49000000D03*
%TD*%
D22*
%TO.P,R1,1*%
%TO.N,+3V3*%
X18000000Y-45000000D03*
%TO.P,R1,2*%
%TO.N,Net-(U1-EN)*%
X18000000Y-37380000D03*
%TD*%
D15*
%TO.P,J3,1,Pin_1*%
%TO.N,+3V3*%
X22370000Y-39250000D03*
D14*
%TO.P,J3,2,Pin_2*%
X22370000Y-41790000D03*
%TD*%
D15*
%TO.P,J9,1,Pin_1*%
%TO.N,Net-(J9-Pin_1)*%
X15000000Y-33500000D03*
D14*
%TO.P,J9,2,Pin_2*%
%TO.N,Net-(J9-Pin_2)*%
X15000000Y-30960000D03*
%TO.P,J9,3,Pin_3*%
%TO.N,Net-(J9-Pin_3)*%
X15000000Y-28420000D03*
%TO.P,J9,4,Pin_4*%
%TO.N,Net-(J9-Pin_4)*%
X15000000Y-25880000D03*
%TO.P,J9,5,Pin_5*%
%TO.N,Net-(J9-Pin_5)*%
X15000000Y-23340000D03*
%TO.P,J9,6,Pin_6*%
%TO.N,Net-(J9-Pin_6)*%
X15000000Y-20800000D03*
%TO.P,J9,7,Pin_7*%
%TO.N,Net-(J9-Pin_7)*%
X15000000Y-18260000D03*
%TD*%
D15*
%TO.P,J1,1,Pin_1*%
%TO.N,GND*%
X33850000Y-53000000D03*
D14*
%TO.P,J1,2,Pin_2*%
%TO.N,+5V*%
X31310000Y-53000000D03*
%TO.P,J1,3,Pin_3*%
%TO.N,Net-(J1-Pin_3)*%
X28770000Y-53000000D03*
%TO.P,J1,4,Pin_4*%
%TO.N,Net-(J1-Pin_4)*%
X26230000Y-53000000D03*
%TO.P,J1,5,Pin_5*%
%TO.N,Net-(J1-Pin_5)*%
X23690000Y-53000000D03*
%TO.P,J1,6,Pin_6*%
%TO.N,+3V3*%
X21150000Y-53000000D03*
%TD*%
D21*
%TO.P,C2,1*%
%TO.N,+3V3*%
X34500000Y-56500000D03*
%TO.P,C2,2*%
%TO.N,GND*%
X39500000Y-56500000D03*
%TD*%
D15*
%TO.P,J11,1,Pin_1*%
%TO.N,Net-(J11-Pin_1)*%
X16500000Y-67040000D03*
D14*
%TO.P,J11,2,Pin_2*%
%TO.N,N/C*%
X16500000Y-64500000D03*
%TO.P,J11,3,Pin_3*%
X16500000Y-61960000D03*
%TO.P,J11,4,Pin_4*%
%TO.N,Net-(J11-Pin_4)*%
X16500000Y-59420000D03*
%TO.P,J11,5,Pin_5*%
%TO.N,N/C*%
X16500000Y-56880000D03*
%TD*%
D23*
%TO.N,Net-(J9-Pin_4)*%
X33750000Y-30250000D03*
%TO.N,Net-(J9-Pin_5)*%
X34250000Y-29250000D03*
%TO.N,Net-(J9-Pin_4)*%
X31500000Y-23500000D03*
%TO.N,Net-(U1-EN)*%
X38500000Y-33500000D03*
%TO.N,+3V3*%
X17000000Y-18500000D03*
%TO.N,Net-(U1-EN)*%
X20612307Y-24806932D03*
%TO.N,Net-(J7-Pin_3)*%
X31000000Y-36500000D03*
%TO.N,Net-(J7-Pin_1)*%
X22500000Y-36500000D03*
%TO.N,Net-(J9-Pin_2)*%
X37500000Y-32500000D03*
%TO.N,Net-(J6-Pin_3)*%
X32000000Y-33000000D03*
%TO.N,Net-(J6-Pin_2)*%
X32000000Y-32000000D03*
%TD*%
D24*
%TO.N,*%
X18460000Y-60000000D02*
X16500000Y-61960000D01*
X21500000Y-58500000D02*
X18120000Y-58500000D01*
X18120000Y-58500000D02*
X16500000Y-56880000D01*
%TO.N,Net-(J11-Pin_4)*%
X15000000Y-57920000D02*
X16500000Y-59420000D01*
X15271000Y-55729000D02*
X15000000Y-56000000D01*
X15000000Y-56000000D02*
X15000000Y-57920000D01*
%TO.N,Net-(J11-Pin_1)*%
X18399000Y-65000000D02*
X16500000Y-66899000D01*
%TO.N,Net-(J1-Pin_5)*%
X23690000Y-53000000D02*
X24841000Y-54151000D01*
X24841000Y-54151000D02*
X31786760Y-54151000D01*
X32699000Y-53238760D02*
X32699000Y-50801000D01*
X32699000Y-50801000D02*
X35500000Y-48000000D01*
X31786760Y-54151000D02*
X32699000Y-53238760D01*
%TO.N,Net-(J1-Pin_4)*%
X28389000Y-50841000D02*
X26230000Y-53000000D01*
X32700000Y-28168629D02*
X32700000Y-30831371D01*
X33366000Y-22204000D02*
X33366000Y-27502629D01*
X32700000Y-30831371D02*
X33366000Y-31497371D01*
%TO.N,Net-(J1-Pin_3)*%
X34700000Y-22140000D02*
X33766000Y-23074000D01*
X33366000Y-46086240D02*
X30929000Y-48523240D01*
%TO.N,Net-(J1-Pin_4)*%
X34700000Y-20870000D02*
X33366000Y-22204000D01*
X33366000Y-27502629D02*
X32700000Y-28168629D01*
%TO.N,Net-(J1-Pin_3)*%
X30929000Y-50841000D02*
X28770000Y-53000000D01*
%TO.N,Net-(J1-Pin_4)*%
X33366000Y-31497371D02*
X33366000Y-43546240D01*
%TO.N,Net-(J1-Pin_3)*%
X33366000Y-44111926D02*
X33366000Y-46086240D01*
%TO.N,Net-(J1-Pin_4)*%
X33366000Y-43546240D02*
X28389000Y-48523240D01*
%TO.N,Net-(J1-Pin_3)*%
X35650000Y-22140000D02*
X34700000Y-22140000D01*
X33100000Y-28334314D02*
X33100000Y-30665685D01*
%TO.N,Net-(J9-Pin_4)*%
X35650000Y-31030000D02*
X34530000Y-31030000D01*
%TO.N,Net-(J1-Pin_3)*%
X33766000Y-31331685D02*
X33766000Y-43711926D01*
%TO.N,Net-(J1-Pin_4)*%
X35650000Y-20870000D02*
X34700000Y-20870000D01*
%TO.N,Net-(J1-Pin_3)*%
X33100000Y-30665685D02*
X33766000Y-31331685D01*
X33766000Y-27668314D02*
X33100000Y-28334314D01*
X33766000Y-23074000D02*
X33766000Y-27668314D01*
%TO.N,Net-(J1-Pin_4)*%
X28389000Y-48523240D02*
X28389000Y-50841000D01*
%TO.N,Net-(J1-Pin_3)*%
X33766000Y-43711926D02*
X33366000Y-44111926D01*
X30929000Y-48523240D02*
X30929000Y-50841000D01*
%TO.N,Net-(J9-Pin_4)*%
X34530000Y-31030000D02*
X33750000Y-30250000D01*
%TO.N,Net-(J9-Pin_5)*%
X34760000Y-29760000D02*
X34250000Y-29250000D01*
X35650000Y-29760000D02*
X34760000Y-29760000D01*
%TO.N,Net-(U1-EN)*%
X35650000Y-33570000D02*
X38430000Y-33570000D01*
X38430000Y-33570000D02*
X38500000Y-33500000D01*
%TO.N,+3V3*%
X17000000Y-18500000D02*
X17980000Y-18500000D01*
X17980000Y-18500000D02*
X18150000Y-18330000D01*
%TO.N,Net-(U1-EN)*%
X19100000Y-19600000D02*
X20000000Y-20500000D01*
X20000000Y-24194625D02*
X20612307Y-24806932D01*
X18150000Y-19600000D02*
X19100000Y-19600000D01*
X20000000Y-20500000D02*
X20000000Y-24194625D01*
%TO.N,Net-(J7-Pin_3)*%
X31345000Y-34820000D02*
X31345000Y-36155000D01*
X31345000Y-36155000D02*
X31000000Y-36500000D01*
%TO.N,Net-(J7-Pin_1)*%
X22455000Y-34820000D02*
X22455000Y-36455000D01*
X22455000Y-36455000D02*
X22500000Y-36500000D01*
%TO.N,Net-(J9-Pin_2)*%
X35650000Y-32300000D02*
X37300000Y-32300000D01*
X37300000Y-32300000D02*
X37500000Y-32500000D01*
%TO.N,GND*%
X35650000Y-17060000D02*
X37720000Y-17060000D01*
X37720000Y-17060000D02*
X39500000Y-18840000D01*
%TO.N,Net-(J6-Pin_1)*%
X39000000Y-36420000D02*
X40651000Y-34769000D01*
X40651000Y-34769000D02*
X40651000Y-20651000D01*
X40651000Y-20651000D02*
X40000000Y-20000000D01*
X40000000Y-20000000D02*
X39032240Y-20000000D01*
X39032240Y-20000000D02*
X38170000Y-19137760D01*
X38170000Y-19137760D02*
X38170000Y-18330000D01*
X38170000Y-18330000D02*
X35650000Y-18330000D01*
%TO.N,GND*%
X21185000Y-34820000D02*
X21185000Y-34500000D01*
X24000000Y-25800000D02*
X26649943Y-25800000D01*
X26649943Y-25800000D02*
X32601000Y-31751057D01*
X32601000Y-31751057D02*
X32601000Y-33248943D01*
X21454000Y-33601000D02*
X21185000Y-33870000D01*
X21185000Y-33870000D02*
X21185000Y-34820000D01*
X32601000Y-33248943D02*
X32248943Y-33601000D01*
X32248943Y-33601000D02*
X21454000Y-33601000D01*
X35650000Y-17060000D02*
X34940000Y-17060000D01*
X29000000Y-23000000D02*
X26800000Y-23000000D01*
X34940000Y-17060000D02*
X29000000Y-23000000D01*
%TO.N,Net-(J9-Pin_7)*%
X15000000Y-18260000D02*
X13849000Y-19411000D01*
X13849000Y-19411000D02*
X13849000Y-21349000D01*
X15476760Y-22189000D02*
X17099000Y-23811240D01*
X13849000Y-21349000D02*
X14689000Y-22189000D01*
X17099000Y-23811240D02*
X17099000Y-24579000D01*
X14689000Y-22189000D02*
X15476760Y-22189000D01*
X17099000Y-24579000D02*
X17200000Y-24680000D01*
X17200000Y-24680000D02*
X18150000Y-24680000D01*
%TO.N,Net-(J9-Pin_3)*%
X15000000Y-28420000D02*
X17099000Y-30519000D01*
X17200000Y-33570000D02*
X18150000Y-33570000D01*
X17099000Y-30519000D02*
X17099000Y-33469000D01*
X17099000Y-33469000D02*
X17200000Y-33570000D01*
%TO.N,Net-(J9-Pin_2)*%
X15000000Y-30960000D02*
X15000000Y-31000000D01*
%TO.N,Net-(J5-Pin_4)*%
X20001000Y-32487628D02*
X20000000Y-32486629D01*
%TO.N,Net-(J5-Pin_2)*%
X19100000Y-31030000D02*
X18150000Y-31030000D01*
%TO.N,Net-(J5-Pin_4)*%
X20000000Y-45452240D02*
X20000000Y-39631371D01*
X20000000Y-30660000D02*
X19100000Y-29760000D01*
X27000000Y-49000000D02*
X25849000Y-50151000D01*
X23071000Y-49571000D02*
X23071000Y-48523240D01*
X25849000Y-50151000D02*
X23651000Y-50151000D01*
%TO.N,Net-(J5-Pin_2)*%
X19601000Y-32653314D02*
X19500000Y-32552314D01*
%TO.N,Net-(J7-Pin_2)*%
X19201000Y-32819000D02*
X19201000Y-39299000D01*
%TO.N,Net-(J5-Pin_2)*%
X19500000Y-32552314D02*
X19500000Y-31430000D01*
%TO.N,Net-(J5-Pin_4)*%
X20000000Y-32486629D02*
X20000000Y-30660000D01*
%TO.N,Net-(J5-Pin_2)*%
X19500000Y-46580000D02*
X19500000Y-39565685D01*
%TO.N,Net-(J5-Pin_4)*%
X20001000Y-39630370D02*
X20001000Y-32487628D01*
%TO.N,Net-(J5-Pin_2)*%
X19500000Y-39565685D02*
X19601000Y-39464685D01*
%TO.N,Net-(J5-Pin_4)*%
X23071000Y-48523240D02*
X20000000Y-45452240D01*
X23651000Y-50151000D02*
X23071000Y-49571000D01*
%TO.N,Net-(J5-Pin_2)*%
X19500000Y-31430000D02*
X19100000Y-31030000D01*
X19601000Y-39464685D02*
X19601000Y-32653314D01*
X21920000Y-49000000D02*
X19500000Y-46580000D01*
%TO.N,Net-(J5-Pin_4)*%
X19100000Y-29760000D02*
X18150000Y-29760000D01*
X20000000Y-39631371D02*
X20001000Y-39630370D01*
%TO.N,Net-(J7-Pin_2)*%
X18150000Y-32300000D02*
X18682000Y-32300000D01*
X18682000Y-32300000D02*
X19201000Y-32819000D01*
X19201000Y-39299000D02*
X18620000Y-39880000D01*
X18620000Y-39880000D02*
X15000000Y-39880000D01*
%TO.N,Net-(J5-Pin_3)*%
X18150000Y-28490000D02*
X18682000Y-28490000D01*
X18682000Y-28490000D02*
X20434000Y-30242000D01*
X20434000Y-44974000D02*
X24460000Y-49000000D01*
X20434000Y-30242000D02*
X20434000Y-44974000D01*
%TO.N,Net-(J6-Pin_2)*%
X31565686Y-32000000D02*
X32000000Y-32000000D01*
X26385686Y-26820000D02*
X31565686Y-32000000D01*
X23385686Y-26820000D02*
X26385686Y-26820000D01*
X22515686Y-25950000D02*
X23385686Y-26820000D01*
%TO.N,Net-(J6-Pin_3)*%
X18150000Y-27220000D02*
X26220000Y-27220000D01*
%TO.N,Net-(J6-Pin_2)*%
X18150000Y-25950000D02*
X22515686Y-25950000D01*
%TO.N,Net-(J6-Pin_3)*%
X26220000Y-27220000D02*
X32000000Y-33000000D01*
%TO.N,Net-(J9-Pin_6)*%
X18150000Y-23410000D02*
X17610000Y-23410000D01*
X17610000Y-23410000D02*
X15000000Y-20800000D01*
%TO.N,Net-(U1-EN)*%
X18000000Y-37380000D02*
X18000000Y-37500000D01*
%TO.N,Net-(J9-Pin_6)*%
X15000000Y-21000000D02*
X15000000Y-20800000D01*
%TO.N,GND*%
X31000000Y-39460000D02*
X30540000Y-39460000D01*
X30540000Y-39460000D02*
X30500000Y-39500000D01*
%TO.N,Net-(U1-EN)*%
X35500000Y-38000000D02*
X35500000Y-33720000D01*
X35500000Y-33720000D02*
X35650000Y-33570000D01*
%TO.N,Net-(J9-Pin_5)*%
X14500000Y-23500000D02*
X14500000Y-23380000D01*
%TO.N,GND*%
X24000000Y-25100000D02*
X24000000Y-25800000D01*
X24000000Y-23700000D02*
X25400000Y-23700000D01*
X24700000Y-24400000D02*
X24700000Y-23000000D01*
X25400000Y-23700000D02*
X25400000Y-24400000D01*
X26100000Y-25800000D02*
X26100000Y-24400000D01*
X24000000Y-25100000D02*
X24000000Y-24400000D01*
X24700000Y-25800000D02*
X24700000Y-24400000D01*
X25400000Y-24400000D02*
X24000000Y-25800000D01*
X26100000Y-24400000D02*
X26100000Y-23000000D01*
X26800000Y-23700000D02*
X25400000Y-23700000D01*
X25400000Y-23000000D02*
X26800000Y-23000000D01*
X24000000Y-23000000D02*
X24000000Y-22350000D01*
X18710000Y-17060000D02*
X18150000Y-17060000D01*
X24000000Y-22350000D02*
X18710000Y-17060000D01*
X25400000Y-23000000D02*
X24000000Y-23000000D01*
X25400000Y-23000000D02*
X25400000Y-23700000D01*
X24000000Y-24400000D02*
X24000000Y-23000000D01*
X25400000Y-24400000D02*
X24000000Y-24400000D01*
X25400000Y-25800000D02*
X25400000Y-24400000D01*
X26800000Y-25800000D02*
X25400000Y-25800000D01*
X26800000Y-25800000D02*
X26800000Y-24400000D01*
X26800000Y-23000000D02*
X26800000Y-24400000D01*
%TO.N,Net-(J8-Pin_1)*%
X39500000Y-31540000D02*
X36450000Y-28490000D01*
X36450000Y-28490000D02*
X35650000Y-28490000D01*
%TO.N,Net-(J8-Pin_2)*%
X39500000Y-29000000D02*
X37720000Y-27220000D01*
X37720000Y-27220000D02*
X35650000Y-27220000D01*
%TO.N,Net-(J8-Pin_3)*%
X39500000Y-26460000D02*
X36160000Y-26460000D01*
X36160000Y-26460000D02*
X35650000Y-25950000D01*
%TO.N,Net-(J8-Pin_4)*%
X39500000Y-23920000D02*
X36160000Y-23920000D01*
X36160000Y-23920000D02*
X35650000Y-23410000D01*
%TO.N,Net-(J8-Pin_5)*%
X39500000Y-21380000D02*
X37720000Y-19600000D01*
X37720000Y-19600000D02*
X35650000Y-19600000D01*
%TO.N,Net-(J9-Pin_3)*%
X14500000Y-28460000D02*
X14500000Y-28500000D01*
%TO.N,*%
X21500000Y-58000000D02*
X21500000Y-58500000D01*
%TO.N,GND*%
X33850000Y-53000000D02*
X33540000Y-53000000D01*
%TO.N,unconnected-(J7-Pin_4-Pad4)*%
X14500000Y-45040000D02*
X14500000Y-45000000D01*
%TO.N,Net-(J7-Pin_2)*%
X14500000Y-39960000D02*
X14500000Y-40000000D01*
%TO.N,GND*%
X15000000Y-50040000D02*
X16040000Y-49000000D01*
X16040000Y-49000000D02*
X19380000Y-49000000D01*
%TO.N,*%
X17500000Y-64500000D02*
X20000000Y-62000000D01*
X16500000Y-64500000D02*
X17500000Y-64500000D01*
%TD*%
M02*
