M48
; DRILL file {KiCad 9.0.7} date 2026-02-12T17:09:30+0100
; FORMAT={-:-/ absolute / metric / decimal}
; #@! TF.CreationDate,2026-02-12T17:09:30+01:00
; #@! TF.GenerationSoftware,Kicad,Pcbnew,9.0.7
; #@! TF.FileFunction,Plated,1,4,PTH
FMAT,2
METRIC
; #@! TA.AperFunction,Plated,PTH,ComponentDrill
T1C0.200
; #@! TA.AperFunction,Plated,PTH,ViaDrill
T2C0.300
; #@! TA.AperFunction,Plated,PTH,ComponentDrill
T3C0.400
; #@! TA.AperFunction,Plated,PTH,ComponentDrill
T4C0.700
; #@! TA.AperFunction,Plated,PTH,ComponentDrill
T5C0.800
; #@! TA.AperFunction,Plated,PTH,ComponentDrill
T6C1.000
%
G90
G05
T1
X24.0Y-23.7
X24.0Y-25.1
X24.7Y-23.0
X24.7Y-24.4
X24.7Y-25.8
X25.4Y-23.7
X25.4Y-25.1
X26.1Y-23.0
X26.1Y-24.4
X26.1Y-25.8
X26.8Y-23.7
X26.8Y-25.1
T2
X17.0Y-18.5
X20.612Y-24.807
X22.5Y-36.5
X31.0Y-36.5
X31.5Y-23.5
X32.0Y-32.0
X32.0Y-33.0
X33.75Y-30.25
X34.25Y-29.25
X37.5Y-32.5
X38.5Y-33.5
T4
X18.0Y-37.38
X18.0Y-45.0
T5
X34.5Y-56.5
X35.5Y-38.0
X35.5Y-48.0
X39.5Y-56.5
T6
X15.0Y-18.26
X15.0Y-20.8
X15.0Y-23.34
X15.0Y-25.88
X15.0Y-28.42
X15.0Y-30.96
X15.0Y-33.5
X15.0Y-37.34
X15.0Y-39.88
X15.0Y-42.42
X15.0Y-44.96
X15.0Y-47.5
X15.0Y-50.04
X15.0Y-52.58
X18.5Y-57.46
X18.5Y-60.0
X18.5Y-62.54
X18.5Y-65.08
X18.5Y-67.62
X19.38Y-49.0
X21.15Y-53.0
X21.92Y-49.0
X22.37Y-39.25
X22.37Y-41.79
X23.69Y-53.0
X24.46Y-49.0
X26.23Y-53.0
X26.96Y-39.25
X26.96Y-41.79
X27.0Y-49.0
X28.77Y-53.0
X29.54Y-49.0
X31.0Y-39.46
X31.0Y-42.0
X31.31Y-53.0
X32.08Y-49.0
X33.85Y-53.0
X39.0Y-36.42
X39.0Y-38.96
X39.0Y-41.5
X39.0Y-44.04
X39.0Y-46.58
X39.0Y-49.12
X39.0Y-51.66
X39.5Y-18.84
X39.5Y-21.38
X39.5Y-23.92
X39.5Y-26.46
X39.5Y-29.0
X39.5Y-31.54
T3
G00X22.0Y-60.0
M15
G01X22.0Y-61.0
M16
G05
G00X26.5Y-65.5
M15
G01X27.5Y-65.5
M16
G05
G00X32.0Y-61.0
M15
G01X32.0Y-60.0
M16
G05
T5
G00X24.5Y-60.15
M15
G01X24.5Y-60.85
M16
G05
G00X29.5Y-60.85
M15
G01X29.5Y-60.15
M16
G05
M30
