%TF.GenerationSoftware,KiCad,Pcbnew,9.0.7*%
%TF.CreationDate,2026-02-12T01:51:18+01:00*%
%TF.ProjectId,ESP_catphones,4553505f-6361-4747-9068-6f6e65732e6b,rev?*%
%TF.SameCoordinates,Original*%
%TF.FileFunction,Copper,L4,Bot*%
%TF.FilePolarity,Positive*%
%FSLAX46Y46*%
G04 Gerber Fmt 4.6, Leading zero omitted, Abs format (unit mm)*
G04 Created by KiCad (PCBNEW 9.0.7) date 2026-02-12 01:51:18*
%MOMM*%
%LPD*%
G01*
G04 APERTURE LIST*
%TA.AperFunction,ComponentPad*%
%ADD10O,1.600000X2.500000*%
%TD*%
%TA.AperFunction,ComponentPad*%
%ADD11O,1.200000X2.200000*%
%TD*%
%TA.AperFunction,ComponentPad*%
%ADD12O,2.200000X1.200000*%
%TD*%
%TA.AperFunction,ComponentPad*%
%ADD13O,1.600000X2.300000*%
%TD*%
%TA.AperFunction,ComponentPad*%
%ADD14C,1.700000*%
%TD*%
%TA.AperFunction,ComponentPad*%
%ADD15R,1.700000X1.700000*%
%TD*%
%TA.AperFunction,HeatsinkPad*%
%ADD16C,0.600000*%
%TD*%
%TA.AperFunction,ComponentPad*%
%ADD17C,1.600000*%
%TD*%
%TA.AperFunction,ComponentPad*%
%ADD18C,1.400000*%
%TD*%
%TA.AperFunction,ViaPad*%
%ADD19C,0.600000*%
%TD*%
%TA.AperFunction,Conductor*%
%ADD20C,0.200000*%
%TD*%
G04 APERTURE END LIST*
D10*
%TO.P,J10,TN*%
%TO.N,N/C*%
X27835413Y-60369717D03*
D11*
%TO.P,J10,T*%
%TO.N,Net-(J11-Pin_4)*%
X30335413Y-60369717D03*
D12*
%TO.P,J10,S*%
%TO.N,Net-(J11-Pin_1)*%
X25335413Y-65369717D03*
D13*
%TO.P,J10,RN*%
%TO.N,N/C*%
X22835413Y-60369717D03*
D11*
%TO.P,J10,R*%
X20335413Y-60369717D03*
%TD*%
D14*
%TO.P,J8,6,Pin_6*%
%TO.N,GND*%
X39500000Y-18840000D03*
%TO.P,J8,5,Pin_5*%
%TO.N,Net-(J8-Pin_5)*%
X39500000Y-21380000D03*
%TO.P,J8,4,Pin_4*%
%TO.N,Net-(J8-Pin_4)*%
X39500000Y-23920000D03*
%TO.P,J8,3,Pin_3*%
%TO.N,Net-(J8-Pin_3)*%
X39500000Y-26460000D03*
%TO.P,J8,2,Pin_2*%
%TO.N,Net-(J8-Pin_2)*%
X39500000Y-29000000D03*
D15*
%TO.P,J8,1,Pin_1*%
%TO.N,Net-(J8-Pin_1)*%
X39500000Y-31540000D03*
%TD*%
D14*
%TO.P,J7,7,Pin_7*%
%TO.N,+3V3*%
X15000000Y-52580000D03*
%TO.P,J7,6,Pin_6*%
%TO.N,GND*%
X15000000Y-50040000D03*
%TO.P,J7,5,Pin_5*%
%TO.N,unconnected-(J7-Pin_5-Pad5)*%
X15000000Y-47500000D03*
%TO.P,J7,4,Pin_4*%
%TO.N,unconnected-(J7-Pin_4-Pad4)*%
X15000000Y-44960000D03*
%TO.P,J7,3,Pin_3*%
%TO.N,Net-(J7-Pin_3)*%
X15000000Y-42420000D03*
%TO.P,J7,2,Pin_2*%
%TO.N,Net-(J7-Pin_2)*%
X15000000Y-39880000D03*
D15*
%TO.P,J7,1,Pin_1*%
%TO.N,Net-(J7-Pin_1)*%
X15000000Y-37340000D03*
%TD*%
D16*
%TO.P,U1,39,GND*%
%TO.N,GND*%
X26800000Y-25100000D03*
X26800000Y-23700000D03*
X26100000Y-25800000D03*
X26100000Y-24400000D03*
X26100000Y-23000000D03*
X25400000Y-25100000D03*
X25400000Y-23700000D03*
X24700000Y-25800000D03*
X24700000Y-24400000D03*
X24700000Y-23000000D03*
X24000000Y-25100000D03*
X24000000Y-23700000D03*
%TD*%
D15*
%TO.P,J2,1,Pin_1*%
%TO.N,GND*%
X31000000Y-39460000D03*
D14*
%TO.P,J2,2,Pin_2*%
X31000000Y-42000000D03*
%TD*%
D17*
%TO.P,C1,1*%
%TO.N,Net-(J1-Pin_5)*%
X35500000Y-48000000D03*
%TO.P,C1,2*%
%TO.N,Net-(U1-EN)*%
X35500000Y-38000000D03*
%TD*%
D15*
%TO.P,J4,1,Pin_1*%
%TO.N,+5V*%
X26960000Y-39250000D03*
D14*
%TO.P,J4,2,Pin_2*%
X26960000Y-41790000D03*
%TD*%
D15*
%TO.P,J6,1,Pin_1*%
%TO.N,Net-(J6-Pin_1)*%
X39000000Y-36420000D03*
D14*
%TO.P,J6,2,Pin_2*%
%TO.N,Net-(J6-Pin_2)*%
X39000000Y-38960000D03*
%TO.P,J6,3,Pin_3*%
%TO.N,Net-(J6-Pin_3)*%
X39000000Y-41500000D03*
%TO.P,J6,4,Pin_4*%
%TO.N,unconnected-(J6-Pin_4-Pad4)*%
X39000000Y-44040000D03*
%TO.P,J6,5,Pin_5*%
%TO.N,unconnected-(J6-Pin_5-Pad5)*%
X39000000Y-46580000D03*
%TO.P,J6,6,Pin_6*%
%TO.N,GND*%
X39000000Y-49120000D03*
%TO.P,J6,7,Pin_7*%
%TO.N,+3V3*%
X39000000Y-51660000D03*
%TD*%
D15*
%TO.P,J5,1,Pin_1*%
%TO.N,GND*%
X19380000Y-49000000D03*
D14*
%TO.P,J5,2,Pin_2*%
%TO.N,Net-(J5-Pin_2)*%
X21920000Y-49000000D03*
%TO.P,J5,3,Pin_3*%
%TO.N,Net-(J5-Pin_3)*%
X24460000Y-49000000D03*
%TO.P,J5,4,Pin_4*%
%TO.N,Net-(J5-Pin_4)*%
X27000000Y-49000000D03*
%TO.P,J5,5,Pin_5*%
%TO.N,GND*%
X29540000Y-49000000D03*
%TO.P,J5,6,Pin_6*%
%TO.N,+5V*%
X32080000Y-49000000D03*
%TD*%
D18*
%TO.P,R1,1*%
%TO.N,+3V3*%
X18000000Y-45000000D03*
%TO.P,R1,2*%
%TO.N,Net-(U1-EN)*%
X18000000Y-37380000D03*
%TD*%
D15*
%TO.P,J3,1,Pin_1*%
%TO.N,+3V3*%
X22370000Y-39250000D03*
D14*
%TO.P,J3,2,Pin_2*%
X22370000Y-41790000D03*
%TD*%
D15*
%TO.P,J9,1,Pin_1*%
%TO.N,Net-(J9-Pin_1)*%
X15000000Y-33500000D03*
D14*
%TO.P,J9,2,Pin_2*%
%TO.N,Net-(J9-Pin_2)*%
X15000000Y-30960000D03*
%TO.P,J9,3,Pin_3*%
%TO.N,Net-(J9-Pin_3)*%
X15000000Y-28420000D03*
%TO.P,J9,4,Pin_4*%
%TO.N,Net-(J9-Pin_4)*%
X15000000Y-25880000D03*
%TO.P,J9,5,Pin_5*%
%TO.N,Net-(J9-Pin_5)*%
X15000000Y-23340000D03*
%TO.P,J9,6,Pin_6*%
%TO.N,Net-(J9-Pin_6)*%
X15000000Y-20800000D03*
%TO.P,J9,7,Pin_7*%
%TO.N,Net-(J9-Pin_7)*%
X15000000Y-18260000D03*
%TD*%
D15*
%TO.P,J1,1,Pin_1*%
%TO.N,GND*%
X33850000Y-53000000D03*
D14*
%TO.P,J1,2,Pin_2*%
%TO.N,+5V*%
X31310000Y-53000000D03*
%TO.P,J1,3,Pin_3*%
%TO.N,Net-(J1-Pin_3)*%
X28770000Y-53000000D03*
%TO.P,J1,4,Pin_4*%
%TO.N,Net-(J1-Pin_4)*%
X26230000Y-53000000D03*
%TO.P,J1,5,Pin_5*%
%TO.N,Net-(J1-Pin_5)*%
X23690000Y-53000000D03*
%TO.P,J1,6,Pin_6*%
%TO.N,+3V3*%
X21150000Y-53000000D03*
%TD*%
D17*
%TO.P,C2,1*%
%TO.N,+3V3*%
X34500000Y-56500000D03*
%TO.P,C2,2*%
%TO.N,GND*%
X39500000Y-56500000D03*
%TD*%
D15*
%TO.P,J11,1,Pin_1*%
%TO.N,Net-(J11-Pin_1)*%
X16500000Y-67040000D03*
D14*
%TO.P,J11,2,Pin_2*%
%TO.N,N/C*%
X16500000Y-64500000D03*
%TO.P,J11,3,Pin_3*%
X16500000Y-61960000D03*
%TO.P,J11,4,Pin_4*%
%TO.N,Net-(J11-Pin_4)*%
X16500000Y-59420000D03*
%TO.P,J11,5,Pin_5*%
%TO.N,N/C*%
X16500000Y-56880000D03*
%TD*%
D19*
%TO.N,Net-(J9-Pin_4)*%
X33750000Y-30250000D03*
%TO.N,Net-(J9-Pin_5)*%
X34250000Y-29250000D03*
%TO.N,Net-(J9-Pin_4)*%
X31500000Y-23500000D03*
%TO.N,Net-(U1-EN)*%
X38500000Y-33500000D03*
%TO.N,+3V3*%
X17000000Y-18500000D03*
%TO.N,Net-(U1-EN)*%
X20612307Y-24806932D03*
%TO.N,Net-(J7-Pin_3)*%
X31000000Y-36500000D03*
%TO.N,Net-(J7-Pin_1)*%
X22500000Y-36500000D03*
%TO.N,Net-(J9-Pin_2)*%
X37500000Y-32500000D03*
%TO.N,Net-(J6-Pin_3)*%
X32000000Y-33000000D03*
%TO.N,Net-(J6-Pin_2)*%
X32000000Y-32000000D03*
%TD*%
D20*
%TO.N,+3V3*%
X34500000Y-56500000D02*
X34500000Y-56160000D01*
%TD*%
M02*
