%TF.GenerationSoftware,KiCad,Pcbnew,9.0.7*%
%TF.CreationDate,2026-02-12T01:51:18+01:00*%
%TF.ProjectId,ESP_catphones,4553505f-6361-4747-9068-6f6e65732e6b,rev?*%
%TF.SameCoordinates,Original*%
%TF.FileFunction,Legend,Top*%
%TF.FilePolarity,Positive*%
%FSLAX46Y46*%
G04 Gerber Fmt 4.6, Leading zero omitted, Abs format (unit mm)*
G04 Created by KiCad (PCBNEW 9.0.7) date 2026-02-12 01:51:18*
%MOMM*%
%LPD*%
G01*
G04 APERTURE LIST*
%ADD10C,0.150000*%
%ADD11C,0.120000*%
G04 APERTURE END LIST*
D10*
X24525889Y-56024536D02*
X24525889Y-56738821D01*
X24525889Y-56738821D02*
X24478270Y-56881678D01*
X24478270Y-56881678D02*
X24383032Y-56976917D01*
X24383032Y-56976917D02*
X24240175Y-57024536D01*
X24240175Y-57024536D02*
X24144937Y-57024536D01*
X25525889Y-57024536D02*
X24954461Y-57024536D01*
X25240175Y-57024536D02*
X25240175Y-56024536D01*
X25240175Y-56024536D02*
X25144937Y-56167393D01*
X25144937Y-56167393D02*
X25049699Y-56262631D01*
X25049699Y-56262631D02*
X24954461Y-56310250D01*
X26144937Y-56024536D02*
X26240175Y-56024536D01*
X26240175Y-56024536D02*
X26335413Y-56072155D01*
X26335413Y-56072155D02*
X26383032Y-56119774D01*
X26383032Y-56119774D02*
X26430651Y-56215012D01*
X26430651Y-56215012D02*
X26478270Y-56405488D01*
X26478270Y-56405488D02*
X26478270Y-56643583D01*
X26478270Y-56643583D02*
X26430651Y-56834059D01*
X26430651Y-56834059D02*
X26383032Y-56929297D01*
X26383032Y-56929297D02*
X26335413Y-56976917D01*
X26335413Y-56976917D02*
X26240175Y-57024536D01*
X26240175Y-57024536D02*
X26144937Y-57024536D01*
X26144937Y-57024536D02*
X26049699Y-56976917D01*
X26049699Y-56976917D02*
X26002080Y-56929297D01*
X26002080Y-56929297D02*
X25954461Y-56834059D01*
X25954461Y-56834059D02*
X25906842Y-56643583D01*
X25906842Y-56643583D02*
X25906842Y-56405488D01*
X25906842Y-56405488D02*
X25954461Y-56215012D01*
X25954461Y-56215012D02*
X26002080Y-56119774D01*
X26002080Y-56119774D02*
X26049699Y-56072155D01*
X26049699Y-56072155D02*
X26144937Y-56024536D01*
X39166666Y-33374819D02*
X39166666Y-34089104D01*
X39166666Y-34089104D02*
X39119047Y-34231961D01*
X39119047Y-34231961D02*
X39023809Y-34327200D01*
X39023809Y-34327200D02*
X38880952Y-34374819D01*
X38880952Y-34374819D02*
X38785714Y-34374819D01*
X39785714Y-33803390D02*
X39690476Y-33755771D01*
X39690476Y-33755771D02*
X39642857Y-33708152D01*
X39642857Y-33708152D02*
X39595238Y-33612914D01*
X39595238Y-33612914D02*
X39595238Y-33565295D01*
X39595238Y-33565295D02*
X39642857Y-33470057D01*
X39642857Y-33470057D02*
X39690476Y-33422438D01*
X39690476Y-33422438D02*
X39785714Y-33374819D01*
X39785714Y-33374819D02*
X39976190Y-33374819D01*
X39976190Y-33374819D02*
X40071428Y-33422438D01*
X40071428Y-33422438D02*
X40119047Y-33470057D01*
X40119047Y-33470057D02*
X40166666Y-33565295D01*
X40166666Y-33565295D02*
X40166666Y-33612914D01*
X40166666Y-33612914D02*
X40119047Y-33708152D01*
X40119047Y-33708152D02*
X40071428Y-33755771D01*
X40071428Y-33755771D02*
X39976190Y-33803390D01*
X39976190Y-33803390D02*
X39785714Y-33803390D01*
X39785714Y-33803390D02*
X39690476Y-33851009D01*
X39690476Y-33851009D02*
X39642857Y-33898628D01*
X39642857Y-33898628D02*
X39595238Y-33993866D01*
X39595238Y-33993866D02*
X39595238Y-34184342D01*
X39595238Y-34184342D02*
X39642857Y-34279580D01*
X39642857Y-34279580D02*
X39690476Y-34327200D01*
X39690476Y-34327200D02*
X39785714Y-34374819D01*
X39785714Y-34374819D02*
X39976190Y-34374819D01*
X39976190Y-34374819D02*
X40071428Y-34327200D01*
X40071428Y-34327200D02*
X40119047Y-34279580D01*
X40119047Y-34279580D02*
X40166666Y-34184342D01*
X40166666Y-34184342D02*
X40166666Y-33993866D01*
X40166666Y-33993866D02*
X40119047Y-33898628D01*
X40119047Y-33898628D02*
X40071428Y-33851009D01*
X40071428Y-33851009D02*
X39976190Y-33803390D01*
X14666666Y-34414819D02*
X14666666Y-35129104D01*
X14666666Y-35129104D02*
X14619047Y-35271961D01*
X14619047Y-35271961D02*
X14523809Y-35367200D01*
X14523809Y-35367200D02*
X14380952Y-35414819D01*
X14380952Y-35414819D02*
X14285714Y-35414819D01*
X15047619Y-34414819D02*
X15714285Y-34414819D01*
X15714285Y-34414819D02*
X15285714Y-35414819D01*
X26138095Y-14424819D02*
X26138095Y-15234342D01*
X26138095Y-15234342D02*
X26185714Y-15329580D01*
X26185714Y-15329580D02*
X26233333Y-15377200D01*
X26233333Y-15377200D02*
X26328571Y-15424819D01*
X26328571Y-15424819D02*
X26519047Y-15424819D01*
X26519047Y-15424819D02*
X26614285Y-15377200D01*
X26614285Y-15377200D02*
X26661904Y-15329580D01*
X26661904Y-15329580D02*
X26709523Y-15234342D01*
X26709523Y-15234342D02*
X26709523Y-14424819D01*
X27709523Y-15424819D02*
X27138095Y-15424819D01*
X27423809Y-15424819D02*
X27423809Y-14424819D01*
X27423809Y-14424819D02*
X27328571Y-14567676D01*
X27328571Y-14567676D02*
X27233333Y-14662914D01*
X27233333Y-14662914D02*
X27138095Y-14710533D01*
X30666666Y-36534819D02*
X30666666Y-37249104D01*
X30666666Y-37249104D02*
X30619047Y-37391961D01*
X30619047Y-37391961D02*
X30523809Y-37487200D01*
X30523809Y-37487200D02*
X30380952Y-37534819D01*
X30380952Y-37534819D02*
X30285714Y-37534819D01*
X31095238Y-36630057D02*
X31142857Y-36582438D01*
X31142857Y-36582438D02*
X31238095Y-36534819D01*
X31238095Y-36534819D02*
X31476190Y-36534819D01*
X31476190Y-36534819D02*
X31571428Y-36582438D01*
X31571428Y-36582438D02*
X31619047Y-36630057D01*
X31619047Y-36630057D02*
X31666666Y-36725295D01*
X31666666Y-36725295D02*
X31666666Y-36820533D01*
X31666666Y-36820533D02*
X31619047Y-36963390D01*
X31619047Y-36963390D02*
X31047619Y-37534819D01*
X31047619Y-37534819D02*
X31666666Y-37534819D01*
X33439580Y-43166666D02*
X33487200Y-43214285D01*
X33487200Y-43214285D02*
X33534819Y-43357142D01*
X33534819Y-43357142D02*
X33534819Y-43452380D01*
X33534819Y-43452380D02*
X33487200Y-43595237D01*
X33487200Y-43595237D02*
X33391961Y-43690475D01*
X33391961Y-43690475D02*
X33296723Y-43738094D01*
X33296723Y-43738094D02*
X33106247Y-43785713D01*
X33106247Y-43785713D02*
X32963390Y-43785713D01*
X32963390Y-43785713D02*
X32772914Y-43738094D01*
X32772914Y-43738094D02*
X32677676Y-43690475D01*
X32677676Y-43690475D02*
X32582438Y-43595237D01*
X32582438Y-43595237D02*
X32534819Y-43452380D01*
X32534819Y-43452380D02*
X32534819Y-43357142D01*
X32534819Y-43357142D02*
X32582438Y-43214285D01*
X32582438Y-43214285D02*
X32630057Y-43166666D01*
X33534819Y-42214285D02*
X33534819Y-42785713D01*
X33534819Y-42499999D02*
X32534819Y-42499999D01*
X32534819Y-42499999D02*
X32677676Y-42595237D01*
X32677676Y-42595237D02*
X32772914Y-42690475D01*
X32772914Y-42690475D02*
X32820533Y-42785713D01*
X26626666Y-36324819D02*
X26626666Y-37039104D01*
X26626666Y-37039104D02*
X26579047Y-37181961D01*
X26579047Y-37181961D02*
X26483809Y-37277200D01*
X26483809Y-37277200D02*
X26340952Y-37324819D01*
X26340952Y-37324819D02*
X26245714Y-37324819D01*
X27531428Y-36658152D02*
X27531428Y-37324819D01*
X27293333Y-36277200D02*
X27055238Y-36991485D01*
X27055238Y-36991485D02*
X27674285Y-36991485D01*
X38666666Y-33494819D02*
X38666666Y-34209104D01*
X38666666Y-34209104D02*
X38619047Y-34351961D01*
X38619047Y-34351961D02*
X38523809Y-34447200D01*
X38523809Y-34447200D02*
X38380952Y-34494819D01*
X38380952Y-34494819D02*
X38285714Y-34494819D01*
X39571428Y-33494819D02*
X39380952Y-33494819D01*
X39380952Y-33494819D02*
X39285714Y-33542438D01*
X39285714Y-33542438D02*
X39238095Y-33590057D01*
X39238095Y-33590057D02*
X39142857Y-33732914D01*
X39142857Y-33732914D02*
X39095238Y-33923390D01*
X39095238Y-33923390D02*
X39095238Y-34304342D01*
X39095238Y-34304342D02*
X39142857Y-34399580D01*
X39142857Y-34399580D02*
X39190476Y-34447200D01*
X39190476Y-34447200D02*
X39285714Y-34494819D01*
X39285714Y-34494819D02*
X39476190Y-34494819D01*
X39476190Y-34494819D02*
X39571428Y-34447200D01*
X39571428Y-34447200D02*
X39619047Y-34399580D01*
X39619047Y-34399580D02*
X39666666Y-34304342D01*
X39666666Y-34304342D02*
X39666666Y-34066247D01*
X39666666Y-34066247D02*
X39619047Y-33971009D01*
X39619047Y-33971009D02*
X39571428Y-33923390D01*
X39571428Y-33923390D02*
X39476190Y-33875771D01*
X39476190Y-33875771D02*
X39285714Y-33875771D01*
X39285714Y-33875771D02*
X39190476Y-33923390D01*
X39190476Y-33923390D02*
X39142857Y-33971009D01*
X39142857Y-33971009D02*
X39095238Y-34066247D01*
X16454819Y-49333333D02*
X17169104Y-49333333D01*
X17169104Y-49333333D02*
X17311961Y-49380952D01*
X17311961Y-49380952D02*
X17407200Y-49476190D01*
X17407200Y-49476190D02*
X17454819Y-49619047D01*
X17454819Y-49619047D02*
X17454819Y-49714285D01*
X16454819Y-48380952D02*
X16454819Y-48857142D01*
X16454819Y-48857142D02*
X16931009Y-48904761D01*
X16931009Y-48904761D02*
X16883390Y-48857142D01*
X16883390Y-48857142D02*
X16835771Y-48761904D01*
X16835771Y-48761904D02*
X16835771Y-48523809D01*
X16835771Y-48523809D02*
X16883390Y-48428571D01*
X16883390Y-48428571D02*
X16931009Y-48380952D01*
X16931009Y-48380952D02*
X17026247Y-48333333D01*
X17026247Y-48333333D02*
X17264342Y-48333333D01*
X17264342Y-48333333D02*
X17359580Y-48380952D01*
X17359580Y-48380952D02*
X17407200Y-48428571D01*
X17407200Y-48428571D02*
X17454819Y-48523809D01*
X17454819Y-48523809D02*
X17454819Y-48761904D01*
X17454819Y-48761904D02*
X17407200Y-48857142D01*
X17407200Y-48857142D02*
X17359580Y-48904761D01*
X16534819Y-41356666D02*
X16058628Y-41689999D01*
X16534819Y-41928094D02*
X15534819Y-41928094D01*
X15534819Y-41928094D02*
X15534819Y-41547142D01*
X15534819Y-41547142D02*
X15582438Y-41451904D01*
X15582438Y-41451904D02*
X15630057Y-41404285D01*
X15630057Y-41404285D02*
X15725295Y-41356666D01*
X15725295Y-41356666D02*
X15868152Y-41356666D01*
X15868152Y-41356666D02*
X15963390Y-41404285D01*
X15963390Y-41404285D02*
X16011009Y-41451904D01*
X16011009Y-41451904D02*
X16058628Y-41547142D01*
X16058628Y-41547142D02*
X16058628Y-41928094D01*
X16534819Y-40404285D02*
X16534819Y-40975713D01*
X16534819Y-40689999D02*
X15534819Y-40689999D01*
X15534819Y-40689999D02*
X15677676Y-40785237D01*
X15677676Y-40785237D02*
X15772914Y-40880475D01*
X15772914Y-40880475D02*
X15820533Y-40975713D01*
X22036666Y-36324819D02*
X22036666Y-37039104D01*
X22036666Y-37039104D02*
X21989047Y-37181961D01*
X21989047Y-37181961D02*
X21893809Y-37277200D01*
X21893809Y-37277200D02*
X21750952Y-37324819D01*
X21750952Y-37324819D02*
X21655714Y-37324819D01*
X22417619Y-36324819D02*
X23036666Y-36324819D01*
X23036666Y-36324819D02*
X22703333Y-36705771D01*
X22703333Y-36705771D02*
X22846190Y-36705771D01*
X22846190Y-36705771D02*
X22941428Y-36753390D01*
X22941428Y-36753390D02*
X22989047Y-36801009D01*
X22989047Y-36801009D02*
X23036666Y-36896247D01*
X23036666Y-36896247D02*
X23036666Y-37134342D01*
X23036666Y-37134342D02*
X22989047Y-37229580D01*
X22989047Y-37229580D02*
X22941428Y-37277200D01*
X22941428Y-37277200D02*
X22846190Y-37324819D01*
X22846190Y-37324819D02*
X22560476Y-37324819D01*
X22560476Y-37324819D02*
X22465238Y-37277200D01*
X22465238Y-37277200D02*
X22417619Y-37229580D01*
X14666666Y-35334819D02*
X14666666Y-36049104D01*
X14666666Y-36049104D02*
X14619047Y-36191961D01*
X14619047Y-36191961D02*
X14523809Y-36287200D01*
X14523809Y-36287200D02*
X14380952Y-36334819D01*
X14380952Y-36334819D02*
X14285714Y-36334819D01*
X15190476Y-36334819D02*
X15380952Y-36334819D01*
X15380952Y-36334819D02*
X15476190Y-36287200D01*
X15476190Y-36287200D02*
X15523809Y-36239580D01*
X15523809Y-36239580D02*
X15619047Y-36096723D01*
X15619047Y-36096723D02*
X15666666Y-35906247D01*
X15666666Y-35906247D02*
X15666666Y-35525295D01*
X15666666Y-35525295D02*
X15619047Y-35430057D01*
X15619047Y-35430057D02*
X15571428Y-35382438D01*
X15571428Y-35382438D02*
X15476190Y-35334819D01*
X15476190Y-35334819D02*
X15285714Y-35334819D01*
X15285714Y-35334819D02*
X15190476Y-35382438D01*
X15190476Y-35382438D02*
X15142857Y-35430057D01*
X15142857Y-35430057D02*
X15095238Y-35525295D01*
X15095238Y-35525295D02*
X15095238Y-35763390D01*
X15095238Y-35763390D02*
X15142857Y-35858628D01*
X15142857Y-35858628D02*
X15190476Y-35906247D01*
X15190476Y-35906247D02*
X15285714Y-35953866D01*
X15285714Y-35953866D02*
X15476190Y-35953866D01*
X15476190Y-35953866D02*
X15571428Y-35906247D01*
X15571428Y-35906247D02*
X15619047Y-35858628D01*
X15619047Y-35858628D02*
X15666666Y-35763390D01*
X35684819Y-53333333D02*
X36399104Y-53333333D01*
X36399104Y-53333333D02*
X36541961Y-53380952D01*
X36541961Y-53380952D02*
X36637200Y-53476190D01*
X36637200Y-53476190D02*
X36684819Y-53619047D01*
X36684819Y-53619047D02*
X36684819Y-53714285D01*
X36684819Y-52333333D02*
X36684819Y-52904761D01*
X36684819Y-52619047D02*
X35684819Y-52619047D01*
X35684819Y-52619047D02*
X35827676Y-52714285D01*
X35827676Y-52714285D02*
X35922914Y-52809523D01*
X35922914Y-52809523D02*
X35970533Y-52904761D01*
X36833333Y-54659580D02*
X36785714Y-54707200D01*
X36785714Y-54707200D02*
X36642857Y-54754819D01*
X36642857Y-54754819D02*
X36547619Y-54754819D01*
X36547619Y-54754819D02*
X36404762Y-54707200D01*
X36404762Y-54707200D02*
X36309524Y-54611961D01*
X36309524Y-54611961D02*
X36261905Y-54516723D01*
X36261905Y-54516723D02*
X36214286Y-54326247D01*
X36214286Y-54326247D02*
X36214286Y-54183390D01*
X36214286Y-54183390D02*
X36261905Y-53992914D01*
X36261905Y-53992914D02*
X36309524Y-53897676D01*
X36309524Y-53897676D02*
X36404762Y-53802438D01*
X36404762Y-53802438D02*
X36547619Y-53754819D01*
X36547619Y-53754819D02*
X36642857Y-53754819D01*
X36642857Y-53754819D02*
X36785714Y-53802438D01*
X36785714Y-53802438D02*
X36833333Y-53850057D01*
X37214286Y-53850057D02*
X37261905Y-53802438D01*
X37261905Y-53802438D02*
X37357143Y-53754819D01*
X37357143Y-53754819D02*
X37595238Y-53754819D01*
X37595238Y-53754819D02*
X37690476Y-53802438D01*
X37690476Y-53802438D02*
X37738095Y-53850057D01*
X37738095Y-53850057D02*
X37785714Y-53945295D01*
X37785714Y-53945295D02*
X37785714Y-54040533D01*
X37785714Y-54040533D02*
X37738095Y-54183390D01*
X37738095Y-54183390D02*
X37166667Y-54754819D01*
X37166667Y-54754819D02*
X37785714Y-54754819D01*
X15690476Y-68874819D02*
X15690476Y-69589104D01*
X15690476Y-69589104D02*
X15642857Y-69731961D01*
X15642857Y-69731961D02*
X15547619Y-69827200D01*
X15547619Y-69827200D02*
X15404762Y-69874819D01*
X15404762Y-69874819D02*
X15309524Y-69874819D01*
X16690476Y-69874819D02*
X16119048Y-69874819D01*
X16404762Y-69874819D02*
X16404762Y-68874819D01*
X16404762Y-68874819D02*
X16309524Y-69017676D01*
X16309524Y-69017676D02*
X16214286Y-69112914D01*
X16214286Y-69112914D02*
X16119048Y-69160533D01*
X17642857Y-69874819D02*
X17071429Y-69874819D01*
X17357143Y-69874819D02*
X17357143Y-68874819D01*
X17357143Y-68874819D02*
X17261905Y-69017676D01*
X17261905Y-69017676D02*
X17166667Y-69112914D01*
X17166667Y-69112914D02*
X17071429Y-69160533D01*
D11*
%TO.C,J10*%
X31335413Y-68669717D02*
X29835413Y-68669717D01*
X31335413Y-57669717D02*
X31335413Y-68669717D01*
X29835413Y-69869717D02*
X28335413Y-69869717D01*
X29835413Y-68669717D02*
X29835413Y-69869717D01*
X28335413Y-71669717D02*
X22335413Y-71669717D01*
X28335413Y-69869717D02*
X28335413Y-71669717D01*
X27335413Y-71669717D02*
X27335413Y-68669717D01*
X27335413Y-68669717D02*
X23335413Y-68669717D01*
X23335413Y-68669717D02*
X23335413Y-71669717D01*
X22335413Y-71669717D02*
X22335413Y-69869717D01*
X22335413Y-69869717D02*
X20835413Y-69869717D01*
X20835413Y-69869717D02*
X20835413Y-68669717D01*
X20835413Y-68669717D02*
X19335413Y-68669717D01*
X19335413Y-68669717D02*
X19335413Y-57669717D01*
X19335413Y-57669717D02*
X31335413Y-57669717D01*
%TO.C,J8*%
X38120000Y-30270000D02*
X38120000Y-17460000D01*
X40880000Y-17460000D02*
X38120000Y-17460000D01*
X40880000Y-30270000D02*
X38120000Y-30270000D01*
X40880000Y-30270000D02*
X40880000Y-17460000D01*
X40880000Y-31540000D02*
X40880000Y-32920000D01*
X40880000Y-32920000D02*
X39500000Y-32920000D01*
%TO.C,J7*%
X16380000Y-38610000D02*
X16380000Y-53960000D01*
X13620000Y-53960000D02*
X16380000Y-53960000D01*
X13620000Y-38610000D02*
X16380000Y-38610000D01*
X13620000Y-38610000D02*
X13620000Y-53960000D01*
X13620000Y-37340000D02*
X13620000Y-35960000D01*
X13620000Y-35960000D02*
X15000000Y-35960000D01*
%TO.C,U1*%
X17790000Y-16320000D02*
X17290000Y-16320000D01*
X17790000Y-15820000D01*
X17790000Y-16320000D01*
G36*
X17790000Y-16320000D02*
G01*
X17290000Y-16320000D01*
X17790000Y-15820000D01*
X17790000Y-16320000D01*
G37*
X36010000Y-34280000D02*
X36010000Y-35180000D01*
X36010000Y-15760000D02*
X36010000Y-16350000D01*
X33325000Y-35180000D02*
X36010000Y-35180000D01*
X18100000Y-15760000D02*
X36010000Y-15760000D01*
X17790000Y-35180000D02*
X20475000Y-35180000D01*
X17790000Y-34280000D02*
X17790000Y-35180000D01*
%TO.C,J2*%
X29620000Y-38080000D02*
X31000000Y-38080000D01*
X29620000Y-39460000D02*
X29620000Y-38080000D01*
X29620000Y-40730000D02*
X29620000Y-43380000D01*
X29620000Y-40730000D02*
X32380000Y-40730000D01*
X29620000Y-43380000D02*
X32380000Y-43380000D01*
X32380000Y-40730000D02*
X32380000Y-43380000D01*
%TO.C,C1*%
X35500000Y-39040000D02*
X35500000Y-40980000D01*
X35500000Y-46960000D02*
X35500000Y-45020000D01*
X34080000Y-45020000D02*
X36920000Y-45020000D01*
X36920000Y-40980000D01*
X34080000Y-40980000D01*
X34080000Y-45020000D01*
%TO.C,J4*%
X25580000Y-37870000D02*
X26960000Y-37870000D01*
X25580000Y-39250000D02*
X25580000Y-37870000D01*
X25580000Y-40520000D02*
X25580000Y-43170000D01*
X25580000Y-40520000D02*
X28340000Y-40520000D01*
X25580000Y-43170000D02*
X28340000Y-43170000D01*
X28340000Y-40520000D02*
X28340000Y-43170000D01*
%TO.C,J6*%
X37620000Y-35040000D02*
X39000000Y-35040000D01*
X37620000Y-36420000D02*
X37620000Y-35040000D01*
X37620000Y-37690000D02*
X37620000Y-53040000D01*
X37620000Y-37690000D02*
X40380000Y-37690000D01*
X37620000Y-53040000D02*
X40380000Y-53040000D01*
X40380000Y-37690000D02*
X40380000Y-53040000D01*
%TO.C,J5*%
X18000000Y-50380000D02*
X18000000Y-49000000D01*
X19380000Y-50380000D02*
X18000000Y-50380000D01*
X20650000Y-47620000D02*
X33460000Y-47620000D01*
X20650000Y-50380000D02*
X20650000Y-47620000D01*
X20650000Y-50380000D02*
X33460000Y-50380000D01*
X33460000Y-50380000D02*
X33460000Y-47620000D01*
%TO.C,R1*%
X18000000Y-38320000D02*
X18000000Y-39270000D01*
X18000000Y-44060000D02*
X18000000Y-43110000D01*
X17080000Y-43110000D02*
X18920000Y-43110000D01*
X18920000Y-39270000D01*
X17080000Y-39270000D01*
X17080000Y-43110000D01*
%TO.C,J3*%
X20990000Y-37870000D02*
X22370000Y-37870000D01*
X20990000Y-39250000D02*
X20990000Y-37870000D01*
X20990000Y-40520000D02*
X20990000Y-43170000D01*
X20990000Y-40520000D02*
X23750000Y-40520000D01*
X20990000Y-43170000D02*
X23750000Y-43170000D01*
X23750000Y-40520000D02*
X23750000Y-43170000D01*
%TO.C,J9*%
X16380000Y-34880000D02*
X15000000Y-34880000D01*
X16380000Y-33500000D02*
X16380000Y-34880000D01*
X16380000Y-32230000D02*
X16380000Y-16880000D01*
X16380000Y-32230000D02*
X13620000Y-32230000D01*
X16380000Y-16880000D02*
X13620000Y-16880000D01*
X13620000Y-32230000D02*
X13620000Y-16880000D01*
%TO.C,J1*%
X19770000Y-51620000D02*
X19770000Y-54380000D01*
X32580000Y-51620000D02*
X19770000Y-51620000D01*
X32580000Y-51620000D02*
X32580000Y-54380000D01*
X32580000Y-54380000D02*
X19770000Y-54380000D01*
X33850000Y-51620000D02*
X35230000Y-51620000D01*
X35230000Y-51620000D02*
X35230000Y-53000000D01*
%TO.C,C2*%
X34730000Y-55430000D02*
X39270000Y-55430000D01*
X34730000Y-55486000D02*
X34730000Y-55430000D01*
X39270000Y-57514000D02*
X39270000Y-57570000D01*
X39270000Y-57570000D02*
X34730000Y-57570000D01*
%TO.C,J11*%
X17880000Y-68420000D02*
X16500000Y-68420000D01*
X17880000Y-67040000D02*
X17880000Y-68420000D01*
X17880000Y-65770000D02*
X17880000Y-55500000D01*
X17880000Y-65770000D02*
X15120000Y-65770000D01*
X17880000Y-55500000D02*
X15120000Y-55500000D01*
X15120000Y-65770000D02*
X15120000Y-55500000D01*
%TD*%
M02*
