%TF.GenerationSoftware,KiCad,Pcbnew,9.0.7*%
%TF.CreationDate,2026-02-15T17:11:38+01:00*%
%TF.ProjectId,CatPhonesV2,43617450-686f-46e6-9573-56322e6b6963,rev?*%
%TF.SameCoordinates,Original*%
%TF.FileFunction,Legend,Top*%
%TF.FilePolarity,Positive*%
%FSLAX46Y46*%
G04 Gerber Fmt 4.6, Leading zero omitted, Abs format (unit mm)*
G04 Created by KiCad (PCBNEW 9.0.7) date 2026-02-15 17:11:38*
%MOMM*%
%LPD*%
G01*
G04 APERTURE LIST*
%ADD10C,0.150000*%
%ADD11C,0.120000*%
G04 APERTURE END LIST*
D10*
X30166666Y-71954819D02*
X30166666Y-72669104D01*
X30166666Y-72669104D02*
X30119047Y-72811961D01*
X30119047Y-72811961D02*
X30023809Y-72907200D01*
X30023809Y-72907200D02*
X29880952Y-72954819D01*
X29880952Y-72954819D02*
X29785714Y-72954819D01*
X31071428Y-71954819D02*
X30880952Y-71954819D01*
X30880952Y-71954819D02*
X30785714Y-72002438D01*
X30785714Y-72002438D02*
X30738095Y-72050057D01*
X30738095Y-72050057D02*
X30642857Y-72192914D01*
X30642857Y-72192914D02*
X30595238Y-72383390D01*
X30595238Y-72383390D02*
X30595238Y-72764342D01*
X30595238Y-72764342D02*
X30642857Y-72859580D01*
X30642857Y-72859580D02*
X30690476Y-72907200D01*
X30690476Y-72907200D02*
X30785714Y-72954819D01*
X30785714Y-72954819D02*
X30976190Y-72954819D01*
X30976190Y-72954819D02*
X31071428Y-72907200D01*
X31071428Y-72907200D02*
X31119047Y-72859580D01*
X31119047Y-72859580D02*
X31166666Y-72764342D01*
X31166666Y-72764342D02*
X31166666Y-72526247D01*
X31166666Y-72526247D02*
X31119047Y-72431009D01*
X31119047Y-72431009D02*
X31071428Y-72383390D01*
X31071428Y-72383390D02*
X30976190Y-72335771D01*
X30976190Y-72335771D02*
X30785714Y-72335771D01*
X30785714Y-72335771D02*
X30690476Y-72383390D01*
X30690476Y-72383390D02*
X30642857Y-72431009D01*
X30642857Y-72431009D02*
X30595238Y-72526247D01*
X42190476Y-74954819D02*
X42190476Y-75669104D01*
X42190476Y-75669104D02*
X42142857Y-75811961D01*
X42142857Y-75811961D02*
X42047619Y-75907200D01*
X42047619Y-75907200D02*
X41904762Y-75954819D01*
X41904762Y-75954819D02*
X41809524Y-75954819D01*
X43190476Y-75954819D02*
X42619048Y-75954819D01*
X42904762Y-75954819D02*
X42904762Y-74954819D01*
X42904762Y-74954819D02*
X42809524Y-75097676D01*
X42809524Y-75097676D02*
X42714286Y-75192914D01*
X42714286Y-75192914D02*
X42619048Y-75240533D01*
X43523810Y-74954819D02*
X44142857Y-74954819D01*
X44142857Y-74954819D02*
X43809524Y-75335771D01*
X43809524Y-75335771D02*
X43952381Y-75335771D01*
X43952381Y-75335771D02*
X44047619Y-75383390D01*
X44047619Y-75383390D02*
X44095238Y-75431009D01*
X44095238Y-75431009D02*
X44142857Y-75526247D01*
X44142857Y-75526247D02*
X44142857Y-75764342D01*
X44142857Y-75764342D02*
X44095238Y-75859580D01*
X44095238Y-75859580D02*
X44047619Y-75907200D01*
X44047619Y-75907200D02*
X43952381Y-75954819D01*
X43952381Y-75954819D02*
X43666667Y-75954819D01*
X43666667Y-75954819D02*
X43571429Y-75907200D01*
X43571429Y-75907200D02*
X43523810Y-75859580D01*
X47833333Y-61859580D02*
X47785714Y-61907200D01*
X47785714Y-61907200D02*
X47642857Y-61954819D01*
X47642857Y-61954819D02*
X47547619Y-61954819D01*
X47547619Y-61954819D02*
X47404762Y-61907200D01*
X47404762Y-61907200D02*
X47309524Y-61811961D01*
X47309524Y-61811961D02*
X47261905Y-61716723D01*
X47261905Y-61716723D02*
X47214286Y-61526247D01*
X47214286Y-61526247D02*
X47214286Y-61383390D01*
X47214286Y-61383390D02*
X47261905Y-61192914D01*
X47261905Y-61192914D02*
X47309524Y-61097676D01*
X47309524Y-61097676D02*
X47404762Y-61002438D01*
X47404762Y-61002438D02*
X47547619Y-60954819D01*
X47547619Y-60954819D02*
X47642857Y-60954819D01*
X47642857Y-60954819D02*
X47785714Y-61002438D01*
X47785714Y-61002438D02*
X47833333Y-61050057D01*
X48785714Y-61954819D02*
X48214286Y-61954819D01*
X48500000Y-61954819D02*
X48500000Y-60954819D01*
X48500000Y-60954819D02*
X48404762Y-61097676D01*
X48404762Y-61097676D02*
X48309524Y-61192914D01*
X48309524Y-61192914D02*
X48214286Y-61240533D01*
X47833333Y-58859580D02*
X47785714Y-58907200D01*
X47785714Y-58907200D02*
X47642857Y-58954819D01*
X47642857Y-58954819D02*
X47547619Y-58954819D01*
X47547619Y-58954819D02*
X47404762Y-58907200D01*
X47404762Y-58907200D02*
X47309524Y-58811961D01*
X47309524Y-58811961D02*
X47261905Y-58716723D01*
X47261905Y-58716723D02*
X47214286Y-58526247D01*
X47214286Y-58526247D02*
X47214286Y-58383390D01*
X47214286Y-58383390D02*
X47261905Y-58192914D01*
X47261905Y-58192914D02*
X47309524Y-58097676D01*
X47309524Y-58097676D02*
X47404762Y-58002438D01*
X47404762Y-58002438D02*
X47547619Y-57954819D01*
X47547619Y-57954819D02*
X47642857Y-57954819D01*
X47642857Y-57954819D02*
X47785714Y-58002438D01*
X47785714Y-58002438D02*
X47833333Y-58050057D01*
X48214286Y-58050057D02*
X48261905Y-58002438D01*
X48261905Y-58002438D02*
X48357143Y-57954819D01*
X48357143Y-57954819D02*
X48595238Y-57954819D01*
X48595238Y-57954819D02*
X48690476Y-58002438D01*
X48690476Y-58002438D02*
X48738095Y-58050057D01*
X48738095Y-58050057D02*
X48785714Y-58145295D01*
X48785714Y-58145295D02*
X48785714Y-58240533D01*
X48785714Y-58240533D02*
X48738095Y-58383390D01*
X48738095Y-58383390D02*
X48166667Y-58954819D01*
X48166667Y-58954819D02*
X48785714Y-58954819D01*
X50166666Y-36414819D02*
X50166666Y-37129104D01*
X50166666Y-37129104D02*
X50119047Y-37271961D01*
X50119047Y-37271961D02*
X50023809Y-37367200D01*
X50023809Y-37367200D02*
X49880952Y-37414819D01*
X49880952Y-37414819D02*
X49785714Y-37414819D01*
X50785714Y-36843390D02*
X50690476Y-36795771D01*
X50690476Y-36795771D02*
X50642857Y-36748152D01*
X50642857Y-36748152D02*
X50595238Y-36652914D01*
X50595238Y-36652914D02*
X50595238Y-36605295D01*
X50595238Y-36605295D02*
X50642857Y-36510057D01*
X50642857Y-36510057D02*
X50690476Y-36462438D01*
X50690476Y-36462438D02*
X50785714Y-36414819D01*
X50785714Y-36414819D02*
X50976190Y-36414819D01*
X50976190Y-36414819D02*
X51071428Y-36462438D01*
X51071428Y-36462438D02*
X51119047Y-36510057D01*
X51119047Y-36510057D02*
X51166666Y-36605295D01*
X51166666Y-36605295D02*
X51166666Y-36652914D01*
X51166666Y-36652914D02*
X51119047Y-36748152D01*
X51119047Y-36748152D02*
X51071428Y-36795771D01*
X51071428Y-36795771D02*
X50976190Y-36843390D01*
X50976190Y-36843390D02*
X50785714Y-36843390D01*
X50785714Y-36843390D02*
X50690476Y-36891009D01*
X50690476Y-36891009D02*
X50642857Y-36938628D01*
X50642857Y-36938628D02*
X50595238Y-37033866D01*
X50595238Y-37033866D02*
X50595238Y-37224342D01*
X50595238Y-37224342D02*
X50642857Y-37319580D01*
X50642857Y-37319580D02*
X50690476Y-37367200D01*
X50690476Y-37367200D02*
X50785714Y-37414819D01*
X50785714Y-37414819D02*
X50976190Y-37414819D01*
X50976190Y-37414819D02*
X51071428Y-37367200D01*
X51071428Y-37367200D02*
X51119047Y-37319580D01*
X51119047Y-37319580D02*
X51166666Y-37224342D01*
X51166666Y-37224342D02*
X51166666Y-37033866D01*
X51166666Y-37033866D02*
X51119047Y-36938628D01*
X51119047Y-36938628D02*
X51071428Y-36891009D01*
X51071428Y-36891009D02*
X50976190Y-36843390D01*
X46954819Y-43333333D02*
X47669104Y-43333333D01*
X47669104Y-43333333D02*
X47811961Y-43380952D01*
X47811961Y-43380952D02*
X47907200Y-43476190D01*
X47907200Y-43476190D02*
X47954819Y-43619047D01*
X47954819Y-43619047D02*
X47954819Y-43714285D01*
X46954819Y-42952380D02*
X46954819Y-42285714D01*
X46954819Y-42285714D02*
X47954819Y-42714285D01*
X43763095Y-46954819D02*
X43763095Y-47764342D01*
X43763095Y-47764342D02*
X43810714Y-47859580D01*
X43810714Y-47859580D02*
X43858333Y-47907200D01*
X43858333Y-47907200D02*
X43953571Y-47954819D01*
X43953571Y-47954819D02*
X44144047Y-47954819D01*
X44144047Y-47954819D02*
X44239285Y-47907200D01*
X44239285Y-47907200D02*
X44286904Y-47859580D01*
X44286904Y-47859580D02*
X44334523Y-47764342D01*
X44334523Y-47764342D02*
X44334523Y-46954819D01*
X44763095Y-47050057D02*
X44810714Y-47002438D01*
X44810714Y-47002438D02*
X44905952Y-46954819D01*
X44905952Y-46954819D02*
X45144047Y-46954819D01*
X45144047Y-46954819D02*
X45239285Y-47002438D01*
X45239285Y-47002438D02*
X45286904Y-47050057D01*
X45286904Y-47050057D02*
X45334523Y-47145295D01*
X45334523Y-47145295D02*
X45334523Y-47240533D01*
X45334523Y-47240533D02*
X45286904Y-47383390D01*
X45286904Y-47383390D02*
X44715476Y-47954819D01*
X44715476Y-47954819D02*
X45334523Y-47954819D01*
X45738095Y-64454819D02*
X45738095Y-65264342D01*
X45738095Y-65264342D02*
X45785714Y-65359580D01*
X45785714Y-65359580D02*
X45833333Y-65407200D01*
X45833333Y-65407200D02*
X45928571Y-65454819D01*
X45928571Y-65454819D02*
X46119047Y-65454819D01*
X46119047Y-65454819D02*
X46214285Y-65407200D01*
X46214285Y-65407200D02*
X46261904Y-65359580D01*
X46261904Y-65359580D02*
X46309523Y-65264342D01*
X46309523Y-65264342D02*
X46309523Y-64454819D01*
X46690476Y-64454819D02*
X47309523Y-64454819D01*
X47309523Y-64454819D02*
X46976190Y-64835771D01*
X46976190Y-64835771D02*
X47119047Y-64835771D01*
X47119047Y-64835771D02*
X47214285Y-64883390D01*
X47214285Y-64883390D02*
X47261904Y-64931009D01*
X47261904Y-64931009D02*
X47309523Y-65026247D01*
X47309523Y-65026247D02*
X47309523Y-65264342D01*
X47309523Y-65264342D02*
X47261904Y-65359580D01*
X47261904Y-65359580D02*
X47214285Y-65407200D01*
X47214285Y-65407200D02*
X47119047Y-65454819D01*
X47119047Y-65454819D02*
X46833333Y-65454819D01*
X46833333Y-65454819D02*
X46738095Y-65407200D01*
X46738095Y-65407200D02*
X46690476Y-65359580D01*
X37333095Y-22954819D02*
X37333095Y-23764342D01*
X37333095Y-23764342D02*
X37380714Y-23859580D01*
X37380714Y-23859580D02*
X37428333Y-23907200D01*
X37428333Y-23907200D02*
X37523571Y-23954819D01*
X37523571Y-23954819D02*
X37714047Y-23954819D01*
X37714047Y-23954819D02*
X37809285Y-23907200D01*
X37809285Y-23907200D02*
X37856904Y-23859580D01*
X37856904Y-23859580D02*
X37904523Y-23764342D01*
X37904523Y-23764342D02*
X37904523Y-22954819D01*
X38904523Y-23954819D02*
X38333095Y-23954819D01*
X38618809Y-23954819D02*
X38618809Y-22954819D01*
X38618809Y-22954819D02*
X38523571Y-23097676D01*
X38523571Y-23097676D02*
X38428333Y-23192914D01*
X38428333Y-23192914D02*
X38333095Y-23240533D01*
X41954819Y-63166666D02*
X41478628Y-63499999D01*
X41954819Y-63738094D02*
X40954819Y-63738094D01*
X40954819Y-63738094D02*
X40954819Y-63357142D01*
X40954819Y-63357142D02*
X41002438Y-63261904D01*
X41002438Y-63261904D02*
X41050057Y-63214285D01*
X41050057Y-63214285D02*
X41145295Y-63166666D01*
X41145295Y-63166666D02*
X41288152Y-63166666D01*
X41288152Y-63166666D02*
X41383390Y-63214285D01*
X41383390Y-63214285D02*
X41431009Y-63261904D01*
X41431009Y-63261904D02*
X41478628Y-63357142D01*
X41478628Y-63357142D02*
X41478628Y-63738094D01*
X40954819Y-62261904D02*
X40954819Y-62738094D01*
X40954819Y-62738094D02*
X41431009Y-62785713D01*
X41431009Y-62785713D02*
X41383390Y-62738094D01*
X41383390Y-62738094D02*
X41335771Y-62642856D01*
X41335771Y-62642856D02*
X41335771Y-62404761D01*
X41335771Y-62404761D02*
X41383390Y-62309523D01*
X41383390Y-62309523D02*
X41431009Y-62261904D01*
X41431009Y-62261904D02*
X41526247Y-62214285D01*
X41526247Y-62214285D02*
X41764342Y-62214285D01*
X41764342Y-62214285D02*
X41859580Y-62261904D01*
X41859580Y-62261904D02*
X41907200Y-62309523D01*
X41907200Y-62309523D02*
X41954819Y-62404761D01*
X41954819Y-62404761D02*
X41954819Y-62642856D01*
X41954819Y-62642856D02*
X41907200Y-62738094D01*
X41907200Y-62738094D02*
X41859580Y-62785713D01*
X38454819Y-56666666D02*
X37978628Y-56999999D01*
X38454819Y-57238094D02*
X37454819Y-57238094D01*
X37454819Y-57238094D02*
X37454819Y-56857142D01*
X37454819Y-56857142D02*
X37502438Y-56761904D01*
X37502438Y-56761904D02*
X37550057Y-56714285D01*
X37550057Y-56714285D02*
X37645295Y-56666666D01*
X37645295Y-56666666D02*
X37788152Y-56666666D01*
X37788152Y-56666666D02*
X37883390Y-56714285D01*
X37883390Y-56714285D02*
X37931009Y-56761904D01*
X37931009Y-56761904D02*
X37978628Y-56857142D01*
X37978628Y-56857142D02*
X37978628Y-57238094D01*
X37788152Y-55809523D02*
X38454819Y-55809523D01*
X37407200Y-56047618D02*
X38121485Y-56285713D01*
X38121485Y-56285713D02*
X38121485Y-55666666D01*
X34454819Y-56666666D02*
X33978628Y-56999999D01*
X34454819Y-57238094D02*
X33454819Y-57238094D01*
X33454819Y-57238094D02*
X33454819Y-56857142D01*
X33454819Y-56857142D02*
X33502438Y-56761904D01*
X33502438Y-56761904D02*
X33550057Y-56714285D01*
X33550057Y-56714285D02*
X33645295Y-56666666D01*
X33645295Y-56666666D02*
X33788152Y-56666666D01*
X33788152Y-56666666D02*
X33883390Y-56714285D01*
X33883390Y-56714285D02*
X33931009Y-56761904D01*
X33931009Y-56761904D02*
X33978628Y-56857142D01*
X33978628Y-56857142D02*
X33978628Y-57238094D01*
X33454819Y-56333332D02*
X33454819Y-55714285D01*
X33454819Y-55714285D02*
X33835771Y-56047618D01*
X33835771Y-56047618D02*
X33835771Y-55904761D01*
X33835771Y-55904761D02*
X33883390Y-55809523D01*
X33883390Y-55809523D02*
X33931009Y-55761904D01*
X33931009Y-55761904D02*
X34026247Y-55714285D01*
X34026247Y-55714285D02*
X34264342Y-55714285D01*
X34264342Y-55714285D02*
X34359580Y-55761904D01*
X34359580Y-55761904D02*
X34407200Y-55809523D01*
X34407200Y-55809523D02*
X34454819Y-55904761D01*
X34454819Y-55904761D02*
X34454819Y-56190475D01*
X34454819Y-56190475D02*
X34407200Y-56285713D01*
X34407200Y-56285713D02*
X34359580Y-56333332D01*
X30454819Y-56666666D02*
X29978628Y-56999999D01*
X30454819Y-57238094D02*
X29454819Y-57238094D01*
X29454819Y-57238094D02*
X29454819Y-56857142D01*
X29454819Y-56857142D02*
X29502438Y-56761904D01*
X29502438Y-56761904D02*
X29550057Y-56714285D01*
X29550057Y-56714285D02*
X29645295Y-56666666D01*
X29645295Y-56666666D02*
X29788152Y-56666666D01*
X29788152Y-56666666D02*
X29883390Y-56714285D01*
X29883390Y-56714285D02*
X29931009Y-56761904D01*
X29931009Y-56761904D02*
X29978628Y-56857142D01*
X29978628Y-56857142D02*
X29978628Y-57238094D01*
X29550057Y-56285713D02*
X29502438Y-56238094D01*
X29502438Y-56238094D02*
X29454819Y-56142856D01*
X29454819Y-56142856D02*
X29454819Y-55904761D01*
X29454819Y-55904761D02*
X29502438Y-55809523D01*
X29502438Y-55809523D02*
X29550057Y-55761904D01*
X29550057Y-55761904D02*
X29645295Y-55714285D01*
X29645295Y-55714285D02*
X29740533Y-55714285D01*
X29740533Y-55714285D02*
X29883390Y-55761904D01*
X29883390Y-55761904D02*
X30454819Y-56333332D01*
X30454819Y-56333332D02*
X30454819Y-55714285D01*
X26454819Y-56666666D02*
X25978628Y-56999999D01*
X26454819Y-57238094D02*
X25454819Y-57238094D01*
X25454819Y-57238094D02*
X25454819Y-56857142D01*
X25454819Y-56857142D02*
X25502438Y-56761904D01*
X25502438Y-56761904D02*
X25550057Y-56714285D01*
X25550057Y-56714285D02*
X25645295Y-56666666D01*
X25645295Y-56666666D02*
X25788152Y-56666666D01*
X25788152Y-56666666D02*
X25883390Y-56714285D01*
X25883390Y-56714285D02*
X25931009Y-56761904D01*
X25931009Y-56761904D02*
X25978628Y-56857142D01*
X25978628Y-56857142D02*
X25978628Y-57238094D01*
X26454819Y-55714285D02*
X26454819Y-56285713D01*
X26454819Y-55999999D02*
X25454819Y-55999999D01*
X25454819Y-55999999D02*
X25597676Y-56095237D01*
X25597676Y-56095237D02*
X25692914Y-56190475D01*
X25692914Y-56190475D02*
X25740533Y-56285713D01*
X25190476Y-43954819D02*
X25190476Y-44669104D01*
X25190476Y-44669104D02*
X25142857Y-44811961D01*
X25142857Y-44811961D02*
X25047619Y-44907200D01*
X25047619Y-44907200D02*
X24904762Y-44954819D01*
X24904762Y-44954819D02*
X24809524Y-44954819D01*
X26190476Y-44954819D02*
X25619048Y-44954819D01*
X25904762Y-44954819D02*
X25904762Y-43954819D01*
X25904762Y-43954819D02*
X25809524Y-44097676D01*
X25809524Y-44097676D02*
X25714286Y-44192914D01*
X25714286Y-44192914D02*
X25619048Y-44240533D01*
X26571429Y-44050057D02*
X26619048Y-44002438D01*
X26619048Y-44002438D02*
X26714286Y-43954819D01*
X26714286Y-43954819D02*
X26952381Y-43954819D01*
X26952381Y-43954819D02*
X27047619Y-44002438D01*
X27047619Y-44002438D02*
X27095238Y-44050057D01*
X27095238Y-44050057D02*
X27142857Y-44145295D01*
X27142857Y-44145295D02*
X27142857Y-44240533D01*
X27142857Y-44240533D02*
X27095238Y-44383390D01*
X27095238Y-44383390D02*
X26523810Y-44954819D01*
X26523810Y-44954819D02*
X27142857Y-44954819D01*
X37454819Y-66309523D02*
X38169104Y-66309523D01*
X38169104Y-66309523D02*
X38311961Y-66357142D01*
X38311961Y-66357142D02*
X38407200Y-66452380D01*
X38407200Y-66452380D02*
X38454819Y-66595237D01*
X38454819Y-66595237D02*
X38454819Y-66690475D01*
X38454819Y-65309523D02*
X38454819Y-65880951D01*
X38454819Y-65595237D02*
X37454819Y-65595237D01*
X37454819Y-65595237D02*
X37597676Y-65690475D01*
X37597676Y-65690475D02*
X37692914Y-65785713D01*
X37692914Y-65785713D02*
X37740533Y-65880951D01*
X38454819Y-64357142D02*
X38454819Y-64928570D01*
X38454819Y-64642856D02*
X37454819Y-64642856D01*
X37454819Y-64642856D02*
X37597676Y-64738094D01*
X37597676Y-64738094D02*
X37692914Y-64833332D01*
X37692914Y-64833332D02*
X37740533Y-64928570D01*
X47954819Y-40809523D02*
X48669104Y-40809523D01*
X48669104Y-40809523D02*
X48811961Y-40857142D01*
X48811961Y-40857142D02*
X48907200Y-40952380D01*
X48907200Y-40952380D02*
X48954819Y-41095237D01*
X48954819Y-41095237D02*
X48954819Y-41190475D01*
X48954819Y-39809523D02*
X48954819Y-40380951D01*
X48954819Y-40095237D02*
X47954819Y-40095237D01*
X47954819Y-40095237D02*
X48097676Y-40190475D01*
X48097676Y-40190475D02*
X48192914Y-40285713D01*
X48192914Y-40285713D02*
X48240533Y-40380951D01*
X47954819Y-39190475D02*
X47954819Y-39095237D01*
X47954819Y-39095237D02*
X48002438Y-38999999D01*
X48002438Y-38999999D02*
X48050057Y-38952380D01*
X48050057Y-38952380D02*
X48145295Y-38904761D01*
X48145295Y-38904761D02*
X48335771Y-38857142D01*
X48335771Y-38857142D02*
X48573866Y-38857142D01*
X48573866Y-38857142D02*
X48764342Y-38904761D01*
X48764342Y-38904761D02*
X48859580Y-38952380D01*
X48859580Y-38952380D02*
X48907200Y-38999999D01*
X48907200Y-38999999D02*
X48954819Y-39095237D01*
X48954819Y-39095237D02*
X48954819Y-39190475D01*
X48954819Y-39190475D02*
X48907200Y-39285713D01*
X48907200Y-39285713D02*
X48859580Y-39333332D01*
X48859580Y-39333332D02*
X48764342Y-39380951D01*
X48764342Y-39380951D02*
X48573866Y-39428570D01*
X48573866Y-39428570D02*
X48335771Y-39428570D01*
X48335771Y-39428570D02*
X48145295Y-39380951D01*
X48145295Y-39380951D02*
X48050057Y-39333332D01*
X48050057Y-39333332D02*
X48002438Y-39285713D01*
X48002438Y-39285713D02*
X47954819Y-39190475D01*
X31666666Y-50454819D02*
X31666666Y-51169104D01*
X31666666Y-51169104D02*
X31619047Y-51311961D01*
X31619047Y-51311961D02*
X31523809Y-51407200D01*
X31523809Y-51407200D02*
X31380952Y-51454819D01*
X31380952Y-51454819D02*
X31285714Y-51454819D01*
X32619047Y-50454819D02*
X32142857Y-50454819D01*
X32142857Y-50454819D02*
X32095238Y-50931009D01*
X32095238Y-50931009D02*
X32142857Y-50883390D01*
X32142857Y-50883390D02*
X32238095Y-50835771D01*
X32238095Y-50835771D02*
X32476190Y-50835771D01*
X32476190Y-50835771D02*
X32571428Y-50883390D01*
X32571428Y-50883390D02*
X32619047Y-50931009D01*
X32619047Y-50931009D02*
X32666666Y-51026247D01*
X32666666Y-51026247D02*
X32666666Y-51264342D01*
X32666666Y-51264342D02*
X32619047Y-51359580D01*
X32619047Y-51359580D02*
X32571428Y-51407200D01*
X32571428Y-51407200D02*
X32476190Y-51454819D01*
X32476190Y-51454819D02*
X32238095Y-51454819D01*
X32238095Y-51454819D02*
X32142857Y-51407200D01*
X32142857Y-51407200D02*
X32095238Y-51359580D01*
X47954819Y-69833333D02*
X48669104Y-69833333D01*
X48669104Y-69833333D02*
X48811961Y-69880952D01*
X48811961Y-69880952D02*
X48907200Y-69976190D01*
X48907200Y-69976190D02*
X48954819Y-70119047D01*
X48954819Y-70119047D02*
X48954819Y-70214285D01*
X48954819Y-68833333D02*
X48954819Y-69404761D01*
X48954819Y-69119047D02*
X47954819Y-69119047D01*
X47954819Y-69119047D02*
X48097676Y-69214285D01*
X48097676Y-69214285D02*
X48192914Y-69309523D01*
X48192914Y-69309523D02*
X48240533Y-69404761D01*
X50470833Y-51939580D02*
X50423214Y-51987200D01*
X50423214Y-51987200D02*
X50280357Y-52034819D01*
X50280357Y-52034819D02*
X50185119Y-52034819D01*
X50185119Y-52034819D02*
X50042262Y-51987200D01*
X50042262Y-51987200D02*
X49947024Y-51891961D01*
X49947024Y-51891961D02*
X49899405Y-51796723D01*
X49899405Y-51796723D02*
X49851786Y-51606247D01*
X49851786Y-51606247D02*
X49851786Y-51463390D01*
X49851786Y-51463390D02*
X49899405Y-51272914D01*
X49899405Y-51272914D02*
X49947024Y-51177676D01*
X49947024Y-51177676D02*
X50042262Y-51082438D01*
X50042262Y-51082438D02*
X50185119Y-51034819D01*
X50185119Y-51034819D02*
X50280357Y-51034819D01*
X50280357Y-51034819D02*
X50423214Y-51082438D01*
X50423214Y-51082438D02*
X50470833Y-51130057D01*
X51375595Y-51034819D02*
X50899405Y-51034819D01*
X50899405Y-51034819D02*
X50851786Y-51511009D01*
X50851786Y-51511009D02*
X50899405Y-51463390D01*
X50899405Y-51463390D02*
X50994643Y-51415771D01*
X50994643Y-51415771D02*
X51232738Y-51415771D01*
X51232738Y-51415771D02*
X51327976Y-51463390D01*
X51327976Y-51463390D02*
X51375595Y-51511009D01*
X51375595Y-51511009D02*
X51423214Y-51606247D01*
X51423214Y-51606247D02*
X51423214Y-51844342D01*
X51423214Y-51844342D02*
X51375595Y-51939580D01*
X51375595Y-51939580D02*
X51327976Y-51987200D01*
X51327976Y-51987200D02*
X51232738Y-52034819D01*
X51232738Y-52034819D02*
X50994643Y-52034819D01*
X50994643Y-52034819D02*
X50899405Y-51987200D01*
X50899405Y-51987200D02*
X50851786Y-51939580D01*
X50470833Y-49429580D02*
X50423214Y-49477200D01*
X50423214Y-49477200D02*
X50280357Y-49524819D01*
X50280357Y-49524819D02*
X50185119Y-49524819D01*
X50185119Y-49524819D02*
X50042262Y-49477200D01*
X50042262Y-49477200D02*
X49947024Y-49381961D01*
X49947024Y-49381961D02*
X49899405Y-49286723D01*
X49899405Y-49286723D02*
X49851786Y-49096247D01*
X49851786Y-49096247D02*
X49851786Y-48953390D01*
X49851786Y-48953390D02*
X49899405Y-48762914D01*
X49899405Y-48762914D02*
X49947024Y-48667676D01*
X49947024Y-48667676D02*
X50042262Y-48572438D01*
X50042262Y-48572438D02*
X50185119Y-48524819D01*
X50185119Y-48524819D02*
X50280357Y-48524819D01*
X50280357Y-48524819D02*
X50423214Y-48572438D01*
X50423214Y-48572438D02*
X50470833Y-48620057D01*
X51327976Y-48858152D02*
X51327976Y-49524819D01*
X51089881Y-48477200D02*
X50851786Y-49191485D01*
X50851786Y-49191485D02*
X51470833Y-49191485D01*
X50333333Y-54429580D02*
X50285714Y-54477200D01*
X50285714Y-54477200D02*
X50142857Y-54524819D01*
X50142857Y-54524819D02*
X50047619Y-54524819D01*
X50047619Y-54524819D02*
X49904762Y-54477200D01*
X49904762Y-54477200D02*
X49809524Y-54381961D01*
X49809524Y-54381961D02*
X49761905Y-54286723D01*
X49761905Y-54286723D02*
X49714286Y-54096247D01*
X49714286Y-54096247D02*
X49714286Y-53953390D01*
X49714286Y-53953390D02*
X49761905Y-53762914D01*
X49761905Y-53762914D02*
X49809524Y-53667676D01*
X49809524Y-53667676D02*
X49904762Y-53572438D01*
X49904762Y-53572438D02*
X50047619Y-53524819D01*
X50047619Y-53524819D02*
X50142857Y-53524819D01*
X50142857Y-53524819D02*
X50285714Y-53572438D01*
X50285714Y-53572438D02*
X50333333Y-53620057D01*
X50666667Y-53524819D02*
X51285714Y-53524819D01*
X51285714Y-53524819D02*
X50952381Y-53905771D01*
X50952381Y-53905771D02*
X51095238Y-53905771D01*
X51095238Y-53905771D02*
X51190476Y-53953390D01*
X51190476Y-53953390D02*
X51238095Y-54001009D01*
X51238095Y-54001009D02*
X51285714Y-54096247D01*
X51285714Y-54096247D02*
X51285714Y-54334342D01*
X51285714Y-54334342D02*
X51238095Y-54429580D01*
X51238095Y-54429580D02*
X51190476Y-54477200D01*
X51190476Y-54477200D02*
X51095238Y-54524819D01*
X51095238Y-54524819D02*
X50809524Y-54524819D01*
X50809524Y-54524819D02*
X50714286Y-54477200D01*
X50714286Y-54477200D02*
X50666667Y-54429580D01*
D11*
%TO.C,J6*%
X36500000Y-78300000D02*
X35000000Y-78300000D01*
X36500000Y-67300000D02*
X36500000Y-78300000D01*
X35000000Y-79500000D02*
X33500000Y-79500000D01*
X35000000Y-78300000D02*
X35000000Y-79500000D01*
X33500000Y-81300000D02*
X27500000Y-81300000D01*
X33500000Y-79500000D02*
X33500000Y-81300000D01*
X32500000Y-81300000D02*
X32500000Y-78300000D01*
X32500000Y-78300000D02*
X28500000Y-78300000D01*
X28500000Y-78300000D02*
X28500000Y-81300000D01*
X27500000Y-81300000D02*
X27500000Y-79500000D01*
X27500000Y-79500000D02*
X26000000Y-79500000D01*
X26000000Y-79500000D02*
X26000000Y-78300000D01*
X26000000Y-78300000D02*
X24500000Y-78300000D01*
X24500000Y-78300000D02*
X24500000Y-67300000D01*
X24500000Y-67300000D02*
X36500000Y-67300000D01*
%TO.C,J13*%
X47700000Y-77500000D02*
X47700000Y-79400000D01*
X47700000Y-73600000D02*
X47700000Y-75600000D01*
X38300000Y-79400000D02*
X47700000Y-79400000D01*
X38300000Y-77500000D02*
X38300000Y-79400000D01*
X38300000Y-73600000D02*
X38300000Y-75600000D01*
%TO.C,C1*%
X50270000Y-62570000D02*
X45730000Y-62570000D01*
X50270000Y-62514000D02*
X50270000Y-62570000D01*
X45730000Y-60486000D02*
X45730000Y-60430000D01*
X45730000Y-60430000D02*
X50270000Y-60430000D01*
%TO.C,C2*%
X50270000Y-59570000D02*
X45730000Y-59570000D01*
X50270000Y-59514000D02*
X50270000Y-59570000D01*
X45730000Y-57486000D02*
X45730000Y-57430000D01*
X45730000Y-57430000D02*
X50270000Y-57430000D01*
%TO.C,J8*%
X49120000Y-33310000D02*
X49120000Y-20500000D01*
X51880000Y-20500000D02*
X49120000Y-20500000D01*
X51880000Y-33310000D02*
X49120000Y-33310000D01*
X51880000Y-33310000D02*
X51880000Y-20500000D01*
X51880000Y-34580000D02*
X51880000Y-35960000D01*
X51880000Y-35960000D02*
X50500000Y-35960000D01*
%TO.C,J7*%
X31190000Y-41620000D02*
X46540000Y-41620000D01*
X46540000Y-44380000D02*
X46540000Y-41620000D01*
X31190000Y-44380000D02*
X31190000Y-41620000D01*
X31190000Y-44380000D02*
X46540000Y-44380000D01*
X29920000Y-44380000D02*
X28540000Y-44380000D01*
X28540000Y-44380000D02*
X28540000Y-43000000D01*
%TO.C,U2*%
X41925000Y-45355000D02*
X41685000Y-45025000D01*
X42165000Y-45025000D01*
X41925000Y-45355000D01*
G36*
X41925000Y-45355000D02*
G01*
X41685000Y-45025000D01*
X42165000Y-45025000D01*
X41925000Y-45355000D01*
G37*
X46585000Y-55425000D02*
X42465000Y-55425000D01*
X46585000Y-55370000D02*
X46585000Y-55425000D01*
X46585000Y-45305000D02*
X46585000Y-45360000D01*
X42465000Y-55425000D02*
X42465000Y-55370000D01*
X42465000Y-45360000D02*
X42465000Y-45305000D01*
X42465000Y-45305000D02*
X46585000Y-45305000D01*
%TO.C,U3*%
X48060000Y-66302500D02*
X48060000Y-67822500D01*
X48010000Y-66302500D02*
X48060000Y-66302500D01*
X46110000Y-66302500D02*
X46890000Y-66302500D01*
X44940000Y-66302500D02*
X44990000Y-66302500D01*
X48060000Y-67822500D02*
X47060000Y-67822500D01*
X45940000Y-67822500D02*
X44940000Y-67822500D01*
X44940000Y-67822500D02*
X44940000Y-66302500D01*
X46880000Y-65762500D02*
X46550000Y-66002500D01*
X46550000Y-65522500D01*
X46880000Y-65762500D01*
G36*
X46880000Y-65762500D02*
G01*
X46550000Y-66002500D01*
X46550000Y-65522500D01*
X46880000Y-65762500D01*
G37*
%TO.C,U1*%
X28985000Y-38810000D02*
X28985000Y-39710000D01*
X28985000Y-39710000D02*
X31670000Y-39710000D01*
X29295000Y-20290000D02*
X47205000Y-20290000D01*
X44520000Y-39710000D02*
X47205000Y-39710000D01*
X47205000Y-20290000D02*
X47205000Y-20880000D01*
X47205000Y-38810000D02*
X47205000Y-39710000D01*
X28985000Y-20850000D02*
X28485000Y-20850000D01*
X28985000Y-20350000D01*
X28985000Y-20850000D01*
G36*
X28985000Y-20850000D02*
G01*
X28485000Y-20850000D01*
X28985000Y-20350000D01*
X28985000Y-20850000D01*
G37*
%TO.C,R5*%
X41500000Y-67040000D02*
X41500000Y-66270000D01*
X41500000Y-58960000D02*
X41500000Y-59730000D01*
X40130000Y-66270000D02*
X42870000Y-66270000D01*
X42870000Y-59730000D01*
X40130000Y-59730000D01*
X40130000Y-66270000D01*
%TO.C,R4*%
X37950000Y-60540000D02*
X37950000Y-59770000D01*
X37950000Y-52460000D02*
X37950000Y-53230000D01*
X36580000Y-59770000D02*
X39320000Y-59770000D01*
X39320000Y-53230000D01*
X36580000Y-53230000D01*
X36580000Y-59770000D01*
%TO.C,R3*%
X33900000Y-60540000D02*
X33900000Y-59770000D01*
X33900000Y-52460000D02*
X33900000Y-53230000D01*
X32530000Y-59770000D02*
X35270000Y-59770000D01*
X35270000Y-53230000D01*
X32530000Y-53230000D01*
X32530000Y-59770000D01*
%TO.C,R2*%
X29850000Y-60540000D02*
X29850000Y-59770000D01*
X29850000Y-52460000D02*
X29850000Y-53230000D01*
X28480000Y-59770000D02*
X31220000Y-59770000D01*
X31220000Y-53230000D01*
X28480000Y-53230000D01*
X28480000Y-59770000D01*
%TO.C,R1*%
X25800000Y-60540000D02*
X25800000Y-59770000D01*
X25800000Y-52460000D02*
X25800000Y-53230000D01*
X24430000Y-59770000D02*
X27170000Y-59770000D01*
X27170000Y-53230000D01*
X24430000Y-53230000D01*
X24430000Y-59770000D01*
%TO.C,J12*%
X24620000Y-20420000D02*
X26000000Y-20420000D01*
X24620000Y-21800000D02*
X24620000Y-20420000D01*
X24620000Y-23070000D02*
X24620000Y-43500000D01*
X24620000Y-23070000D02*
X27380000Y-23070000D01*
X24620000Y-43500000D02*
X27380000Y-43500000D01*
X27380000Y-23070000D02*
X27380000Y-43500000D01*
%TO.C,J11*%
X24540000Y-66380000D02*
X24540000Y-65000000D01*
X25920000Y-66380000D02*
X24540000Y-66380000D01*
X27190000Y-66380000D02*
X37460000Y-66380000D01*
X27190000Y-66380000D02*
X27190000Y-63620000D01*
X37460000Y-66380000D02*
X37460000Y-63620000D01*
X27190000Y-63620000D02*
X37460000Y-63620000D01*
%TO.C,J10*%
X51880000Y-48420000D02*
X50500000Y-48420000D01*
X51880000Y-47040000D02*
X51880000Y-48420000D01*
X51880000Y-45770000D02*
X51880000Y-38040000D01*
X51880000Y-45770000D02*
X49120000Y-45770000D01*
X51880000Y-38040000D02*
X49120000Y-38040000D01*
X49120000Y-45770000D02*
X49120000Y-38040000D01*
%TO.C,J5*%
X24540000Y-49880000D02*
X24540000Y-48500000D01*
X25920000Y-49880000D02*
X24540000Y-49880000D01*
X27190000Y-49880000D02*
X40000000Y-49880000D01*
X27190000Y-49880000D02*
X27190000Y-47120000D01*
X40000000Y-49880000D02*
X40000000Y-47120000D01*
X27190000Y-47120000D02*
X40000000Y-47120000D01*
%TO.C,J1*%
X49170000Y-66110000D02*
X49170000Y-78870000D01*
X49170000Y-66110000D02*
X51830000Y-66110000D01*
X49170000Y-78870000D02*
X51830000Y-78870000D01*
X50500000Y-63510000D02*
X51830000Y-63510000D01*
X51830000Y-63510000D02*
X51830000Y-64840000D01*
X51830000Y-66110000D02*
X51830000Y-78870000D01*
%TO.C,C5*%
X50491233Y-52500000D02*
X50783767Y-52500000D01*
X50491233Y-53520000D02*
X50783767Y-53520000D01*
%TO.C,C4*%
X50491233Y-49990000D02*
X50783767Y-49990000D01*
X50491233Y-51010000D02*
X50783767Y-51010000D01*
%TO.C,C3*%
X50353733Y-54990000D02*
X50646267Y-54990000D01*
X50353733Y-56010000D02*
X50646267Y-56010000D01*
%TD*%
M02*
