M48
; DRILL file {KiCad 9.0.7} date 2026-02-15T17:11:46+0100
; FORMAT={-:-/ absolute / metric / decimal}
; #@! TF.CreationDate,2026-02-15T17:11:46+01:00
; #@! TF.GenerationSoftware,Kicad,Pcbnew,9.0.7
; #@! TF.FileFunction,Plated,1,4,PTH
FMAT,2
METRIC
; #@! TA.AperFunction,Plated,PTH,ComponentDrill
T1C0.200
; #@! TA.AperFunction,Plated,PTH,ViaDrill
T2C0.300
; #@! TA.AperFunction,Plated,PTH,ComponentDrill
T3C0.400
; #@! TA.AperFunction,Plated,PTH,ComponentDrill
T4C0.600
; #@! TA.AperFunction,Plated,PTH,ComponentDrill
T5C0.800
; #@! TA.AperFunction,Plated,PTH,ComponentDrill
T6C1.000
%
G90
G05
T1
X35.195Y-28.23
X35.195Y-29.63
X35.895Y-27.53
X35.895Y-28.93
X35.895Y-30.33
X36.595Y-28.23
X36.595Y-29.63
X37.295Y-27.53
X37.295Y-28.93
X37.295Y-30.33
X37.995Y-28.23
X37.995Y-29.63
T2
X26.0Y-45.5
X27.745Y-32.92
X31.0Y-36.5
X31.5Y-28.5
X31.5Y-30.5
X32.5Y-23.5
X32.721Y-73.721
X33.0Y-36.0
X40.85Y-47.986
X41.5Y-73.0
X42.75Y-36.25
X44.0Y-34.5
X44.0Y-49.5
X44.564Y-72.691
X44.65Y-35.5
X45.0Y-64.58
X45.5Y-69.5
X48.0Y-42.0
X48.5Y-56.0
X51.899Y-57.0
T5
X25.8Y-51.42
X25.8Y-61.58
X29.85Y-51.42
X29.85Y-61.58
X33.9Y-51.42
X33.9Y-61.58
X37.95Y-51.42
X37.95Y-61.58
X41.5Y-57.92
X41.5Y-68.08
X45.5Y-58.5
X45.5Y-61.5
X50.5Y-58.5
X50.5Y-61.5
T6
X25.92Y-48.5
X25.92Y-65.0
X26.0Y-21.8
X26.0Y-24.34
X26.0Y-26.88
X26.0Y-29.42
X26.0Y-31.96
X26.0Y-34.5
X26.0Y-37.04
X26.0Y-39.58
X26.0Y-42.12
X28.46Y-48.5
X28.46Y-65.0
X29.92Y-43.0
X31.0Y-48.5
X31.0Y-65.0
X32.46Y-43.0
X33.54Y-48.5
X33.54Y-65.0
X35.0Y-43.0
X36.08Y-48.5
X36.08Y-65.0
X37.54Y-43.0
X38.62Y-48.5
X40.08Y-43.0
X42.62Y-43.0
X45.16Y-43.0
X50.5Y-21.88
X50.5Y-24.42
X50.5Y-26.96
X50.5Y-29.5
X50.5Y-32.04
X50.5Y-34.58
X50.5Y-39.42
X50.5Y-41.96
X50.5Y-44.5
X50.5Y-47.04
X50.5Y-64.84
X50.5Y-67.38
X50.5Y-69.92
X50.5Y-72.46
X50.5Y-75.0
X50.5Y-77.54
T3
G00X25.5Y-69.5
M15
G01X25.5Y-70.5
M16
G05
G00X30.0Y-75.0
M15
G01X31.0Y-75.0
M16
G05
G00X35.5Y-70.5
M15
G01X35.5Y-69.5
M16
G05
T4
G00X38.68Y-71.82
M15
G01X38.68Y-72.92
M16
G05
G00X38.68Y-76.25
M15
G01X38.68Y-76.85
M16
G05
G00X47.32Y-71.82
M15
G01X47.32Y-72.92
M16
G05
G00X47.32Y-76.25
M15
G01X47.32Y-76.85
M16
G05
T5
G00X28.0Y-69.65
M15
G01X28.0Y-70.35
M16
G05
G00X33.0Y-70.35
M15
G01X33.0Y-69.65
M16
G05
M30
