%TF.GenerationSoftware,KiCad,Pcbnew,9.0.7*%
%TF.CreationDate,2026-02-15T17:10:50+01:00*%
%TF.ProjectId,CatPhonesV2,43617450-686f-46e6-9573-56322e6b6963,rev?*%
%TF.SameCoordinates,Original*%
%TF.FileFunction,Soldermask,Top*%
%TF.FilePolarity,Negative*%
%FSLAX46Y46*%
G04 Gerber Fmt 4.6, Leading zero omitted, Abs format (unit mm)*
G04 Created by KiCad (PCBNEW 9.0.7) date 2026-02-15 17:10:50*
%MOMM*%
%LPD*%
G01*
G04 APERTURE LIST*
G04 Aperture macros list*
%AMRoundRect*
0 Rectangle with rounded corners*
0 $1 Rounding radius*
0 $2 $3 $4 $5 $6 $7 $8 $9 X,Y pos of 4 corners*
0 Add a 4 corners polygon primitive as box body*
4,1,4,$2,$3,$4,$5,$6,$7,$8,$9,$2,$3,0*
0 Add four circle primitives for the rounded corners*
1,1,$1+$1,$2,$3*
1,1,$1+$1,$4,$5*
1,1,$1+$1,$6,$7*
1,1,$1+$1,$8,$9*
0 Add four rect primitives between the rounded corners*
20,1,$1+$1,$2,$3,$4,$5,0*
20,1,$1+$1,$4,$5,$6,$7,0*
20,1,$1+$1,$6,$7,$8,$9,0*
20,1,$1+$1,$8,$9,$2,$3,0*%
G04 Aperture macros list end*
%ADD10O,1.600000X2.500000*%
%ADD11O,1.200000X2.200000*%
%ADD12O,2.200000X1.200000*%
%ADD13O,1.600000X2.300000*%
%ADD14C,1.200000*%
%ADD15O,1.000000X1.600000*%
%ADD16O,1.000000X2.100000*%
%ADD17R,0.600000X1.450000*%
%ADD18R,0.300000X1.450000*%
%ADD19C,0.650000*%
%ADD20C,1.600000*%
%ADD21C,1.700000*%
%ADD22R,1.700000X1.700000*%
%ADD23RoundRect,0.150000X-0.825000X-0.150000X0.825000X-0.150000X0.825000X0.150000X-0.825000X0.150000X0*%
%ADD24RoundRect,0.150000X-0.150000X0.587500X-0.150000X-0.587500X0.150000X-0.587500X0.150000X0.587500X0*%
%ADD25R,1.500000X0.900000*%
%ADD26R,0.900000X1.500000*%
%ADD27C,0.600000*%
%ADD28R,3.800000X3.800000*%
%ADD29RoundRect,0.237500X-0.300000X-0.237500X0.300000X-0.237500X0.300000X0.237500X-0.300000X0.237500X0*%
G04 APERTURE END LIST*
D10*
%TO.C,J6*%
X33000000Y-70000000D03*
D11*
X35500000Y-70000000D03*
D12*
X30500000Y-75000000D03*
D13*
X28000000Y-70000000D03*
D11*
X25500000Y-70000000D03*
D14*
X35500000Y-77500000D03*
X35500000Y-75000000D03*
X30500000Y-70000000D03*
X25500000Y-77500000D03*
X25500000Y-75000000D03*
%TD*%
D15*
%TO.C,J13*%
X47320000Y-76550000D03*
D16*
X47320000Y-72370000D03*
D15*
X38680000Y-76550000D03*
D16*
X38680000Y-72370000D03*
D17*
X39750000Y-71455000D03*
X40550000Y-71455000D03*
D18*
X41250000Y-71455000D03*
X42250000Y-71455000D03*
X43750000Y-71455000D03*
X44750000Y-71455000D03*
D17*
X45450000Y-71455000D03*
X46250000Y-71455000D03*
X46250000Y-71455000D03*
X45450000Y-71455000D03*
D18*
X44250000Y-71455000D03*
X43250000Y-71455000D03*
X42750000Y-71455000D03*
X41750000Y-71455000D03*
D17*
X40550000Y-71455000D03*
X39750000Y-71455000D03*
D19*
X45890000Y-72900000D03*
X40110000Y-72900000D03*
%TD*%
D20*
%TO.C,C1*%
X50500000Y-61500000D03*
X45500000Y-61500000D03*
%TD*%
%TO.C,C2*%
X50500000Y-58500000D03*
X45500000Y-58500000D03*
%TD*%
D21*
%TO.C,J8*%
X50500000Y-21880000D03*
X50500000Y-24420000D03*
X50500000Y-26960000D03*
X50500000Y-29500000D03*
X50500000Y-32040000D03*
D22*
X50500000Y-34580000D03*
%TD*%
D21*
%TO.C,J7*%
X45160000Y-43000000D03*
X42620000Y-43000000D03*
X40080000Y-43000000D03*
X37540000Y-43000000D03*
X35000000Y-43000000D03*
X32460000Y-43000000D03*
D22*
X29920000Y-43000000D03*
%TD*%
D23*
%TO.C,U2*%
X47000000Y-45920000D03*
X47000000Y-47190000D03*
X47000000Y-48460000D03*
X47000000Y-49730000D03*
X47000000Y-51000000D03*
X47000000Y-52270000D03*
X47000000Y-53540000D03*
X47000000Y-54810000D03*
X42050000Y-54810000D03*
X42050000Y-53540000D03*
X42050000Y-52270000D03*
X42050000Y-51000000D03*
X42050000Y-49730000D03*
X42050000Y-48460000D03*
X42050000Y-47190000D03*
X42050000Y-45920000D03*
%TD*%
D24*
%TO.C,U3*%
X47450000Y-66125000D03*
X45550000Y-66125000D03*
X46500000Y-68000000D03*
%TD*%
D25*
%TO.C,U1*%
X29345000Y-21590000D03*
X29345000Y-22860000D03*
X29345000Y-24130000D03*
X29345000Y-25400000D03*
X29345000Y-26670000D03*
X29345000Y-27940000D03*
X29345000Y-29210000D03*
X29345000Y-30480000D03*
X29345000Y-31750000D03*
X29345000Y-33020000D03*
X29345000Y-34290000D03*
X29345000Y-35560000D03*
X29345000Y-36830000D03*
X29345000Y-38100000D03*
D26*
X32380000Y-39350000D03*
X33650000Y-39350000D03*
X34920000Y-39350000D03*
X36190000Y-39350000D03*
X37460000Y-39350000D03*
X38730000Y-39350000D03*
X40000000Y-39350000D03*
X41270000Y-39350000D03*
X42540000Y-39350000D03*
X43810000Y-39350000D03*
D25*
X46845000Y-38100000D03*
X46845000Y-36830000D03*
X46845000Y-35560000D03*
X46845000Y-34290000D03*
X46845000Y-33020000D03*
X46845000Y-31750000D03*
X46845000Y-30480000D03*
X46845000Y-29210000D03*
X46845000Y-27940000D03*
X46845000Y-26670000D03*
X46845000Y-25400000D03*
X46845000Y-24130000D03*
X46845000Y-22860000D03*
X46845000Y-21590000D03*
D27*
X35195000Y-28230000D03*
X35195000Y-29630000D03*
X35895000Y-27530000D03*
X35895000Y-28930000D03*
X35895000Y-30330000D03*
X36595000Y-28230000D03*
D28*
X36595000Y-28930000D03*
D27*
X36595000Y-29630000D03*
X37295000Y-27530000D03*
X37295000Y-28930000D03*
X37295000Y-30330000D03*
X37995000Y-28230000D03*
X37995000Y-29630000D03*
%TD*%
D20*
%TO.C,R5*%
X41500000Y-68080000D03*
X41500000Y-57920000D03*
%TD*%
%TO.C,R4*%
X37950000Y-61580000D03*
X37950000Y-51420000D03*
%TD*%
%TO.C,R3*%
X33900000Y-61580000D03*
X33900000Y-51420000D03*
%TD*%
%TO.C,R2*%
X29850000Y-61580000D03*
X29850000Y-51420000D03*
%TD*%
%TO.C,R1*%
X25800000Y-61580000D03*
X25800000Y-51420000D03*
%TD*%
D22*
%TO.C,J12*%
X26000000Y-21800000D03*
D21*
X26000000Y-24340000D03*
X26000000Y-26880000D03*
X26000000Y-29420000D03*
X26000000Y-31960000D03*
X26000000Y-34500000D03*
X26000000Y-37040000D03*
X26000000Y-39580000D03*
X26000000Y-42120000D03*
%TD*%
D22*
%TO.C,J11*%
X25920000Y-65000000D03*
D21*
X28460000Y-65000000D03*
X31000000Y-65000000D03*
X33540000Y-65000000D03*
X36080000Y-65000000D03*
%TD*%
D22*
%TO.C,J10*%
X50500000Y-47040000D03*
D21*
X50500000Y-44500000D03*
X50500000Y-41960000D03*
X50500000Y-39420000D03*
%TD*%
D22*
%TO.C,J5*%
X25920000Y-48500000D03*
D21*
X28460000Y-48500000D03*
X31000000Y-48500000D03*
X33540000Y-48500000D03*
X36080000Y-48500000D03*
X38620000Y-48500000D03*
%TD*%
D22*
%TO.C,J1*%
X50500000Y-64840000D03*
D21*
X50500000Y-67380000D03*
X50500000Y-69920000D03*
X50500000Y-72460000D03*
X50500000Y-75000000D03*
X50500000Y-77540000D03*
%TD*%
D29*
%TO.C,C5*%
X49775000Y-53010000D03*
X51500000Y-53010000D03*
%TD*%
%TO.C,C4*%
X49775000Y-50500000D03*
X51500000Y-50500000D03*
%TD*%
%TO.C,C3*%
X49637500Y-55500000D03*
X51362500Y-55500000D03*
%TD*%
M02*
