%TF.GenerationSoftware,KiCad,Pcbnew,9.0.7*%
%TF.CreationDate,2026-02-15T17:10:50+01:00*%
%TF.ProjectId,CatPhonesV2,43617450-686f-46e6-9573-56322e6b6963,rev?*%
%TF.SameCoordinates,Original*%
%TF.FileFunction,Copper,L1,Top*%
%TF.FilePolarity,Positive*%
%FSLAX46Y46*%
G04 Gerber Fmt 4.6, Leading zero omitted, Abs format (unit mm)*
G04 Created by KiCad (PCBNEW 9.0.7) date 2026-02-15 17:10:50*
%MOMM*%
%LPD*%
G01*
G04 APERTURE LIST*
G04 Aperture macros list*
%AMRoundRect*
0 Rectangle with rounded corners*
0 $1 Rounding radius*
0 $2 $3 $4 $5 $6 $7 $8 $9 X,Y pos of 4 corners*
0 Add a 4 corners polygon primitive as box body*
4,1,4,$2,$3,$4,$5,$6,$7,$8,$9,$2,$3,0*
0 Add four circle primitives for the rounded corners*
1,1,$1+$1,$2,$3*
1,1,$1+$1,$4,$5*
1,1,$1+$1,$6,$7*
1,1,$1+$1,$8,$9*
0 Add four rect primitives between the rounded corners*
20,1,$1+$1,$2,$3,$4,$5,0*
20,1,$1+$1,$4,$5,$6,$7,0*
20,1,$1+$1,$6,$7,$8,$9,0*
20,1,$1+$1,$8,$9,$2,$3,0*%
G04 Aperture macros list end*
%TA.AperFunction,ComponentPad*%
%ADD10O,1.600000X2.500000*%
%TD*%
%TA.AperFunction,ComponentPad*%
%ADD11O,1.200000X2.200000*%
%TD*%
%TA.AperFunction,ComponentPad*%
%ADD12O,2.200000X1.200000*%
%TD*%
%TA.AperFunction,ComponentPad*%
%ADD13O,1.600000X2.300000*%
%TD*%
%TA.AperFunction,HeatsinkPad*%
%ADD14O,1.000000X1.600000*%
%TD*%
%TA.AperFunction,HeatsinkPad*%
%ADD15O,1.000000X2.100000*%
%TD*%
%TA.AperFunction,SMDPad,CuDef*%
%ADD16R,0.600000X1.450000*%
%TD*%
%TA.AperFunction,SMDPad,CuDef*%
%ADD17R,0.300000X1.450000*%
%TD*%
%TA.AperFunction,ComponentPad*%
%ADD18C,1.600000*%
%TD*%
%TA.AperFunction,ComponentPad*%
%ADD19C,1.700000*%
%TD*%
%TA.AperFunction,ComponentPad*%
%ADD20R,1.700000X1.700000*%
%TD*%
%TA.AperFunction,SMDPad,CuDef*%
%ADD21RoundRect,0.150000X-0.825000X-0.150000X0.825000X-0.150000X0.825000X0.150000X-0.825000X0.150000X0*%
%TD*%
%TA.AperFunction,SMDPad,CuDef*%
%ADD22RoundRect,0.150000X-0.150000X0.587500X-0.150000X-0.587500X0.150000X-0.587500X0.150000X0.587500X0*%
%TD*%
%TA.AperFunction,SMDPad,CuDef*%
%ADD23R,1.500000X0.900000*%
%TD*%
%TA.AperFunction,SMDPad,CuDef*%
%ADD24R,0.900000X1.500000*%
%TD*%
%TA.AperFunction,SMDPad,CuDef*%
%ADD25R,0.900000X0.900000*%
%TD*%
%TA.AperFunction,HeatsinkPad*%
%ADD26C,0.600000*%
%TD*%
%TA.AperFunction,HeatsinkPad*%
%ADD27R,3.800000X3.800000*%
%TD*%
%TA.AperFunction,SMDPad,CuDef*%
%ADD28RoundRect,0.237500X-0.300000X-0.237500X0.300000X-0.237500X0.300000X0.237500X-0.300000X0.237500X0*%
%TD*%
%TA.AperFunction,ViaPad*%
%ADD29C,0.600000*%
%TD*%
%TA.AperFunction,Conductor*%
%ADD30C,0.200000*%
%TD*%
G04 APERTURE END LIST*
D10*
%TO.P,J6,TN*%
%TO.N,N/C*%
X33000000Y-70000000D03*
D11*
%TO.P,J6,T*%
%TO.N,Net-(J11-Pin_4)*%
X35500000Y-70000000D03*
D12*
%TO.P,J6,S*%
%TO.N,Net-(J11-Pin_1)*%
X30500000Y-75000000D03*
D13*
%TO.P,J6,RN*%
%TO.N,N/C*%
X28000000Y-70000000D03*
D11*
%TO.P,J6,R*%
%TO.N,Net-(J11-Pin_2)*%
X25500000Y-70000000D03*
%TD*%
D14*
%TO.P,J13,S1,SHIELD*%
%TO.N,unconnected-(J13-SHIELD-PadS1)_2*%
X47320000Y-76550000D03*
D15*
%TO.N,unconnected-(J13-SHIELD-PadS1)_1*%
X47320000Y-72370000D03*
D14*
%TO.N,unconnected-(J13-SHIELD-PadS1)_3*%
X38680000Y-76550000D03*
D15*
%TO.N,unconnected-(J13-SHIELD-PadS1)*%
X38680000Y-72370000D03*
D16*
%TO.P,J13,B12,GND*%
%TO.N,GND*%
X39750000Y-71455000D03*
%TO.P,J13,B9,VBUS*%
%TO.N,+5V*%
X40550000Y-71455000D03*
D17*
%TO.P,J13,B8,SBU2*%
%TO.N,unconnected-(J13-SBU2-PadB8)*%
X41250000Y-71455000D03*
%TO.P,J13,B7,D-*%
%TO.N,/USB_D-*%
X42250000Y-71455000D03*
%TO.P,J13,B6,D+*%
%TO.N,/USB_D+*%
X43750000Y-71455000D03*
%TO.P,J13,B5,CC2*%
%TO.N,/CC2*%
X44750000Y-71455000D03*
D16*
%TO.P,J13,B4,VBUS*%
%TO.N,+5V*%
X45450000Y-71455000D03*
%TO.P,J13,B1,GND*%
%TO.N,GND*%
X46250000Y-71455000D03*
%TO.P,J13,A12,GND*%
X46250000Y-71455000D03*
%TO.P,J13,A9,VBUS*%
%TO.N,+5V*%
X45450000Y-71455000D03*
D17*
%TO.P,J13,A8,SBU1*%
%TO.N,unconnected-(J13-SBU1-PadA8)*%
X44250000Y-71455000D03*
%TO.P,J13,A7,D-*%
%TO.N,/USB_D-*%
X43250000Y-71455000D03*
%TO.P,J13,A6,D+*%
%TO.N,/USB_D+*%
X42750000Y-71455000D03*
%TO.P,J13,A5,CC1*%
%TO.N,/CC1*%
X41750000Y-71455000D03*
D16*
%TO.P,J13,A4,VBUS*%
%TO.N,+5V*%
X40550000Y-71455000D03*
%TO.P,J13,A1,GND*%
%TO.N,GND*%
X39750000Y-71455000D03*
%TD*%
D18*
%TO.P,C1,1*%
%TO.N,/DTR*%
X50500000Y-61500000D03*
%TO.P,C1,2*%
%TO.N,Net-(U1-EN)*%
X45500000Y-61500000D03*
%TD*%
%TO.P,C2,1*%
%TO.N,+3V3*%
X50500000Y-58500000D03*
%TO.P,C2,2*%
%TO.N,GND*%
X45500000Y-58500000D03*
%TD*%
D19*
%TO.P,J8,6,Pin_6*%
%TO.N,GND*%
X50500000Y-21880000D03*
%TO.P,J8,5,Pin_5*%
%TO.N,Net-(J8-Pin_5)*%
X50500000Y-24420000D03*
%TO.P,J8,4,Pin_4*%
%TO.N,Net-(J8-Pin_4)*%
X50500000Y-26960000D03*
%TO.P,J8,3,Pin_3*%
%TO.N,Net-(J8-Pin_3)*%
X50500000Y-29500000D03*
%TO.P,J8,2,Pin_2*%
%TO.N,Net-(J8-Pin_2)*%
X50500000Y-32040000D03*
D20*
%TO.P,J8,1,Pin_1*%
%TO.N,Net-(J8-Pin_1)*%
X50500000Y-34580000D03*
%TD*%
D19*
%TO.P,J7,7,Pin_7*%
%TO.N,+3V3*%
X45160000Y-43000000D03*
%TO.P,J7,6,Pin_6*%
%TO.N,GND*%
X42620000Y-43000000D03*
%TO.P,J7,5,Pin_5*%
%TO.N,unconnected-(J7-Pin_5-Pad5)*%
X40080000Y-43000000D03*
%TO.P,J7,4,Pin_4*%
%TO.N,unconnected-(J7-Pin_4-Pad4)*%
X37540000Y-43000000D03*
%TO.P,J7,3,Pin_3*%
%TO.N,Net-(J7-Pin_3)*%
X35000000Y-43000000D03*
%TO.P,J7,2,Pin_2*%
%TO.N,Net-(J7-Pin_2)*%
X32460000Y-43000000D03*
D20*
%TO.P,J7,1,Pin_1*%
%TO.N,Net-(J7-Pin_1)*%
X29920000Y-43000000D03*
%TD*%
D21*
%TO.P,U2,16,VCC*%
%TO.N,+5V*%
X47000000Y-45920000D03*
%TO.P,U2,15,R232*%
%TO.N,unconnected-(U2-R232-Pad15)*%
X47000000Y-47190000D03*
%TO.P,U2,14,~{RTS}*%
%TO.N,unconnected-(U2-~{RTS}-Pad14)*%
X47000000Y-48460000D03*
%TO.P,U2,13,~{DTR}*%
%TO.N,/DTR*%
X47000000Y-49730000D03*
%TO.P,U2,12,~{DCD}*%
%TO.N,unconnected-(U2-~{DCD}-Pad12)*%
X47000000Y-51000000D03*
%TO.P,U2,11,~{RI}*%
%TO.N,unconnected-(U2-~{RI}-Pad11)*%
X47000000Y-52270000D03*
%TO.P,U2,10,~{DSR}*%
%TO.N,unconnected-(U2-~{DSR}-Pad10)*%
X47000000Y-53540000D03*
%TO.P,U2,9,~{CTS}*%
%TO.N,unconnected-(U2-~{CTS}-Pad9)*%
X47000000Y-54810000D03*
%TO.P,U2,8,NC*%
%TO.N,unconnected-(U2-NC-Pad8)*%
X42050000Y-54810000D03*
%TO.P,U2,7,NC*%
%TO.N,unconnected-(U2-NC-Pad7)*%
X42050000Y-53540000D03*
%TO.P,U2,6,UD-*%
%TO.N,/USB_D-*%
X42050000Y-52270000D03*
%TO.P,U2,5,UD+*%
%TO.N,/USB_D+*%
X42050000Y-51000000D03*
%TO.P,U2,4,V3*%
%TO.N,+3V3*%
X42050000Y-49730000D03*
%TO.P,U2,3,RXD*%
%TO.N,/RXD*%
X42050000Y-48460000D03*
%TO.P,U2,2,TXD*%
%TO.N,/TXD*%
X42050000Y-47190000D03*
%TO.P,U2,1,GND*%
%TO.N,GND*%
X42050000Y-45920000D03*
%TD*%
D22*
%TO.P,U3,1,GND*%
%TO.N,GND*%
X47450000Y-66125000D03*
%TO.P,U3,2,VO*%
%TO.N,+3V3*%
X45550000Y-66125000D03*
%TO.P,U3,3,VI*%
%TO.N,+5V*%
X46500000Y-68000000D03*
%TD*%
D23*
%TO.P,U1,1,GND*%
%TO.N,GND*%
X29345000Y-21590000D03*
%TO.P,U1,2,VDD*%
%TO.N,+3V3*%
X29345000Y-22860000D03*
%TO.P,U1,3,EN*%
%TO.N,Net-(U1-EN)*%
X29345000Y-24130000D03*
%TO.P,U1,4,SENSOR_VP*%
%TO.N,unconnected-(U1-SENSOR_VP-Pad4)*%
X29345000Y-25400000D03*
%TO.P,U1,5,SENSOR_VN*%
%TO.N,unconnected-(U1-SENSOR_VN-Pad5)*%
X29345000Y-26670000D03*
%TO.P,U1,6,IO34*%
%TO.N,Net-(J1-Pin_2)*%
X29345000Y-27940000D03*
%TO.P,U1,7,IO35*%
%TO.N,Net-(J1-Pin_5)*%
X29345000Y-29210000D03*
%TO.P,U1,8,IO32*%
%TO.N,unconnected-(U1-IO32-Pad8)*%
X29345000Y-30480000D03*
%TO.P,U1,9,IO33*%
%TO.N,unconnected-(U1-IO33-Pad9)*%
X29345000Y-31750000D03*
%TO.P,U1,10,IO25*%
%TO.N,Net-(J5-Pin_3)*%
X29345000Y-33020000D03*
%TO.P,U1,11,IO26*%
%TO.N,Net-(J5-Pin_4)*%
X29345000Y-34290000D03*
%TO.P,U1,12,IO27*%
%TO.N,Net-(J5-Pin_2)*%
X29345000Y-35560000D03*
%TO.P,U1,13,IO14*%
%TO.N,Net-(J7-Pin_2)*%
X29345000Y-36830000D03*
%TO.P,U1,14,IO12*%
%TO.N,unconnected-(U1-IO12-Pad14)*%
X29345000Y-38100000D03*
D24*
%TO.P,U1,15,GND*%
%TO.N,GND*%
X32380000Y-39350000D03*
%TO.P,U1,16,IO13*%
%TO.N,Net-(J7-Pin_1)*%
X33650000Y-39350000D03*
%TO.P,U1,17,NC*%
%TO.N,unconnected-(U1-NC-Pad17)*%
X34920000Y-39350000D03*
%TO.P,U1,18,NC*%
%TO.N,unconnected-(U1-NC-Pad18)*%
X36190000Y-39350000D03*
%TO.P,U1,19,NC*%
%TO.N,unconnected-(U1-NC-Pad19)*%
X37460000Y-39350000D03*
%TO.P,U1,20,NC*%
%TO.N,unconnected-(U1-NC-Pad20)*%
X38730000Y-39350000D03*
%TO.P,U1,21,NC*%
%TO.N,unconnected-(U1-NC-Pad21)*%
X40000000Y-39350000D03*
%TO.P,U1,22,NC*%
%TO.N,unconnected-(U1-NC-Pad22)*%
X41270000Y-39350000D03*
%TO.P,U1,23,IO15*%
%TO.N,Net-(J7-Pin_3)*%
X42540000Y-39350000D03*
%TO.P,U1,24,IO2*%
%TO.N,unconnected-(U1-IO2-Pad24)*%
X43810000Y-39350000D03*
D23*
%TO.P,U1,25,IO0*%
%TO.N,Net-(U1-EN)*%
X46845000Y-38100000D03*
%TO.P,U1,26,IO4*%
%TO.N,unconnected-(U1-IO4-Pad26)*%
X46845000Y-36830000D03*
%TO.P,U1,27,IO16*%
%TO.N,unconnected-(U1-IO16-Pad27)*%
X46845000Y-35560000D03*
%TO.P,U1,28,IO17*%
%TO.N,unconnected-(U1-IO17-Pad28)*%
X46845000Y-34290000D03*
%TO.P,U1,29,IO5*%
%TO.N,Net-(J8-Pin_1)*%
X46845000Y-33020000D03*
%TO.P,U1,30,IO18*%
%TO.N,Net-(J8-Pin_2)*%
X46845000Y-31750000D03*
%TO.P,U1,31,IO19*%
%TO.N,Net-(J8-Pin_3)*%
X46845000Y-30480000D03*
%TO.P,U1,32,NC*%
%TO.N,unconnected-(U1-NC-Pad32)*%
X46845000Y-29210000D03*
%TO.P,U1,33,IO21*%
%TO.N,Net-(J8-Pin_4)*%
X46845000Y-27940000D03*
%TO.P,U1,34,RXD0/IO3*%
%TO.N,/TXD*%
X46845000Y-26670000D03*
%TO.P,U1,35,TXD0/IO1*%
%TO.N,/RXD*%
X46845000Y-25400000D03*
%TO.P,U1,36,IO22*%
%TO.N,Net-(J8-Pin_5)*%
X46845000Y-24130000D03*
%TO.P,U1,37,IO23*%
%TO.N,unconnected-(U1-IO23-Pad37)*%
X46845000Y-22860000D03*
%TO.P,U1,38,GND*%
%TO.N,GND*%
X46845000Y-21590000D03*
D25*
%TO.P,U1,39,GND*%
X35195000Y-27530000D03*
D26*
X35195000Y-28230000D03*
D25*
X35195000Y-28930000D03*
D26*
X35195000Y-29630000D03*
D25*
X35195000Y-30330000D03*
D26*
X35895000Y-27530000D03*
X35895000Y-28930000D03*
X35895000Y-30330000D03*
D25*
X36595000Y-27530000D03*
D26*
X36595000Y-28230000D03*
D25*
X36595000Y-28930000D03*
D27*
X36595000Y-28930000D03*
D26*
X36595000Y-29630000D03*
D25*
X36595000Y-30330000D03*
D26*
X37295000Y-27530000D03*
X37295000Y-28930000D03*
X37295000Y-30330000D03*
D25*
X37995000Y-27530000D03*
D26*
X37995000Y-28230000D03*
D25*
X37995000Y-28930000D03*
D26*
X37995000Y-29630000D03*
D25*
X37995000Y-30330000D03*
%TD*%
D18*
%TO.P,R5,1*%
%TO.N,+3V3*%
X41500000Y-68080000D03*
%TO.P,R5,2*%
%TO.N,Net-(U1-EN)*%
X41500000Y-57920000D03*
%TD*%
%TO.P,R4,1*%
%TO.N,+3V3*%
X37950000Y-61580000D03*
%TO.P,R4,2*%
%TO.N,/RXD*%
X37950000Y-51420000D03*
%TD*%
%TO.P,R3,1*%
%TO.N,+3V3*%
X33900000Y-61580000D03*
%TO.P,R3,2*%
%TO.N,/TXD*%
X33900000Y-51420000D03*
%TD*%
%TO.P,R2,1*%
%TO.N,/CC1*%
X29850000Y-61580000D03*
%TO.P,R2,2*%
%TO.N,GND*%
X29850000Y-51420000D03*
%TD*%
%TO.P,R1,1*%
%TO.N,/CC2*%
X25800000Y-61580000D03*
%TO.P,R1,2*%
%TO.N,GND*%
X25800000Y-51420000D03*
%TD*%
D20*
%TO.P,J12,1,Pin_1*%
%TO.N,Net-(J11-Pin_4)*%
X26000000Y-21800000D03*
D19*
%TO.P,J12,2,Pin_2*%
%TO.N,Net-(J11-Pin_1)*%
X26000000Y-24340000D03*
%TO.P,J12,3,Pin_3*%
%TO.N,Net-(J11-Pin_3)*%
X26000000Y-26880000D03*
%TO.P,J12,4,Pin_4*%
%TO.N,Net-(J11-Pin_1)*%
X26000000Y-29420000D03*
%TO.P,J12,5,Pin_5*%
%TO.N,unconnected-(J12-Pin_5-Pad5)*%
X26000000Y-31960000D03*
%TO.P,J12,6,Pin_6*%
%TO.N,unconnected-(J12-Pin_6-Pad6)*%
X26000000Y-34500000D03*
%TO.P,J12,7,Pin_7*%
%TO.N,unconnected-(J12-Pin_7-Pad7)*%
X26000000Y-37040000D03*
%TO.P,J12,8,Pin_8*%
%TO.N,unconnected-(J12-Pin_8-Pad8)*%
X26000000Y-39580000D03*
%TO.P,J12,9,Pin_9*%
%TO.N,unconnected-(J12-Pin_9-Pad9)*%
X26000000Y-42120000D03*
%TD*%
D20*
%TO.P,J11,1,Pin_1*%
%TO.N,Net-(J11-Pin_1)*%
X25920000Y-65000000D03*
D19*
%TO.P,J11,2,Pin_2*%
%TO.N,Net-(J11-Pin_2)*%
X28460000Y-65000000D03*
%TO.P,J11,3,Pin_3*%
%TO.N,Net-(J11-Pin_3)*%
X31000000Y-65000000D03*
%TO.P,J11,4,Pin_4*%
%TO.N,Net-(J11-Pin_4)*%
X33540000Y-65000000D03*
%TO.P,J11,5,Pin_5*%
%TO.N,Net-(J11-Pin_5)*%
X36080000Y-65000000D03*
%TD*%
D20*
%TO.P,J10,1,Pin_1*%
%TO.N,+3V3*%
X50500000Y-47040000D03*
D19*
%TO.P,J10,2,Pin_2*%
%TO.N,GND*%
X50500000Y-44500000D03*
%TO.P,J10,3,Pin_3*%
%TO.N,+5V*%
X50500000Y-41960000D03*
%TO.P,J10,4,Pin_4*%
%TO.N,GND*%
X50500000Y-39420000D03*
%TD*%
D20*
%TO.P,J5,1,Pin_1*%
%TO.N,GND*%
X25920000Y-48500000D03*
D19*
%TO.P,J5,2,Pin_2*%
%TO.N,Net-(J5-Pin_2)*%
X28460000Y-48500000D03*
%TO.P,J5,3,Pin_3*%
%TO.N,Net-(J5-Pin_3)*%
X31000000Y-48500000D03*
%TO.P,J5,4,Pin_4*%
%TO.N,Net-(J5-Pin_4)*%
X33540000Y-48500000D03*
%TO.P,J5,5,Pin_5*%
%TO.N,GND*%
X36080000Y-48500000D03*
%TO.P,J5,6,Pin_6*%
%TO.N,+5V*%
X38620000Y-48500000D03*
%TD*%
D20*
%TO.P,J1,1,Pin_1*%
%TO.N,+3V3*%
X50500000Y-64840000D03*
D19*
%TO.P,J1,2,Pin_2*%
%TO.N,Net-(J1-Pin_2)*%
X50500000Y-67380000D03*
%TO.P,J1,3,Pin_3*%
%TO.N,GND*%
X50500000Y-69920000D03*
%TO.P,J1,4,Pin_4*%
%TO.N,+5V*%
X50500000Y-72460000D03*
%TO.P,J1,5,Pin_5*%
%TO.N,Net-(J1-Pin_5)*%
X50500000Y-75000000D03*
%TO.P,J1,6,Pin_6*%
%TO.N,GND*%
X50500000Y-77540000D03*
%TD*%
D28*
%TO.P,C5,1*%
%TO.N,+5V*%
X49775000Y-53010000D03*
%TO.P,C5,2*%
%TO.N,GND*%
X51500000Y-53010000D03*
%TD*%
%TO.P,C4,1*%
%TO.N,+5V*%
X49775000Y-50500000D03*
%TO.P,C4,2*%
%TO.N,GND*%
X51500000Y-50500000D03*
%TD*%
%TO.P,C3,1*%
%TO.N,+3V3*%
X49637500Y-55500000D03*
%TO.P,C3,2*%
%TO.N,GND*%
X51362500Y-55500000D03*
%TD*%
D29*
%TO.N,/CC2*%
X32721000Y-73721000D03*
X44564000Y-72690852D03*
%TO.N,Net-(U1-EN)*%
X42750000Y-36250000D03*
%TO.N,+5V*%
X45500000Y-69500000D03*
X41500000Y-73000000D03*
%TO.N,GND*%
X33000000Y-36000000D03*
%TO.N,+3V3*%
X44000000Y-49500000D03*
%TO.N,/RXD*%
X40850000Y-47986244D03*
%TO.N,GND*%
X51899000Y-57000000D03*
%TO.N,+3V3*%
X45000000Y-64580000D03*
%TO.N,/TXD*%
X48000000Y-42000000D03*
%TO.N,+5V*%
X48500000Y-56000000D03*
%TO.N,Net-(J11-Pin_1)*%
X26000000Y-45500000D03*
%TO.N,Net-(J11-Pin_4)*%
X27745304Y-32920106D03*
%TO.N,Net-(J1-Pin_5)*%
X31500000Y-30500000D03*
%TO.N,Net-(J1-Pin_2)*%
X31500000Y-28500000D03*
%TO.N,+3V3*%
X32500000Y-23500000D03*
%TO.N,Net-(J5-Pin_3)*%
X31000000Y-36500000D03*
%TO.N,/TXD*%
X44650000Y-35500000D03*
%TO.N,/RXD*%
X44000000Y-34500000D03*
%TD*%
D30*
%TO.N,GND*%
X37995000Y-30330000D02*
X37995000Y-29630000D01*
X37295000Y-30330000D02*
X37995000Y-30330000D01*
X35195000Y-30330000D02*
X35895000Y-30330000D01*
X35195000Y-29630000D02*
X35195000Y-30330000D01*
X35895000Y-28930000D02*
X35895000Y-27530000D01*
X37295000Y-28930000D02*
X37295000Y-27530000D01*
X36595000Y-28230000D02*
X37995000Y-28230000D01*
X36595000Y-28230000D02*
X35195000Y-28230000D01*
X36595000Y-29630000D02*
X36595000Y-28230000D01*
X36595000Y-29630000D02*
X37995000Y-29630000D01*
X35195000Y-29630000D02*
X36595000Y-29630000D01*
X35895000Y-30330000D02*
X36595000Y-29630000D01*
X37295000Y-28930000D02*
X37995000Y-29630000D01*
X35195000Y-27530000D02*
X35195000Y-28230000D01*
X35195000Y-27530000D02*
X35895000Y-27530000D01*
X35195000Y-29630000D02*
X35195000Y-28230000D01*
X35195000Y-29630000D02*
X35895000Y-28930000D01*
X35895000Y-28930000D02*
X36595000Y-29630000D01*
X36595000Y-28230000D02*
X35895000Y-28930000D01*
X36595000Y-28230000D02*
X37295000Y-27530000D01*
X36595000Y-28230000D02*
X35895000Y-27530000D01*
X37295000Y-28930000D02*
X36595000Y-28230000D01*
X37295000Y-28930000D02*
X37995000Y-28230000D01*
X36595000Y-29630000D02*
X37295000Y-28930000D01*
X36595000Y-29630000D02*
X37295000Y-30330000D01*
X35895000Y-30330000D02*
X35195000Y-29630000D01*
X37295000Y-30330000D02*
X35895000Y-30330000D01*
X37995000Y-29630000D02*
X37295000Y-30330000D01*
X37995000Y-28230000D02*
X37995000Y-29630000D01*
X37995000Y-27530000D02*
X37995000Y-28230000D01*
X37295000Y-27530000D02*
X37995000Y-27530000D01*
X35895000Y-27530000D02*
X37295000Y-27530000D01*
X35195000Y-28230000D02*
X35895000Y-28930000D01*
X35895000Y-27530000D02*
X35195000Y-28230000D01*
%TO.N,/USB_D+*%
X42750000Y-71455000D02*
X42750000Y-72432000D01*
X42750000Y-72432000D02*
X42799000Y-72481000D01*
X42799000Y-72481000D02*
X43701000Y-72481000D01*
X43701000Y-72481000D02*
X43750000Y-72432000D01*
X43750000Y-72432000D02*
X43750000Y-71455000D01*
%TO.N,/USB_D-*%
X42250000Y-71455000D02*
X42250000Y-70478000D01*
X42250000Y-70478000D02*
X42299000Y-70429000D01*
X42299000Y-70429000D02*
X43201000Y-70429000D01*
X43201000Y-70429000D02*
X43250000Y-70478000D01*
X43250000Y-70478000D02*
X43250000Y-71455000D01*
%TO.N,GND*%
X47000000Y-74040000D02*
X47230000Y-74270000D01*
X39750000Y-71455000D02*
X39314000Y-71019000D01*
X38897215Y-74270000D02*
X47230000Y-74270000D01*
X39314000Y-71019000D02*
X38348215Y-71019000D01*
X38348215Y-71019000D02*
X37879000Y-71488215D01*
X37879000Y-71488215D02*
X37879000Y-73251785D01*
X37879000Y-73251785D02*
X38897215Y-74270000D01*
%TO.N,/CC2*%
X44750000Y-71455000D02*
X44750000Y-72504852D01*
%TO.N,+5V*%
X45214000Y-71691000D02*
X45450000Y-71455000D01*
%TO.N,/CC2*%
X44750000Y-72504852D02*
X44564000Y-72690852D01*
%TO.N,+5V*%
X41500000Y-73000000D02*
X41851000Y-73351000D01*
X41851000Y-73351000D02*
X44998943Y-73351000D01*
X44998943Y-73351000D02*
X45214000Y-73135943D01*
X45214000Y-73135943D02*
X45214000Y-71691000D01*
%TO.N,/RXD*%
X40850000Y-47986244D02*
X41576244Y-47986244D01*
X41576244Y-47986244D02*
X42050000Y-48460000D01*
%TO.N,/TXD*%
X35320000Y-50000000D02*
X33900000Y-51420000D01*
X38747760Y-50000000D02*
X35320000Y-50000000D01*
X42050000Y-47190000D02*
X40727005Y-47190000D01*
X40200000Y-47717005D02*
X40200000Y-48547760D01*
X40727005Y-47190000D02*
X40200000Y-47717005D01*
X40200000Y-48547760D02*
X38747760Y-50000000D01*
%TO.N,Net-(U1-EN)*%
X42750000Y-36250000D02*
X38000000Y-31500000D01*
%TO.N,+5V*%
X45450000Y-71455000D02*
X45450000Y-69550000D01*
X45450000Y-69550000D02*
X45500000Y-69500000D01*
X40550000Y-72232000D02*
X41318000Y-73000000D01*
X41318000Y-73000000D02*
X41500000Y-73000000D01*
%TO.N,GND*%
X51500000Y-50500000D02*
X51651000Y-50349000D01*
X51651000Y-45651000D02*
X50500000Y-44500000D01*
X51651000Y-50349000D02*
X51651000Y-45651000D01*
X32380000Y-39350000D02*
X32380000Y-36620000D01*
X32380000Y-36620000D02*
X33000000Y-36000000D01*
%TO.N,/CC2*%
X29101000Y-67268760D02*
X27071000Y-65238760D01*
X32721000Y-73721000D02*
X29101000Y-70101000D01*
X29101000Y-70101000D02*
X29101000Y-67268760D01*
X27071000Y-65238760D02*
X27071000Y-62851000D01*
X27071000Y-62851000D02*
X25800000Y-61580000D01*
%TO.N,/USB_D-*%
X40399000Y-52946001D02*
X40399000Y-68627000D01*
%TO.N,/CC1*%
X40500000Y-70000000D02*
X37500000Y-67000000D01*
X41750000Y-70478000D02*
X41272000Y-70000000D01*
%TO.N,/USB_D-*%
X41372000Y-69600000D02*
X41437686Y-69600000D01*
X42250000Y-70412314D02*
X42250000Y-71455000D01*
X40399000Y-68627000D02*
X41372000Y-69600000D01*
%TO.N,/CC1*%
X41750000Y-71455000D02*
X41750000Y-70478000D01*
X41272000Y-70000000D02*
X40500000Y-70000000D01*
%TO.N,/USB_D-*%
X41075001Y-52270000D02*
X40399000Y-52946001D01*
X41437686Y-69600000D02*
X42250000Y-70412314D01*
X42050000Y-52270000D02*
X41075001Y-52270000D01*
%TO.N,/CC1*%
X37500000Y-67000000D02*
X30500000Y-67000000D01*
X29850000Y-66350000D02*
X29850000Y-61580000D01*
X30500000Y-67000000D02*
X29850000Y-66350000D01*
%TO.N,/TXD*%
X45000000Y-35150000D02*
X44650000Y-35500000D01*
X45000000Y-27000000D02*
X45000000Y-35150000D01*
X46845000Y-26670000D02*
X45330000Y-26670000D01*
X45330000Y-26670000D02*
X45000000Y-27000000D01*
%TO.N,GND*%
X51725000Y-55500000D02*
X51725000Y-55775000D01*
X51725000Y-55775000D02*
X51899000Y-55949000D01*
X51899000Y-55949000D02*
X51899000Y-57000000D01*
%TO.N,+3V3*%
X50500000Y-64840000D02*
X51899000Y-63441000D01*
X51899000Y-63441000D02*
X51899000Y-59899000D01*
X51899000Y-59899000D02*
X50500000Y-58500000D01*
X50500000Y-58500000D02*
X50500000Y-56000000D01*
X50500000Y-56000000D02*
X50000000Y-55500000D01*
%TO.N,/DTR*%
X50500000Y-61500000D02*
X49000000Y-63000000D01*
X44399000Y-62899000D02*
X44399000Y-57601000D01*
X49000000Y-63000000D02*
X44500000Y-63000000D01*
X44500000Y-63000000D02*
X44399000Y-62899000D01*
X44399000Y-57601000D02*
X45500000Y-56500000D01*
%TO.N,+3V3*%
X45000000Y-64580000D02*
X45420000Y-64580000D01*
X45420000Y-64580000D02*
X45680000Y-64840000D01*
X45680000Y-64840000D02*
X50500000Y-64840000D01*
X45000000Y-64580000D02*
X45000000Y-65575000D01*
X45000000Y-65575000D02*
X45550000Y-66125000D01*
X33900000Y-61580000D02*
X37950000Y-61580000D01*
%TO.N,/TXD*%
X47500000Y-43000000D02*
X47500000Y-42500000D01*
X47500000Y-42500000D02*
X48000000Y-42000000D01*
%TO.N,GND*%
X42050000Y-45920000D02*
X38660000Y-45920000D01*
X38660000Y-45920000D02*
X36080000Y-48500000D01*
X29850000Y-51420000D02*
X30951000Y-50319000D01*
X34261000Y-50319000D02*
X36080000Y-48500000D01*
X30951000Y-50319000D02*
X34261000Y-50319000D01*
X25800000Y-51420000D02*
X29850000Y-51420000D01*
X25800000Y-51420000D02*
X25800000Y-48620000D01*
X25800000Y-48620000D02*
X25920000Y-48500000D01*
%TO.N,+5V*%
X40550000Y-71455000D02*
X40550000Y-72232000D01*
%TO.N,unconnected-(J13-SHIELD-PadS1)_1*%
X47320000Y-72370000D02*
X47370000Y-72370000D01*
X47370000Y-72370000D02*
X47500000Y-72500000D01*
%TO.N,GND*%
X47230000Y-74270000D02*
X50500000Y-77540000D01*
X47000000Y-73721000D02*
X47000000Y-74040000D01*
X47651785Y-71019000D02*
X47816392Y-71183608D01*
X47816392Y-71183608D02*
X49236392Y-71183608D01*
X49236392Y-71183608D02*
X50500000Y-69920000D01*
X46250000Y-71455000D02*
X46250000Y-70750000D01*
X46250000Y-70750000D02*
X47450000Y-69550000D01*
X47450000Y-69550000D02*
X47450000Y-66125000D01*
X48121000Y-71488215D02*
X47651785Y-71019000D01*
X47000000Y-73721000D02*
X47651785Y-73721000D01*
X47651785Y-73721000D02*
X48121000Y-73251785D01*
X47651785Y-71019000D02*
X46686000Y-71019000D01*
X48121000Y-73251785D02*
X48121000Y-71488215D01*
X46686000Y-71019000D02*
X46250000Y-71455000D01*
X42050000Y-45920000D02*
X42620000Y-45350000D01*
X42620000Y-45350000D02*
X42620000Y-43000000D01*
%TO.N,+3V3*%
X42050000Y-49730000D02*
X43770000Y-49730000D01*
X43770000Y-49730000D02*
X44000000Y-49500000D01*
%TO.N,+5V*%
X49775000Y-53010000D02*
X48500000Y-54285000D01*
X48500000Y-54285000D02*
X48500000Y-56000000D01*
%TO.N,+3V3*%
X50500000Y-47040000D02*
X50613500Y-47153500D01*
X50613500Y-47153500D02*
X50613500Y-54886500D01*
X50613500Y-54886500D02*
X50000000Y-55500000D01*
%TO.N,+5V*%
X49775000Y-53010000D02*
X49775000Y-50500000D01*
%TO.N,GND*%
X51500000Y-50500000D02*
X51500000Y-53010000D01*
X51725000Y-55500000D02*
X51725000Y-53235000D01*
X51725000Y-53235000D02*
X51500000Y-53010000D01*
%TO.N,+5V*%
X49775000Y-50500000D02*
X48276000Y-49001000D01*
X48276000Y-49001000D02*
X48276000Y-46221001D01*
X47974999Y-45920000D02*
X47000000Y-45920000D01*
X48276000Y-46221001D02*
X47974999Y-45920000D01*
%TO.N,/DTR*%
X47000000Y-49730000D02*
X46025001Y-49730000D01*
X45500000Y-50255001D02*
X45500000Y-56500000D01*
X46025001Y-49730000D02*
X45500000Y-50255001D01*
%TO.N,/USB_D+*%
X42050000Y-51000000D02*
X43024999Y-51000000D01*
X43024999Y-51000000D02*
X43750000Y-51725001D01*
X43750000Y-51725001D02*
X43750000Y-71455000D01*
%TO.N,/TXD*%
X42050000Y-47190000D02*
X43310000Y-47190000D01*
X43310000Y-47190000D02*
X47500000Y-43000000D01*
%TO.N,+5V*%
X47000000Y-45920000D02*
X50500000Y-42420000D01*
X50500000Y-42420000D02*
X50500000Y-41960000D01*
%TO.N,Net-(J11-Pin_4)*%
X27050000Y-21800000D02*
X27745304Y-22495304D01*
%TO.N,Net-(J11-Pin_1)*%
X27170608Y-32456368D02*
X27015410Y-32611565D01*
%TO.N,Net-(J11-Pin_4)*%
X27745304Y-22495304D02*
X27745304Y-32920106D01*
X26000000Y-21800000D02*
X27050000Y-21800000D01*
%TO.N,Net-(J11-Pin_1)*%
X27170608Y-30590608D02*
X27170608Y-32456368D01*
X27447909Y-33541950D02*
X27447909Y-44052091D01*
X26000000Y-29420000D02*
X27170608Y-30590608D01*
X27015410Y-32611565D02*
X27015410Y-33109451D01*
X27015410Y-33109451D02*
X27447909Y-33541950D01*
X27447909Y-44052091D02*
X26000000Y-45500000D01*
%TO.N,Net-(J5-Pin_4)*%
X33540000Y-48500000D02*
X32389000Y-49651000D01*
X27983240Y-49651000D02*
X27309000Y-48976760D01*
X27309000Y-47691000D02*
X27892000Y-47108000D01*
X32389000Y-49651000D02*
X27983240Y-49651000D01*
X28395000Y-34290000D02*
X29345000Y-34290000D01*
X27309000Y-48976760D02*
X27309000Y-47691000D01*
X27892000Y-47108000D02*
X27892000Y-34793000D01*
X27892000Y-34793000D02*
X28395000Y-34290000D01*
%TO.N,Net-(J11-Pin_1)*%
X26000000Y-29420000D02*
X27151000Y-28269000D01*
X27151000Y-28269000D02*
X27151000Y-25491000D01*
X27151000Y-25491000D02*
X26000000Y-24340000D01*
%TO.N,Net-(J11-Pin_3)*%
X26000000Y-26880000D02*
X24699000Y-28181000D01*
X24699000Y-28181000D02*
X24699000Y-53199000D01*
X24699000Y-53199000D02*
X31500000Y-60000000D01*
X31500000Y-60000000D02*
X31000000Y-60500000D01*
X31000000Y-60500000D02*
X31000000Y-65000000D01*
%TO.N,Net-(J11-Pin_1)*%
X26000000Y-29420000D02*
X26080000Y-29500000D01*
%TO.N,/RXD*%
X37950000Y-51420000D02*
X40910000Y-48460000D01*
X40910000Y-48460000D02*
X42050000Y-48460000D01*
%TO.N,GND*%
X29345000Y-21590000D02*
X33590000Y-21590000D01*
X33590000Y-21590000D02*
X35500000Y-23500000D01*
X35500000Y-23500000D02*
X35195000Y-23805000D01*
X35195000Y-23805000D02*
X35195000Y-27530000D01*
%TO.N,+3V3*%
X29345000Y-22860000D02*
X31860000Y-22860000D01*
X31860000Y-22860000D02*
X32500000Y-23500000D01*
%TO.N,Net-(J1-Pin_2)*%
X29345000Y-27940000D02*
X30940000Y-27940000D01*
X30940000Y-27940000D02*
X31500000Y-28500000D01*
%TO.N,Net-(J1-Pin_5)*%
X29345000Y-29210000D02*
X30295000Y-29210000D01*
X30295000Y-29210000D02*
X31500000Y-30415000D01*
X31500000Y-30415000D02*
X31500000Y-30500000D01*
%TO.N,Net-(J5-Pin_3)*%
X29345000Y-33020000D02*
X29877000Y-33020000D01*
X29877000Y-33020000D02*
X31000000Y-34143000D01*
X31000000Y-34143000D02*
X31000000Y-36500000D01*
%TO.N,Net-(J5-Pin_2)*%
X28500000Y-39000000D02*
X28460000Y-39040000D01*
X28460000Y-39040000D02*
X28460000Y-48500000D01*
X29345000Y-35560000D02*
X28813000Y-35560000D01*
X28294000Y-38794000D02*
X28500000Y-39000000D01*
X28813000Y-35560000D02*
X28294000Y-36079000D01*
X28294000Y-36079000D02*
X28294000Y-38794000D01*
%TO.N,Net-(J7-Pin_1)*%
X29920000Y-44050000D02*
X29920000Y-43000000D01*
X32936760Y-44151000D02*
X30021000Y-44151000D01*
%TO.N,Net-(J7-Pin_2)*%
X30396000Y-37349000D02*
X30396000Y-40936000D01*
%TO.N,Net-(J7-Pin_1)*%
X30021000Y-44151000D02*
X29920000Y-44050000D01*
X33650000Y-43437760D02*
X32936760Y-44151000D01*
X33650000Y-39350000D02*
X33650000Y-43437760D01*
%TO.N,Net-(J7-Pin_2)*%
X29345000Y-36830000D02*
X29877000Y-36830000D01*
X29877000Y-36830000D02*
X30396000Y-37349000D01*
X30396000Y-40936000D02*
X32460000Y-43000000D01*
%TO.N,Net-(J7-Pin_3)*%
X42540000Y-39350000D02*
X42540000Y-39865760D01*
X42540000Y-39865760D02*
X40556760Y-41849000D01*
X40556760Y-41849000D02*
X36151000Y-41849000D01*
X36151000Y-41849000D02*
X35000000Y-43000000D01*
%TO.N,GND*%
X37995000Y-27530000D02*
X43935000Y-21590000D01*
X43935000Y-21590000D02*
X46845000Y-21590000D01*
%TO.N,Net-(U1-EN)*%
X46845000Y-38100000D02*
X44600000Y-38100000D01*
X44600000Y-38100000D02*
X42750000Y-36250000D01*
X38000000Y-31500000D02*
X34500000Y-31500000D01*
X34000000Y-31000000D02*
X34000000Y-27000000D01*
X34500000Y-31500000D02*
X34000000Y-31000000D01*
X34000000Y-27000000D02*
X31130000Y-24130000D01*
X31130000Y-24130000D02*
X29345000Y-24130000D01*
%TO.N,/RXD*%
X44500000Y-34500000D02*
X44000000Y-34500000D01*
X44500000Y-26000000D02*
X44500000Y-34500000D01*
X46845000Y-25400000D02*
X45100000Y-25400000D01*
X45100000Y-25400000D02*
X44500000Y-26000000D01*
%TO.N,GND*%
X46845000Y-21590000D02*
X50210000Y-21590000D01*
X50210000Y-21590000D02*
X50500000Y-21880000D01*
%TO.N,Net-(J8-Pin_5)*%
X46845000Y-24130000D02*
X50210000Y-24130000D01*
X50210000Y-24130000D02*
X50500000Y-24420000D01*
%TO.N,Net-(J8-Pin_4)*%
X46845000Y-27940000D02*
X49520000Y-27940000D01*
X49520000Y-27940000D02*
X50500000Y-26960000D01*
%TO.N,Net-(J8-Pin_3)*%
X46845000Y-30480000D02*
X49520000Y-30480000D01*
X49520000Y-30480000D02*
X50500000Y-29500000D01*
%TO.N,Net-(J8-Pin_2)*%
X46845000Y-31750000D02*
X50210000Y-31750000D01*
X50210000Y-31750000D02*
X50500000Y-32040000D01*
%TO.N,Net-(J8-Pin_1)*%
X46845000Y-33020000D02*
X48940000Y-33020000D01*
X48940000Y-33020000D02*
X50500000Y-34580000D01*
%TD*%
M02*
