M48
; DRILL file {KiCad 9.0.7} date 2026-02-14T01:28:19+0100
; FORMAT={-:-/ absolute / metric / decimal}
; #@! TF.CreationDate,2026-02-14T01:28:19+01:00
; #@! TF.GenerationSoftware,Kicad,Pcbnew,9.0.7
; #@! TF.FileFunction,Plated,1,4,PTH
FMAT,2
METRIC
; #@! TA.AperFunction,Plated,PTH,ComponentDrill
T1C0.200
; #@! TA.AperFunction,Plated,PTH,ViaDrill
T2C0.300
; #@! TA.AperFunction,Plated,PTH,ComponentDrill
T3C0.400
; #@! TA.AperFunction,Plated,PTH,ComponentDrill
T4C0.700
; #@! TA.AperFunction,Plated,PTH,ComponentDrill
T5C0.800
; #@! TA.AperFunction,Plated,PTH,ComponentDrill
T6C1.000
%
G90
G05
T1
X108.94Y-49.73
X108.94Y-51.13
X109.64Y-49.03
X109.64Y-50.43
X109.64Y-51.83
X110.34Y-49.73
X110.34Y-51.13
X111.04Y-49.03
X111.04Y-50.43
X111.04Y-51.83
X111.74Y-49.73
X111.74Y-51.13
T2
X104.35Y-57.614
X105.0Y-55.0
X105.914Y-51.98
X106.0Y-49.5
X106.01Y-50.85
X106.5Y-59.0
X107.0Y-47.5
X109.0Y-54.0
X109.0Y-57.0
X115.619Y-56.5
X117.0Y-45.0
X117.5Y-62.5
T4
X101.19Y-74.5
X108.81Y-74.5
T5
X116.0Y-68.5
X116.0Y-73.5
X120.0Y-82.5
X120.0Y-92.5
T6
X99.5Y-43.3
X99.5Y-45.84
X99.5Y-48.38
X99.5Y-50.92
X99.5Y-53.46
X99.5Y-56.0
X99.5Y-58.54
X99.5Y-61.08
X99.5Y-63.62
X99.5Y-82.5
X99.5Y-87.09
X99.5Y-91.68
X99.65Y-70.5
X100.3Y-78.5
X102.04Y-82.5
X102.04Y-87.09
X102.04Y-91.68
X102.19Y-70.5
X102.84Y-78.5
X103.42Y-65.0
X104.73Y-70.5
X105.38Y-78.5
X105.96Y-65.0
X107.27Y-70.5
X107.92Y-78.5
X108.5Y-65.0
X109.81Y-70.5
X110.46Y-78.5
X111.04Y-65.0
X112.35Y-70.5
X113.0Y-78.5
X113.58Y-65.0
X116.12Y-65.0
X120.0Y-64.42
X120.0Y-66.96
X120.0Y-69.5
X120.0Y-72.04
X120.0Y-74.58
X120.0Y-77.12
X120.0Y-79.66
X124.0Y-43.15
X124.0Y-45.69
X124.0Y-48.23
X124.0Y-50.77
X124.0Y-53.31
X124.0Y-55.85
X124.0Y-59.92
X124.0Y-62.46
X124.0Y-65.0
X124.0Y-67.54
X124.0Y-70.08
X124.0Y-72.62
X124.0Y-75.16
X124.0Y-80.88
X124.0Y-83.42
X124.0Y-85.96
X124.0Y-88.5
X124.0Y-91.04
T3
G00X106.0Y-83.0
M15
G01X106.0Y-84.0
M16
G05
G00X110.5Y-88.5
M15
G01X111.5Y-88.5
M16
G05
G00X116.0Y-84.0
M15
G01X116.0Y-83.0
M16
G05
T5
G00X108.5Y-83.15
M15
G01X108.5Y-83.85
M16
G05
G00X113.5Y-83.85
M15
G01X113.5Y-83.15
M16
G05
M30
