%TF.GenerationSoftware,KiCad,Pcbnew,9.0.7*%
%TF.CreationDate,2026-02-15T17:10:50+01:00*%
%TF.ProjectId,CatPhonesV2,43617450-686f-46e6-9573-56322e6b6963,rev?*%
%TF.SameCoordinates,Original*%
%TF.FileFunction,Paste,Top*%
%TF.FilePolarity,Positive*%
%FSLAX46Y46*%
G04 Gerber Fmt 4.6, Leading zero omitted, Abs format (unit mm)*
G04 Created by KiCad (PCBNEW 9.0.7) date 2026-02-15 17:10:50*
%MOMM*%
%LPD*%
G01*
G04 APERTURE LIST*
G04 Aperture macros list*
%AMRoundRect*
0 Rectangle with rounded corners*
0 $1 Rounding radius*
0 $2 $3 $4 $5 $6 $7 $8 $9 X,Y pos of 4 corners*
0 Add a 4 corners polygon primitive as box body*
4,1,4,$2,$3,$4,$5,$6,$7,$8,$9,$2,$3,0*
0 Add four circle primitives for the rounded corners*
1,1,$1+$1,$2,$3*
1,1,$1+$1,$4,$5*
1,1,$1+$1,$6,$7*
1,1,$1+$1,$8,$9*
0 Add four rect primitives between the rounded corners*
20,1,$1+$1,$2,$3,$4,$5,0*
20,1,$1+$1,$4,$5,$6,$7,0*
20,1,$1+$1,$6,$7,$8,$9,0*
20,1,$1+$1,$8,$9,$2,$3,0*%
G04 Aperture macros list end*
%ADD10R,0.600000X1.450000*%
%ADD11R,0.300000X1.450000*%
%ADD12RoundRect,0.150000X-0.825000X-0.150000X0.825000X-0.150000X0.825000X0.150000X-0.825000X0.150000X0*%
%ADD13RoundRect,0.150000X-0.150000X0.587500X-0.150000X-0.587500X0.150000X-0.587500X0.150000X0.587500X0*%
%ADD14R,1.500000X0.900000*%
%ADD15R,0.900000X1.500000*%
%ADD16R,0.900000X0.900000*%
%ADD17RoundRect,0.237500X-0.300000X-0.237500X0.300000X-0.237500X0.300000X0.237500X-0.300000X0.237500X0*%
G04 APERTURE END LIST*
D10*
%TO.C,J13*%
X39750000Y-71455000D03*
X40550000Y-71455000D03*
D11*
X41250000Y-71455000D03*
X42250000Y-71455000D03*
X43750000Y-71455000D03*
X44750000Y-71455000D03*
D10*
X45450000Y-71455000D03*
X46250000Y-71455000D03*
X46250000Y-71455000D03*
X45450000Y-71455000D03*
D11*
X44250000Y-71455000D03*
X43250000Y-71455000D03*
X42750000Y-71455000D03*
X41750000Y-71455000D03*
D10*
X40550000Y-71455000D03*
X39750000Y-71455000D03*
%TD*%
D12*
%TO.C,U2*%
X47000000Y-45920000D03*
X47000000Y-47190000D03*
X47000000Y-48460000D03*
X47000000Y-49730000D03*
X47000000Y-51000000D03*
X47000000Y-52270000D03*
X47000000Y-53540000D03*
X47000000Y-54810000D03*
X42050000Y-54810000D03*
X42050000Y-53540000D03*
X42050000Y-52270000D03*
X42050000Y-51000000D03*
X42050000Y-49730000D03*
X42050000Y-48460000D03*
X42050000Y-47190000D03*
X42050000Y-45920000D03*
%TD*%
D13*
%TO.C,U3*%
X47450000Y-66125000D03*
X45550000Y-66125000D03*
X46500000Y-68000000D03*
%TD*%
D14*
%TO.C,U1*%
X29345000Y-21590000D03*
X29345000Y-22860000D03*
X29345000Y-24130000D03*
X29345000Y-25400000D03*
X29345000Y-26670000D03*
X29345000Y-27940000D03*
X29345000Y-29210000D03*
X29345000Y-30480000D03*
X29345000Y-31750000D03*
X29345000Y-33020000D03*
X29345000Y-34290000D03*
X29345000Y-35560000D03*
X29345000Y-36830000D03*
X29345000Y-38100000D03*
D15*
X32380000Y-39350000D03*
X33650000Y-39350000D03*
X34920000Y-39350000D03*
X36190000Y-39350000D03*
X37460000Y-39350000D03*
X38730000Y-39350000D03*
X40000000Y-39350000D03*
X41270000Y-39350000D03*
X42540000Y-39350000D03*
X43810000Y-39350000D03*
D14*
X46845000Y-38100000D03*
X46845000Y-36830000D03*
X46845000Y-35560000D03*
X46845000Y-34290000D03*
X46845000Y-33020000D03*
X46845000Y-31750000D03*
X46845000Y-30480000D03*
X46845000Y-29210000D03*
X46845000Y-27940000D03*
X46845000Y-26670000D03*
X46845000Y-25400000D03*
X46845000Y-24130000D03*
X46845000Y-22860000D03*
X46845000Y-21590000D03*
D16*
X35195000Y-27530000D03*
X35195000Y-28930000D03*
X35195000Y-30330000D03*
X36595000Y-27530000D03*
X36595000Y-28930000D03*
X36595000Y-30330000D03*
X37995000Y-27530000D03*
X37995000Y-28930000D03*
X37995000Y-30330000D03*
%TD*%
D17*
%TO.C,C5*%
X49775000Y-53010000D03*
X51500000Y-53010000D03*
%TD*%
%TO.C,C4*%
X49775000Y-50500000D03*
X51500000Y-50500000D03*
%TD*%
%TO.C,C3*%
X49637500Y-55500000D03*
X51362500Y-55500000D03*
%TD*%
M02*
