%TF.GenerationSoftware,KiCad,Pcbnew,9.0.7*%
%TF.CreationDate,2026-02-17T08:12:27+01:00*%
%TF.ProjectId,CatPhonesV2,43617450-686f-46e6-9573-56322e6b6963,rev?*%
%TF.SameCoordinates,Original*%
%TF.FileFunction,Copper,L2,Inr*%
%TF.FilePolarity,Positive*%
%FSLAX46Y46*%
G04 Gerber Fmt 4.6, Leading zero omitted, Abs format (unit mm)*
G04 Created by KiCad (PCBNEW 9.0.7) date 2026-02-17 08:12:27*
%MOMM*%
%LPD*%
G01*
G04 APERTURE LIST*
%TA.AperFunction,ComponentPad*%
%ADD10C,1.600000*%
%TD*%
%TA.AperFunction,ComponentPad*%
%ADD11C,1.700000*%
%TD*%
%TA.AperFunction,ComponentPad*%
%ADD12R,1.700000X1.700000*%
%TD*%
%TA.AperFunction,HeatsinkPad*%
%ADD13C,0.600000*%
%TD*%
%TA.AperFunction,HeatsinkPad*%
%ADD14O,1.000000X1.600000*%
%TD*%
%TA.AperFunction,HeatsinkPad*%
%ADD15O,1.000000X2.100000*%
%TD*%
%TA.AperFunction,ViaPad*%
%ADD16C,0.600000*%
%TD*%
%TA.AperFunction,Conductor*%
%ADD17C,0.200000*%
%TD*%
G04 APERTURE END LIST*
D10*
%TO.N,/CC1*%
%TO.C,R2*%
X30500000Y-64310000D03*
%TO.N,GND*%
X30500000Y-56690000D03*
%TD*%
%TO.N,/CC2*%
%TO.C,R1*%
X30920000Y-47500000D03*
%TO.N,GND*%
X41080000Y-47500000D03*
%TD*%
%TO.N,+3V3*%
%TO.C,R5*%
X41080000Y-50500000D03*
%TO.N,Net-(U1-EN)*%
X30920000Y-50500000D03*
%TD*%
D11*
%TO.N,GND*%
%TO.C,J1*%
X27500000Y-49880000D03*
%TO.N,Net-(J1-Pin_5)*%
X27500000Y-52420000D03*
%TO.N,+3V3*%
X27500000Y-54960000D03*
%TO.N,GND*%
X27500000Y-57500000D03*
%TO.N,Net-(J1-Pin_2)*%
X27500000Y-60040000D03*
D12*
%TO.N,+3V3*%
X27500000Y-62580000D03*
%TD*%
D11*
%TO.N,GND*%
%TO.C,J10*%
X43960000Y-52000000D03*
%TO.N,+5V*%
X46500000Y-52000000D03*
%TO.N,GND*%
X49040000Y-52000000D03*
D12*
%TO.N,VCC*%
X51580000Y-52000000D03*
%TD*%
D10*
%TO.N,+3V3*%
%TO.C,R4*%
X41160000Y-53500000D03*
%TO.N,/RXD*%
X31000000Y-53500000D03*
%TD*%
%TO.N,/TXD*%
%TO.C,R3*%
X50500000Y-65080000D03*
%TO.N,+3V3*%
X50500000Y-54920000D03*
%TD*%
D13*
%TO.N,GND*%
%TO.C,U1*%
X38150000Y-25800000D03*
X38150000Y-24400000D03*
X37450000Y-26500000D03*
X37450000Y-25100000D03*
X37450000Y-23700000D03*
X36750000Y-25800000D03*
X36750000Y-24400000D03*
X36050000Y-26500000D03*
X36050000Y-25100000D03*
X36050000Y-23700000D03*
X35350000Y-25800000D03*
X35350000Y-24400000D03*
%TD*%
D11*
%TO.N,Net-(J11-Pin_1)*%
%TO.C,J11*%
X47000000Y-65080000D03*
%TO.N,Net-(J11-Pin_4)*%
X47000000Y-62540000D03*
%TO.N,Net-(J11-Pin_3)*%
X47000000Y-60000000D03*
%TO.N,Net-(J11-Pin_1)*%
X47000000Y-57460000D03*
D12*
X47000000Y-54920000D03*
%TD*%
D14*
%TO.N,unconnected-(J13-SHIELD-PadS1)*%
%TO.C,J13*%
X41820000Y-65050000D03*
D15*
%TO.N,unconnected-(J13-SHIELD-PadS1)_3*%
X41820000Y-60870000D03*
D14*
%TO.N,unconnected-(J13-SHIELD-PadS1)_1*%
X33180000Y-65050000D03*
D15*
%TO.N,unconnected-(J13-SHIELD-PadS1)_2*%
X33180000Y-60870000D03*
%TD*%
D12*
%TO.N,Net-(J11-Pin_4)*%
%TO.C,J12*%
X26500000Y-17680000D03*
D11*
%TO.N,Net-(J11-Pin_1)*%
X26500000Y-20220000D03*
%TO.N,Net-(J11-Pin_3)*%
X26500000Y-22760000D03*
%TO.N,Net-(J11-Pin_1)*%
X26500000Y-25300000D03*
%TO.N,unconnected-(J12-Pin_5-Pad5)*%
X26500000Y-27840000D03*
%TO.N,unconnected-(J12-Pin_6-Pad6)*%
X26500000Y-30380000D03*
%TO.N,unconnected-(J12-Pin_7-Pad7)*%
X26500000Y-32920000D03*
%TO.N,unconnected-(J12-Pin_8-Pad8)*%
X26500000Y-35460000D03*
%TO.N,unconnected-(J12-Pin_9-Pad9)*%
X26500000Y-38000000D03*
%TD*%
D12*
%TO.N,Net-(J8-Pin_1)*%
%TO.C,J8*%
X50000000Y-30580000D03*
D11*
%TO.N,Net-(J8-Pin_2)*%
X50000000Y-28040000D03*
%TO.N,Net-(J8-Pin_3)*%
X50000000Y-25500000D03*
%TO.N,Net-(J8-Pin_4)*%
X50000000Y-22960000D03*
%TO.N,Net-(J8-Pin_5)*%
X50000000Y-20420000D03*
%TO.N,GND*%
X50000000Y-17880000D03*
%TD*%
D12*
%TO.N,Net-(J7-Pin_1)*%
%TO.C,J7*%
X30380000Y-38500000D03*
D11*
%TO.N,Net-(J7-Pin_2)*%
X32920000Y-38500000D03*
%TO.N,Net-(J7-Pin_3)*%
X35460000Y-38500000D03*
%TO.N,unconnected-(J7-Pin_4-Pad4)*%
X38000000Y-38500000D03*
%TO.N,unconnected-(J7-Pin_5-Pad5)*%
X40540000Y-38500000D03*
%TO.N,GND*%
X43080000Y-38500000D03*
%TO.N,+3V3*%
X45620000Y-38500000D03*
%TD*%
D12*
%TO.N,GND*%
%TO.C,J5*%
X26420000Y-44500000D03*
D11*
%TO.N,Net-(J5-Pin_2)*%
X28960000Y-44500000D03*
%TO.N,Net-(J5-Pin_3)*%
X31500000Y-44500000D03*
%TO.N,Net-(J5-Pin_4)*%
X34040000Y-44500000D03*
%TO.N,GND*%
X36580000Y-44500000D03*
%TO.N,+3V3*%
X39120000Y-44500000D03*
%TD*%
D10*
%TO.N,+5V*%
%TO.C,C8*%
X28500000Y-41500000D03*
%TO.N,GND*%
X33500000Y-41500000D03*
%TD*%
%TO.N,/DTR*%
%TO.C,C7*%
X36000000Y-41500000D03*
%TO.N,Net-(U1-EN)*%
X41000000Y-41500000D03*
%TD*%
%TO.N,+3V3*%
%TO.C,C5*%
X50000000Y-33500000D03*
%TO.N,GND*%
X50000000Y-38500000D03*
%TD*%
D16*
%TO.N,GND*%
X32500000Y-33500000D03*
%TO.N,+5V*%
X47000000Y-42000000D03*
%TO.N,/DTR*%
X46223290Y-43557083D03*
%TO.N,+5V*%
X26000000Y-54000000D03*
X42498998Y-56385545D03*
%TO.N,GND*%
X50000000Y-43500000D03*
%TO.N,Net-(U1-EN)*%
X39500000Y-41000000D03*
%TO.N,Net-(J11-Pin_4)*%
X48500000Y-32000000D03*
X45000000Y-32000000D03*
%TO.N,Net-(U2-UD-)*%
X42000000Y-49000000D03*
%TO.N,Net-(U2-UD+)*%
X45000000Y-46000000D03*
%TO.N,/TXD*%
X46000000Y-41500000D03*
%TO.N,+3V3*%
X27500000Y-40000000D03*
%TO.N,/RXD*%
X41500000Y-43500000D03*
%TO.N,+5V*%
X33500000Y-57500000D03*
%TO.N,Net-(U2-UD-)*%
X36500000Y-58000000D03*
%TO.N,Net-(U2-UD+)*%
X38500000Y-58500000D03*
%TO.N,GND*%
X42000000Y-59000000D03*
%TO.N,/RXD*%
X44000000Y-24000000D03*
%TO.N,/TXD*%
X45500000Y-24000000D03*
%TO.N,Net-(J5-Pin_4)*%
X33000000Y-30500000D03*
%TO.N,GND*%
X36050000Y-30950000D03*
%TO.N,+3V3*%
X31970000Y-19030000D03*
%TO.N,Net-(J1-Pin_2)*%
X32000000Y-24500000D03*
%TO.N,Net-(J1-Pin_5)*%
X31500000Y-25500000D03*
%TO.N,Net-(J5-Pin_3)*%
X32000000Y-29500000D03*
%TO.N,+3V3*%
X50000000Y-41500000D03*
%TO.N,GND*%
X51301000Y-45500000D03*
X51000000Y-47500000D03*
%TO.N,+3V3*%
X51650000Y-49872519D03*
%TD*%
D17*
%TO.N,GND*%
X33500000Y-41500000D02*
X31769000Y-39769000D01*
X31769000Y-39769000D02*
X31769000Y-34231000D01*
X31769000Y-34231000D02*
X32500000Y-33500000D01*
%TO.N,+3V3*%
X45620000Y-38500000D02*
X48620000Y-41500000D01*
X48620000Y-41500000D02*
X50000000Y-41500000D01*
%TO.N,+5V*%
X47000000Y-47000000D02*
X47000000Y-42000000D01*
X46500000Y-52000000D02*
X46500000Y-47500000D01*
X46500000Y-47500000D02*
X47000000Y-47000000D01*
%TO.N,GND*%
X43960000Y-52000000D02*
X43960000Y-54182000D01*
X45849000Y-56071000D02*
X48151000Y-56071000D01*
X49040000Y-55182000D02*
X49040000Y-52000000D01*
X43960000Y-54182000D02*
X45849000Y-56071000D01*
X48151000Y-56071000D02*
X49040000Y-55182000D01*
X43960000Y-52000000D02*
X43500000Y-51540000D01*
X43500000Y-51540000D02*
X43500000Y-48000000D01*
X43500000Y-48000000D02*
X43000000Y-47500000D01*
X43000000Y-47500000D02*
X41080000Y-47500000D01*
%TO.N,+3V3*%
X27500000Y-54960000D02*
X31540000Y-54960000D01*
X31540000Y-54960000D02*
X36000000Y-50500000D01*
X36000000Y-50500000D02*
X41080000Y-50500000D01*
%TO.N,GND*%
X42000000Y-59000000D02*
X40142951Y-59000000D01*
X40142951Y-59000000D02*
X37832951Y-56690000D01*
X37832951Y-56690000D02*
X30500000Y-56690000D01*
X41080000Y-47500000D02*
X39580000Y-47500000D01*
X39580000Y-47500000D02*
X36580000Y-44500000D01*
%TO.N,Net-(J11-Pin_4)*%
X45000000Y-32000000D02*
X48500000Y-32000000D01*
%TO.N,Net-(J11-Pin_3)*%
X26500000Y-22760000D02*
X25000000Y-24260000D01*
X29500000Y-63000000D02*
X44000000Y-63000000D01*
X25000000Y-24260000D02*
X25000000Y-63500000D01*
X25000000Y-63500000D02*
X27000000Y-65500000D01*
X27000000Y-65500000D02*
X29500000Y-63000000D01*
X44000000Y-63000000D02*
X47000000Y-60000000D01*
%TO.N,Net-(J11-Pin_1)*%
X26500000Y-25300000D02*
X34309000Y-33109000D01*
X34309000Y-33109000D02*
X34309000Y-38976760D01*
X34309000Y-38976760D02*
X35332240Y-40000000D01*
X35332240Y-40000000D02*
X36247760Y-40000000D01*
X45111000Y-48863240D02*
X45111000Y-53031000D01*
X36247760Y-40000000D02*
X45111000Y-48863240D01*
X45111000Y-53031000D02*
X47000000Y-54920000D01*
%TO.N,/RXD*%
X44000000Y-24000000D02*
X44231000Y-24231000D01*
X44231000Y-24231000D02*
X44231000Y-40769000D01*
X44231000Y-40769000D02*
X41500000Y-43500000D01*
%TD*%
M02*
