M48
; DRILL file {KiCad 9.0.7} date 2026-02-17T08:12:44+0100
; FORMAT={-:-/ absolute / metric / decimal}
; #@! TF.CreationDate,2026-02-17T08:12:44+01:00
; #@! TF.GenerationSoftware,Kicad,Pcbnew,9.0.7
; #@! TF.FileFunction,Plated,1,4,PTH
FMAT,2
METRIC
; #@! TA.AperFunction,Plated,PTH,ComponentDrill
T1C0.200
; #@! TA.AperFunction,Plated,PTH,ViaDrill
T2C0.300
; #@! TA.AperFunction,Plated,PTH,ComponentDrill
T3C0.600
; #@! TA.AperFunction,Plated,PTH,ComponentDrill
T4C0.800
; #@! TA.AperFunction,Plated,PTH,ComponentDrill
T5C1.000
%
G90
G05
T1
X35.35Y-24.4
X35.35Y-25.8
X36.05Y-23.7
X36.05Y-25.1
X36.05Y-26.5
X36.75Y-24.4
X36.75Y-25.8
X37.45Y-23.7
X37.45Y-25.1
X37.45Y-26.5
X38.15Y-24.4
X38.15Y-25.8
T2
X26.0Y-54.0
X27.5Y-40.0
X31.5Y-25.5
X31.97Y-19.03
X32.0Y-24.5
X32.0Y-29.5
X32.5Y-33.5
X33.0Y-30.5
X33.5Y-57.5
X36.05Y-30.95
X36.5Y-58.0
X38.5Y-58.5
X39.5Y-41.0
X41.5Y-43.5
X42.0Y-49.0
X42.0Y-59.0
X42.499Y-56.386
X44.0Y-24.0
X45.0Y-32.0
X45.0Y-46.0
X45.5Y-24.0
X46.0Y-41.5
X46.223Y-43.557
X47.0Y-42.0
X48.5Y-32.0
X50.0Y-41.5
X50.0Y-43.5
X51.0Y-47.5
X51.301Y-45.5
X51.65Y-49.873
T4
X28.5Y-41.5
X30.5Y-56.69
X30.5Y-64.31
X30.92Y-47.5
X30.92Y-50.5
X31.0Y-53.5
X33.5Y-41.5
X36.0Y-41.5
X41.0Y-41.5
X41.08Y-47.5
X41.08Y-50.5
X41.16Y-53.5
X50.0Y-33.5
X50.0Y-38.5
X50.5Y-54.92
X50.5Y-65.08
T5
X26.42Y-44.5
X26.5Y-17.68
X26.5Y-20.22
X26.5Y-22.76
X26.5Y-25.3
X26.5Y-27.84
X26.5Y-30.38
X26.5Y-32.92
X26.5Y-35.46
X26.5Y-38.0
X27.5Y-49.88
X27.5Y-52.42
X27.5Y-54.96
X27.5Y-57.5
X27.5Y-60.04
X27.5Y-62.58
X28.96Y-44.5
X30.38Y-38.5
X31.5Y-44.5
X32.92Y-38.5
X34.04Y-44.5
X35.46Y-38.5
X36.58Y-44.5
X38.0Y-38.5
X39.12Y-44.5
X40.54Y-38.5
X43.08Y-38.5
X43.96Y-52.0
X45.62Y-38.5
X46.5Y-52.0
X47.0Y-54.92
X47.0Y-57.46
X47.0Y-60.0
X47.0Y-62.54
X47.0Y-65.08
X49.04Y-52.0
X50.0Y-17.88
X50.0Y-20.42
X50.0Y-22.96
X50.0Y-25.5
X50.0Y-28.04
X50.0Y-30.58
X51.58Y-52.0
T3
G00X33.18Y-60.32
M15
G01X33.18Y-61.42
M16
G05
G00X33.18Y-64.75
M15
G01X33.18Y-65.35
M16
G05
G00X41.82Y-60.32
M15
G01X41.82Y-61.42
M16
G05
G00X41.82Y-64.75
M15
G01X41.82Y-65.35
M16
G05
M30
