%TF.GenerationSoftware,KiCad,Pcbnew,9.0.7*%
%TF.CreationDate,2026-02-17T08:12:27+01:00*%
%TF.ProjectId,CatPhonesV2,43617450-686f-46e6-9573-56322e6b6963,rev?*%
%TF.SameCoordinates,Original*%
%TF.FileFunction,Legend,Bot*%
%TF.FilePolarity,Positive*%
%FSLAX46Y46*%
G04 Gerber Fmt 4.6, Leading zero omitted, Abs format (unit mm)*
G04 Created by KiCad (PCBNEW 9.0.7) date 2026-02-17 08:12:27*
%MOMM*%
%LPD*%
G01*
G04 APERTURE LIST*
%ADD10C,0.150000*%
%ADD11C,0.120000*%
G04 APERTURE END LIST*
D10*
X40833333Y-70114819D02*
X40833333Y-70829104D01*
X40833333Y-70829104D02*
X40880952Y-70971961D01*
X40880952Y-70971961D02*
X40976190Y-71067200D01*
X40976190Y-71067200D02*
X41119047Y-71114819D01*
X41119047Y-71114819D02*
X41214285Y-71114819D01*
X39928571Y-70114819D02*
X40119047Y-70114819D01*
X40119047Y-70114819D02*
X40214285Y-70162438D01*
X40214285Y-70162438D02*
X40261904Y-70210057D01*
X40261904Y-70210057D02*
X40357142Y-70352914D01*
X40357142Y-70352914D02*
X40404761Y-70543390D01*
X40404761Y-70543390D02*
X40404761Y-70924342D01*
X40404761Y-70924342D02*
X40357142Y-71019580D01*
X40357142Y-71019580D02*
X40309523Y-71067200D01*
X40309523Y-71067200D02*
X40214285Y-71114819D01*
X40214285Y-71114819D02*
X40023809Y-71114819D01*
X40023809Y-71114819D02*
X39928571Y-71067200D01*
X39928571Y-71067200D02*
X39880952Y-71019580D01*
X39880952Y-71019580D02*
X39833333Y-70924342D01*
X39833333Y-70924342D02*
X39833333Y-70686247D01*
X39833333Y-70686247D02*
X39880952Y-70591009D01*
X39880952Y-70591009D02*
X39928571Y-70543390D01*
X39928571Y-70543390D02*
X40023809Y-70495771D01*
X40023809Y-70495771D02*
X40214285Y-70495771D01*
X40214285Y-70495771D02*
X40309523Y-70543390D01*
X40309523Y-70543390D02*
X40357142Y-70591009D01*
X40357142Y-70591009D02*
X40404761Y-70686247D01*
D11*
%TO.C,J6*%
X37400000Y-67400000D02*
X37900000Y-67400000D01*
X37400000Y-66100000D02*
X36050000Y-66100000D01*
X37400000Y-66100000D02*
X37400000Y-67400000D01*
X37400000Y-64250000D02*
X36050000Y-64250000D01*
X37400000Y-62750000D02*
X37400000Y-64250000D01*
X37400000Y-57250000D02*
X37400000Y-60850000D01*
X37900000Y-69400000D02*
X43100000Y-69400000D01*
X37900000Y-67400000D02*
X37900000Y-69400000D01*
X42850000Y-55200000D02*
X37400000Y-55200000D01*
X43100000Y-69400000D02*
X43100000Y-67400000D01*
X43100000Y-67400000D02*
X43600000Y-67400000D01*
X43600000Y-67400000D02*
X43600000Y-66200000D01*
X43600000Y-64250000D02*
X43600000Y-59000000D01*
X43600000Y-57050000D02*
X43600000Y-56750000D01*
%TD*%
M02*
