%TF.GenerationSoftware,KiCad,Pcbnew,9.0.7*%
%TF.CreationDate,2026-02-17T08:12:27+01:00*%
%TF.ProjectId,CatPhonesV2,43617450-686f-46e6-9573-56322e6b6963,rev?*%
%TF.SameCoordinates,Original*%
%TF.FileFunction,Copper,L1,Top*%
%TF.FilePolarity,Positive*%
%FSLAX46Y46*%
G04 Gerber Fmt 4.6, Leading zero omitted, Abs format (unit mm)*
G04 Created by KiCad (PCBNEW 9.0.7) date 2026-02-17 08:12:27*
%MOMM*%
%LPD*%
G01*
G04 APERTURE LIST*
G04 Aperture macros list*
%AMRoundRect*
0 Rectangle with rounded corners*
0 $1 Rounding radius*
0 $2 $3 $4 $5 $6 $7 $8 $9 X,Y pos of 4 corners*
0 Add a 4 corners polygon primitive as box body*
4,1,4,$2,$3,$4,$5,$6,$7,$8,$9,$2,$3,0*
0 Add four circle primitives for the rounded corners*
1,1,$1+$1,$2,$3*
1,1,$1+$1,$4,$5*
1,1,$1+$1,$6,$7*
1,1,$1+$1,$8,$9*
0 Add four rect primitives between the rounded corners*
20,1,$1+$1,$2,$3,$4,$5,0*
20,1,$1+$1,$4,$5,$6,$7,0*
20,1,$1+$1,$6,$7,$8,$9,0*
20,1,$1+$1,$8,$9,$2,$3,0*%
G04 Aperture macros list end*
%TA.AperFunction,ComponentPad*%
%ADD10C,1.600000*%
%TD*%
%TA.AperFunction,ComponentPad*%
%ADD11C,1.700000*%
%TD*%
%TA.AperFunction,ComponentPad*%
%ADD12R,1.700000X1.700000*%
%TD*%
%TA.AperFunction,SMDPad,CuDef*%
%ADD13R,0.900000X0.900000*%
%TD*%
%TA.AperFunction,HeatsinkPad*%
%ADD14C,0.600000*%
%TD*%
%TA.AperFunction,HeatsinkPad*%
%ADD15R,3.800000X3.800000*%
%TD*%
%TA.AperFunction,SMDPad,CuDef*%
%ADD16R,1.500000X0.900000*%
%TD*%
%TA.AperFunction,SMDPad,CuDef*%
%ADD17R,0.900000X1.500000*%
%TD*%
%TA.AperFunction,HeatsinkPad*%
%ADD18O,1.000000X1.600000*%
%TD*%
%TA.AperFunction,HeatsinkPad*%
%ADD19O,1.000000X2.100000*%
%TD*%
%TA.AperFunction,SMDPad,CuDef*%
%ADD20R,0.600000X1.450000*%
%TD*%
%TA.AperFunction,SMDPad,CuDef*%
%ADD21R,0.300000X1.450000*%
%TD*%
%TA.AperFunction,SMDPad,CuDef*%
%ADD22R,0.610000X1.420000*%
%TD*%
%TA.AperFunction,SMDPad,CuDef*%
%ADD23R,0.700000X0.250000*%
%TD*%
%TA.AperFunction,SMDPad,CuDef*%
%ADD24RoundRect,0.150000X0.587500X0.150000X-0.587500X0.150000X-0.587500X-0.150000X0.587500X-0.150000X0*%
%TD*%
%TA.AperFunction,SMDPad,CuDef*%
%ADD25RoundRect,0.150000X-0.825000X-0.150000X0.825000X-0.150000X0.825000X0.150000X-0.825000X0.150000X0*%
%TD*%
%TA.AperFunction,SMDPad,CuDef*%
%ADD26RoundRect,0.225000X-0.225000X-0.250000X0.225000X-0.250000X0.225000X0.250000X-0.225000X0.250000X0*%
%TD*%
%TA.AperFunction,SMDPad,CuDef*%
%ADD27RoundRect,0.237500X-0.300000X-0.237500X0.300000X-0.237500X0.300000X0.237500X-0.300000X0.237500X0*%
%TD*%
%TA.AperFunction,SMDPad,CuDef*%
%ADD28RoundRect,0.225000X0.225000X0.250000X-0.225000X0.250000X-0.225000X-0.250000X0.225000X-0.250000X0*%
%TD*%
%TA.AperFunction,ViaPad*%
%ADD29C,0.600000*%
%TD*%
%TA.AperFunction,Conductor*%
%ADD30C,0.200000*%
%TD*%
G04 APERTURE END LIST*
D10*
%TO.P,R2,1*%
%TO.N,/CC1*%
X30500000Y-64310000D03*
%TO.P,R2,2*%
%TO.N,GND*%
X30500000Y-56690000D03*
%TD*%
%TO.P,R1,1*%
%TO.N,/CC2*%
X30920000Y-47500000D03*
%TO.P,R1,2*%
%TO.N,GND*%
X41080000Y-47500000D03*
%TD*%
%TO.P,R5,1*%
%TO.N,+3V3*%
X41080000Y-50500000D03*
%TO.P,R5,2*%
%TO.N,Net-(U1-EN)*%
X30920000Y-50500000D03*
%TD*%
D11*
%TO.P,J1,6,Pin_6*%
%TO.N,GND*%
X27500000Y-49880000D03*
%TO.P,J1,5,Pin_5*%
%TO.N,Net-(J1-Pin_5)*%
X27500000Y-52420000D03*
%TO.P,J1,4,Pin_4*%
%TO.N,+3V3*%
X27500000Y-54960000D03*
%TO.P,J1,3,Pin_3*%
%TO.N,GND*%
X27500000Y-57500000D03*
%TO.P,J1,2,Pin_2*%
%TO.N,Net-(J1-Pin_2)*%
X27500000Y-60040000D03*
D12*
%TO.P,J1,1,Pin_1*%
%TO.N,+3V3*%
X27500000Y-62580000D03*
%TD*%
D11*
%TO.P,J10,4,Pin_4*%
%TO.N,GND*%
X43960000Y-52000000D03*
%TO.P,J10,3,Pin_3*%
%TO.N,+5V*%
X46500000Y-52000000D03*
%TO.P,J10,2,Pin_2*%
%TO.N,GND*%
X49040000Y-52000000D03*
D12*
%TO.P,J10,1,Pin_1*%
%TO.N,VCC*%
X51580000Y-52000000D03*
%TD*%
D10*
%TO.P,R4,1*%
%TO.N,+3V3*%
X41160000Y-53500000D03*
%TO.P,R4,2*%
%TO.N,/RXD*%
X31000000Y-53500000D03*
%TD*%
%TO.P,R3,2*%
%TO.N,/TXD*%
X50500000Y-65080000D03*
%TO.P,R3,1*%
%TO.N,+3V3*%
X50500000Y-54920000D03*
%TD*%
D13*
%TO.P,U1,39,GND*%
%TO.N,GND*%
X38150000Y-26500000D03*
D14*
X38150000Y-25800000D03*
D13*
X38150000Y-25100000D03*
D14*
X38150000Y-24400000D03*
D13*
X38150000Y-23700000D03*
D14*
X37450000Y-26500000D03*
X37450000Y-25100000D03*
X37450000Y-23700000D03*
D13*
X36750000Y-26500000D03*
D14*
X36750000Y-25800000D03*
D15*
X36750000Y-25100000D03*
D13*
X36750000Y-25100000D03*
D14*
X36750000Y-24400000D03*
D13*
X36750000Y-23700000D03*
D14*
X36050000Y-26500000D03*
X36050000Y-25100000D03*
X36050000Y-23700000D03*
D13*
X35350000Y-26500000D03*
D14*
X35350000Y-25800000D03*
D13*
X35350000Y-25100000D03*
D14*
X35350000Y-24400000D03*
D13*
X35350000Y-23700000D03*
D16*
%TO.P,U1,38,GND*%
X47000000Y-17760000D03*
%TO.P,U1,37,IO23*%
%TO.N,unconnected-(U1-IO23-Pad37)*%
X47000000Y-19030000D03*
%TO.P,U1,36,IO22*%
%TO.N,Net-(J8-Pin_5)*%
X47000000Y-20300000D03*
%TO.P,U1,35,TXD0/IO1*%
%TO.N,/RXD*%
X47000000Y-21570000D03*
%TO.P,U1,34,RXD0/IO3*%
%TO.N,/TXD*%
X47000000Y-22840000D03*
%TO.P,U1,33,IO21*%
%TO.N,Net-(J8-Pin_4)*%
X47000000Y-24110000D03*
%TO.P,U1,32,NC*%
%TO.N,unconnected-(U1-NC-Pad32)*%
X47000000Y-25380000D03*
%TO.P,U1,31,IO19*%
%TO.N,Net-(J8-Pin_3)*%
X47000000Y-26650000D03*
%TO.P,U1,30,IO18*%
%TO.N,Net-(J8-Pin_2)*%
X47000000Y-27920000D03*
%TO.P,U1,29,IO5*%
%TO.N,Net-(J8-Pin_1)*%
X47000000Y-29190000D03*
%TO.P,U1,28,IO17*%
%TO.N,unconnected-(U1-IO17-Pad28)*%
X47000000Y-30460000D03*
%TO.P,U1,27,IO16*%
%TO.N,unconnected-(U1-IO16-Pad27)*%
X47000000Y-31730000D03*
%TO.P,U1,26,IO4*%
%TO.N,unconnected-(U1-IO4-Pad26)*%
X47000000Y-33000000D03*
%TO.P,U1,25,IO0*%
%TO.N,Net-(U1-EN)*%
X47000000Y-34270000D03*
D17*
%TO.P,U1,24,IO2*%
%TO.N,unconnected-(U1-IO2-Pad24)*%
X43965000Y-35520000D03*
%TO.P,U1,23,IO15*%
%TO.N,Net-(J7-Pin_3)*%
X42695000Y-35520000D03*
%TO.P,U1,22,NC*%
%TO.N,unconnected-(U1-NC-Pad22)*%
X41425000Y-35520000D03*
%TO.P,U1,21,NC*%
%TO.N,unconnected-(U1-NC-Pad21)*%
X40155000Y-35520000D03*
%TO.P,U1,20,NC*%
%TO.N,unconnected-(U1-NC-Pad20)*%
X38885000Y-35520000D03*
%TO.P,U1,19,NC*%
%TO.N,unconnected-(U1-NC-Pad19)*%
X37615000Y-35520000D03*
%TO.P,U1,18,NC*%
%TO.N,unconnected-(U1-NC-Pad18)*%
X36345000Y-35520000D03*
%TO.P,U1,17,NC*%
%TO.N,unconnected-(U1-NC-Pad17)*%
X35075000Y-35520000D03*
%TO.P,U1,16,IO13*%
%TO.N,Net-(J7-Pin_1)*%
X33805000Y-35520000D03*
%TO.P,U1,15,GND*%
%TO.N,GND*%
X32535000Y-35520000D03*
D16*
%TO.P,U1,14,IO12*%
%TO.N,unconnected-(U1-IO12-Pad14)*%
X29500000Y-34270000D03*
%TO.P,U1,13,IO14*%
%TO.N,Net-(J7-Pin_2)*%
X29500000Y-33000000D03*
%TO.P,U1,12,IO27*%
%TO.N,Net-(J5-Pin_2)*%
X29500000Y-31730000D03*
%TO.P,U1,11,IO26*%
%TO.N,Net-(J5-Pin_4)*%
X29500000Y-30460000D03*
%TO.P,U1,10,IO25*%
%TO.N,Net-(J5-Pin_3)*%
X29500000Y-29190000D03*
%TO.P,U1,9,IO33*%
%TO.N,unconnected-(U1-IO33-Pad9)*%
X29500000Y-27920000D03*
%TO.P,U1,8,IO32*%
%TO.N,unconnected-(U1-IO32-Pad8)*%
X29500000Y-26650000D03*
%TO.P,U1,7,IO35*%
%TO.N,Net-(J1-Pin_5)*%
X29500000Y-25380000D03*
%TO.P,U1,6,IO34*%
%TO.N,Net-(J1-Pin_2)*%
X29500000Y-24110000D03*
%TO.P,U1,5,SENSOR_VN*%
%TO.N,unconnected-(U1-SENSOR_VN-Pad5)*%
X29500000Y-22840000D03*
%TO.P,U1,4,SENSOR_VP*%
%TO.N,unconnected-(U1-SENSOR_VP-Pad4)*%
X29500000Y-21570000D03*
%TO.P,U1,3,EN*%
%TO.N,Net-(U1-EN)*%
X29500000Y-20300000D03*
%TO.P,U1,2,VDD*%
%TO.N,+3V3*%
X29500000Y-19030000D03*
%TO.P,U1,1,GND*%
%TO.N,GND*%
X29500000Y-17760000D03*
%TD*%
D11*
%TO.P,J11,5,Pin_5*%
%TO.N,Net-(J11-Pin_1)*%
X47000000Y-65080000D03*
%TO.P,J11,4,Pin_4*%
%TO.N,Net-(J11-Pin_4)*%
X47000000Y-62540000D03*
%TO.P,J11,3,Pin_3*%
%TO.N,Net-(J11-Pin_3)*%
X47000000Y-60000000D03*
%TO.P,J11,2,Pin_2*%
%TO.N,Net-(J11-Pin_1)*%
X47000000Y-57460000D03*
D12*
%TO.P,J11,1,Pin_1*%
X47000000Y-54920000D03*
%TD*%
D18*
%TO.P,J13,S1,SHIELD*%
%TO.N,unconnected-(J13-SHIELD-PadS1)*%
X41820000Y-65050000D03*
D19*
%TO.N,unconnected-(J13-SHIELD-PadS1)_3*%
X41820000Y-60870000D03*
D18*
%TO.N,unconnected-(J13-SHIELD-PadS1)_1*%
X33180000Y-65050000D03*
D19*
%TO.N,unconnected-(J13-SHIELD-PadS1)_2*%
X33180000Y-60870000D03*
D20*
%TO.P,J13,B12,GND*%
%TO.N,GND*%
X34250000Y-59955000D03*
%TO.P,J13,B9,VBUS*%
%TO.N,+5V*%
X35050000Y-59955000D03*
D21*
%TO.P,J13,B8,SBU2*%
%TO.N,unconnected-(J13-SBU2-PadB8)*%
X35750000Y-59955000D03*
%TO.P,J13,B7,D-*%
%TO.N,Net-(U2-UD-)*%
X36750000Y-59955000D03*
%TO.P,J13,B6,D+*%
%TO.N,Net-(U2-UD+)*%
X38250000Y-59955000D03*
%TO.P,J13,B5,CC2*%
%TO.N,/CC2*%
X39250000Y-59955000D03*
D20*
%TO.P,J13,B4,VBUS*%
%TO.N,+5V*%
X39950000Y-59955000D03*
%TO.P,J13,B1,GND*%
%TO.N,GND*%
X40750000Y-59955000D03*
%TO.P,J13,A12,GND*%
X40750000Y-59955000D03*
%TO.P,J13,A9,VBUS*%
%TO.N,+5V*%
X39950000Y-59955000D03*
D21*
%TO.P,J13,A8,SBU1*%
%TO.N,unconnected-(J13-SBU1-PadA8)*%
X38750000Y-59955000D03*
%TO.P,J13,A7,D-*%
%TO.N,Net-(U2-UD-)*%
X37750000Y-59955000D03*
%TO.P,J13,A6,D+*%
%TO.N,Net-(U2-UD+)*%
X37250000Y-59955000D03*
%TO.P,J13,A5,CC1*%
%TO.N,/CC1*%
X36250000Y-59955000D03*
D20*
%TO.P,J13,A4,VBUS*%
%TO.N,+5V*%
X35050000Y-59955000D03*
%TO.P,J13,A1,GND*%
%TO.N,GND*%
X34250000Y-59955000D03*
%TD*%
D22*
%TO.P,U4,7,EPAD*%
%TO.N,GND*%
X51500000Y-48645000D03*
D23*
%TO.P,U4,6,\u002ASHDN*%
%TO.N,VCC*%
X52425000Y-48145000D03*
%TO.P,U4,5,C-*%
%TO.N,Net-(U4-C-)*%
X52425000Y-48645000D03*
%TO.P,U4,4,C+*%
%TO.N,Net-(U4-C+)*%
X52425000Y-49145000D03*
%TO.P,U4,3,VOUT*%
%TO.N,+3V3*%
X50575000Y-49145000D03*
%TO.P,U4,2,VIN*%
%TO.N,VCC*%
X50575000Y-48645000D03*
%TO.P,U4,1,GND*%
%TO.N,GND*%
X50575000Y-48145000D03*
%TD*%
D24*
%TO.P,U3,1,GND*%
%TO.N,GND*%
X26437500Y-41950000D03*
%TO.P,U3,2,VO*%
%TO.N,+3V3*%
X26437500Y-40050000D03*
%TO.P,U3,3,VI*%
%TO.N,+5V*%
X24562500Y-41000000D03*
%TD*%
D25*
%TO.P,U2,1,GND*%
%TO.N,GND*%
X43550000Y-40880000D03*
%TO.P,U2,2,TXD*%
%TO.N,/TXD*%
X43550000Y-42150000D03*
%TO.P,U2,3,RXD*%
%TO.N,/RXD*%
X43550000Y-43420000D03*
%TO.P,U2,4,V3*%
%TO.N,+3V3*%
X43550000Y-44690000D03*
%TO.P,U2,5,UD+*%
%TO.N,Net-(U2-UD+)*%
X43550000Y-45960000D03*
%TO.P,U2,6,UD-*%
%TO.N,Net-(U2-UD-)*%
X43550000Y-47230000D03*
%TO.P,U2,7,NC*%
%TO.N,unconnected-(U2-NC-Pad7)*%
X43550000Y-48500000D03*
%TO.P,U2,8,NC*%
%TO.N,unconnected-(U2-NC-Pad8)*%
X43550000Y-49770000D03*
%TO.P,U2,9,~{CTS}*%
%TO.N,unconnected-(U2-~{CTS}-Pad9)*%
X48500000Y-49770000D03*
%TO.P,U2,10,~{DSR}*%
%TO.N,unconnected-(U2-~{DSR}-Pad10)*%
X48500000Y-48500000D03*
%TO.P,U2,11,~{RI}*%
%TO.N,unconnected-(U2-~{RI}-Pad11)*%
X48500000Y-47230000D03*
%TO.P,U2,12,~{DCD}*%
%TO.N,unconnected-(U2-~{DCD}-Pad12)*%
X48500000Y-45960000D03*
%TO.P,U2,13,~{DTR}*%
%TO.N,/DTR*%
X48500000Y-44690000D03*
%TO.P,U2,14,~{RTS}*%
%TO.N,unconnected-(U2-~{RTS}-Pad14)*%
X48500000Y-43420000D03*
%TO.P,U2,15,R232*%
%TO.N,unconnected-(U2-R232-Pad15)*%
X48500000Y-42150000D03*
%TO.P,U2,16,VCC*%
%TO.N,+5V*%
X48500000Y-40880000D03*
%TD*%
D12*
%TO.P,J12,1,Pin_1*%
%TO.N,Net-(J11-Pin_4)*%
X26500000Y-17680000D03*
D11*
%TO.P,J12,2,Pin_2*%
%TO.N,Net-(J11-Pin_1)*%
X26500000Y-20220000D03*
%TO.P,J12,3,Pin_3*%
%TO.N,Net-(J11-Pin_3)*%
X26500000Y-22760000D03*
%TO.P,J12,4,Pin_4*%
%TO.N,Net-(J11-Pin_1)*%
X26500000Y-25300000D03*
%TO.P,J12,5,Pin_5*%
%TO.N,unconnected-(J12-Pin_5-Pad5)*%
X26500000Y-27840000D03*
%TO.P,J12,6,Pin_6*%
%TO.N,unconnected-(J12-Pin_6-Pad6)*%
X26500000Y-30380000D03*
%TO.P,J12,7,Pin_7*%
%TO.N,unconnected-(J12-Pin_7-Pad7)*%
X26500000Y-32920000D03*
%TO.P,J12,8,Pin_8*%
%TO.N,unconnected-(J12-Pin_8-Pad8)*%
X26500000Y-35460000D03*
%TO.P,J12,9,Pin_9*%
%TO.N,unconnected-(J12-Pin_9-Pad9)*%
X26500000Y-38000000D03*
%TD*%
D12*
%TO.P,J8,1,Pin_1*%
%TO.N,Net-(J8-Pin_1)*%
X50000000Y-30580000D03*
D11*
%TO.P,J8,2,Pin_2*%
%TO.N,Net-(J8-Pin_2)*%
X50000000Y-28040000D03*
%TO.P,J8,3,Pin_3*%
%TO.N,Net-(J8-Pin_3)*%
X50000000Y-25500000D03*
%TO.P,J8,4,Pin_4*%
%TO.N,Net-(J8-Pin_4)*%
X50000000Y-22960000D03*
%TO.P,J8,5,Pin_5*%
%TO.N,Net-(J8-Pin_5)*%
X50000000Y-20420000D03*
%TO.P,J8,6,Pin_6*%
%TO.N,GND*%
X50000000Y-17880000D03*
%TD*%
D12*
%TO.P,J7,1,Pin_1*%
%TO.N,Net-(J7-Pin_1)*%
X30380000Y-38500000D03*
D11*
%TO.P,J7,2,Pin_2*%
%TO.N,Net-(J7-Pin_2)*%
X32920000Y-38500000D03*
%TO.P,J7,3,Pin_3*%
%TO.N,Net-(J7-Pin_3)*%
X35460000Y-38500000D03*
%TO.P,J7,4,Pin_4*%
%TO.N,unconnected-(J7-Pin_4-Pad4)*%
X38000000Y-38500000D03*
%TO.P,J7,5,Pin_5*%
%TO.N,unconnected-(J7-Pin_5-Pad5)*%
X40540000Y-38500000D03*
%TO.P,J7,6,Pin_6*%
%TO.N,GND*%
X43080000Y-38500000D03*
%TO.P,J7,7,Pin_7*%
%TO.N,+3V3*%
X45620000Y-38500000D03*
%TD*%
D12*
%TO.P,J5,1,Pin_1*%
%TO.N,GND*%
X26420000Y-44500000D03*
D11*
%TO.P,J5,2,Pin_2*%
%TO.N,Net-(J5-Pin_2)*%
X28960000Y-44500000D03*
%TO.P,J5,3,Pin_3*%
%TO.N,Net-(J5-Pin_3)*%
X31500000Y-44500000D03*
%TO.P,J5,4,Pin_4*%
%TO.N,Net-(J5-Pin_4)*%
X34040000Y-44500000D03*
%TO.P,J5,5,Pin_5*%
%TO.N,GND*%
X36580000Y-44500000D03*
%TO.P,J5,6,Pin_6*%
%TO.N,+3V3*%
X39120000Y-44500000D03*
%TD*%
D10*
%TO.P,C8,1*%
%TO.N,+5V*%
X28500000Y-41500000D03*
%TO.P,C8,2*%
%TO.N,GND*%
X33500000Y-41500000D03*
%TD*%
%TO.P,C7,1*%
%TO.N,/DTR*%
X36000000Y-41500000D03*
%TO.P,C7,2*%
%TO.N,Net-(U1-EN)*%
X41000000Y-41500000D03*
%TD*%
%TO.P,C5,1*%
%TO.N,+3V3*%
X50000000Y-33500000D03*
%TO.P,C5,2*%
%TO.N,GND*%
X50000000Y-38500000D03*
%TD*%
D26*
%TO.P,C4,1*%
%TO.N,VCC*%
X50725000Y-46510000D03*
%TO.P,C4,2*%
%TO.N,GND*%
X52275000Y-46510000D03*
%TD*%
D27*
%TO.P,C3,1*%
%TO.N,+3V3*%
X50637500Y-42500000D03*
%TO.P,C3,2*%
%TO.N,GND*%
X52362500Y-42500000D03*
%TD*%
%TO.P,C2,1*%
%TO.N,+5V*%
X50637500Y-40500000D03*
%TO.P,C2,2*%
%TO.N,GND*%
X52362500Y-40500000D03*
%TD*%
D28*
%TO.P,C1,1*%
%TO.N,Net-(U4-C-)*%
X52275000Y-44500000D03*
%TO.P,C1,2*%
%TO.N,Net-(U4-C+)*%
X50725000Y-44500000D03*
%TD*%
D29*
%TO.N,GND*%
X32500000Y-33500000D03*
%TO.N,+5V*%
X47000000Y-42000000D03*
%TO.N,/DTR*%
X46223290Y-43557083D03*
%TO.N,+5V*%
X26000000Y-54000000D03*
X42498998Y-56385545D03*
%TO.N,GND*%
X50000000Y-43500000D03*
%TO.N,Net-(U1-EN)*%
X39500000Y-41000000D03*
%TO.N,Net-(J11-Pin_4)*%
X48500000Y-32000000D03*
X45000000Y-32000000D03*
%TO.N,Net-(U2-UD-)*%
X42000000Y-49000000D03*
%TO.N,Net-(U2-UD+)*%
X45000000Y-46000000D03*
%TO.N,/TXD*%
X46000000Y-41500000D03*
%TO.N,+3V3*%
X27500000Y-40000000D03*
%TO.N,/RXD*%
X41500000Y-43500000D03*
%TO.N,+5V*%
X33500000Y-57500000D03*
%TO.N,Net-(U2-UD-)*%
X36500000Y-58000000D03*
%TO.N,Net-(U2-UD+)*%
X38500000Y-58500000D03*
%TO.N,GND*%
X42000000Y-59000000D03*
%TO.N,/RXD*%
X44000000Y-24000000D03*
%TO.N,/TXD*%
X45500000Y-24000000D03*
%TO.N,Net-(J5-Pin_4)*%
X33000000Y-30500000D03*
%TO.N,GND*%
X36050000Y-30950000D03*
%TO.N,+3V3*%
X31970000Y-19030000D03*
%TO.N,Net-(J1-Pin_2)*%
X32000000Y-24500000D03*
%TO.N,Net-(J1-Pin_5)*%
X31500000Y-25500000D03*
%TO.N,Net-(J5-Pin_3)*%
X32000000Y-29500000D03*
%TO.N,+3V3*%
X50000000Y-41500000D03*
%TO.N,GND*%
X51301000Y-45500000D03*
X51000000Y-47500000D03*
%TO.N,+3V3*%
X51650000Y-49872519D03*
%TD*%
D30*
%TO.N,GND*%
X43080000Y-38500000D02*
X43337100Y-38500000D01*
X48051000Y-35021000D02*
X48051000Y-33529000D01*
X43337100Y-38500000D02*
X46816100Y-35021000D01*
X46816100Y-35021000D02*
X48051000Y-35021000D01*
X48051000Y-33529000D02*
X49849000Y-31731000D01*
X49849000Y-31731000D02*
X51151000Y-31731000D01*
X51151000Y-31731000D02*
X51151000Y-19031000D01*
X51151000Y-19031000D02*
X50000000Y-17880000D01*
X43080000Y-38500000D02*
X44231000Y-39651000D01*
X44231000Y-39651000D02*
X48849000Y-39651000D01*
X48849000Y-39651000D02*
X50000000Y-38500000D01*
X36580000Y-44500000D02*
X38479000Y-42601000D01*
X43177050Y-40880000D02*
X43550000Y-40880000D01*
X38479000Y-42601000D02*
X41456050Y-42601000D01*
X41456050Y-42601000D02*
X43177050Y-40880000D01*
X30500000Y-56690000D02*
X29700001Y-55890001D01*
X29700001Y-55890001D02*
X29700001Y-52080001D01*
X29700001Y-52080001D02*
X27500000Y-49880000D01*
X37450000Y-23700000D02*
X38150000Y-23700000D01*
X38150000Y-24400000D02*
X38150000Y-23700000D01*
X37450000Y-26500000D02*
X37450000Y-25100000D01*
X36050000Y-26500000D02*
X36050000Y-25100000D01*
X36750000Y-25800000D02*
X36050000Y-26500000D01*
X36750000Y-25800000D02*
X37450000Y-26500000D01*
X37450000Y-25100000D02*
X37450000Y-23700000D01*
X36050000Y-25100000D02*
X36050000Y-23700000D01*
X36750000Y-24400000D02*
X36750000Y-25100000D01*
X36050000Y-25100000D02*
X36750000Y-25100000D01*
X37450000Y-25100000D02*
X36750000Y-25100000D01*
X36750000Y-25800000D02*
X36750000Y-25100000D01*
X38150000Y-25800000D02*
X38150000Y-26500000D01*
X37450000Y-26500000D02*
X38150000Y-26500000D01*
X36050000Y-26500000D02*
X35350000Y-26500000D01*
X35350000Y-25800000D02*
X35350000Y-26500000D01*
X35350000Y-24400000D02*
X35350000Y-23700000D01*
X36050000Y-23700000D02*
X35350000Y-23700000D01*
X32500000Y-33500000D02*
X32535000Y-33535000D01*
X32535000Y-33535000D02*
X32535000Y-35520000D01*
%TO.N,+5V*%
X47000000Y-42000000D02*
X48120000Y-40880000D01*
X48120000Y-40880000D02*
X48500000Y-40880000D01*
%TO.N,+3V3*%
X41080000Y-50500000D02*
X39120000Y-48540000D01*
X39120000Y-48540000D02*
X39120000Y-44500000D01*
%TO.N,+5V*%
X42498998Y-56385545D02*
X42498998Y-56001002D01*
X42498998Y-56001002D02*
X46500000Y-52000000D01*
%TO.N,GND*%
X51850000Y-45500000D02*
X51301000Y-45500000D01*
X52275000Y-45925000D02*
X51850000Y-45500000D01*
X52275000Y-46510000D02*
X52275000Y-45925000D01*
%TO.N,Net-(U4-C+)*%
X53147000Y-49145000D02*
X52425000Y-49145000D01*
X53501000Y-48791000D02*
X53147000Y-49145000D01*
%TO.N,GND*%
X51362500Y-43500000D02*
X52362500Y-42500000D01*
%TO.N,Net-(U4-C+)*%
X51704185Y-43724000D02*
X52724110Y-43724000D01*
%TO.N,GND*%
X50000000Y-43500000D02*
X51362500Y-43500000D01*
%TO.N,Net-(U4-C+)*%
X51528186Y-43900000D02*
X51704185Y-43724000D01*
X53501000Y-44500890D02*
X53501000Y-48791000D01*
X51325000Y-43900000D02*
X51528186Y-43900000D01*
X52724110Y-43724000D02*
X53501000Y-44500890D01*
X50725000Y-44500000D02*
X51325000Y-43900000D01*
%TO.N,+3V3*%
X50872519Y-49872519D02*
X51650000Y-49872519D01*
X50575000Y-49145000D02*
X50575000Y-49575000D01*
X52731000Y-53820370D02*
X52731000Y-50849000D01*
X51754519Y-49872519D02*
X51650000Y-49872519D01*
X50575000Y-49575000D02*
X50872519Y-49872519D01*
X50500000Y-54920000D02*
X51631370Y-54920000D01*
X52731000Y-50849000D02*
X51754519Y-49872519D01*
X51631370Y-54920000D02*
X52731000Y-53820370D01*
%TO.N,+5V*%
X42000000Y-56884543D02*
X42498998Y-56385545D01*
X42000000Y-57857049D02*
X42000000Y-56884543D01*
X40043951Y-58901000D02*
X40956049Y-58901000D01*
X40956049Y-58901000D02*
X42000000Y-57857049D01*
X39950000Y-58994951D02*
X40043951Y-58901000D01*
X39950000Y-59955000D02*
X39950000Y-58994951D01*
%TO.N,GND*%
X27500000Y-57500000D02*
X29690000Y-57500000D01*
X29690000Y-57500000D02*
X30500000Y-56690000D01*
%TO.N,+3V3*%
X27500000Y-62580000D02*
X26349000Y-61429000D01*
X26349000Y-61429000D02*
X26349000Y-56111000D01*
X26349000Y-56111000D02*
X27500000Y-54960000D01*
%TO.N,Net-(U1-EN)*%
X39500000Y-41000000D02*
X38452240Y-41000000D01*
X35429000Y-44023240D02*
X35429000Y-44738760D01*
X38452240Y-41000000D02*
X35429000Y-44023240D01*
X35429000Y-44738760D02*
X33768760Y-46399000D01*
X33768760Y-46399000D02*
X30463950Y-46399000D01*
X30463950Y-46399000D02*
X29819000Y-47043950D01*
X29819000Y-49399000D02*
X30920000Y-50500000D01*
X29819000Y-47043950D02*
X29819000Y-49399000D01*
%TO.N,Net-(J11-Pin_1)*%
X47000000Y-57460000D02*
X47000000Y-54920000D01*
X47000000Y-65080000D02*
X45849000Y-63929000D01*
X45849000Y-63929000D02*
X45849000Y-58611000D01*
X45849000Y-58611000D02*
X47000000Y-57460000D01*
%TO.N,Net-(U2-UD+)*%
X43550000Y-45960000D02*
X44960000Y-45960000D01*
X44960000Y-45960000D02*
X45000000Y-46000000D01*
%TO.N,Net-(U2-UD-)*%
X43550000Y-47230000D02*
X43203032Y-47230000D01*
X43203032Y-47230000D02*
X42000000Y-48433032D01*
X42000000Y-48433032D02*
X42000000Y-49000000D01*
%TO.N,+3V3*%
X45620000Y-38500000D02*
X50000000Y-34120000D01*
X50000000Y-34120000D02*
X50000000Y-33500000D01*
%TO.N,GND*%
X27500000Y-49880000D02*
X26420000Y-48800000D01*
X26420000Y-48800000D02*
X26420000Y-44500000D01*
%TO.N,+3V3*%
X26437500Y-40050000D02*
X27450000Y-40050000D01*
X27450000Y-40050000D02*
X27500000Y-40000000D01*
%TO.N,GND*%
X26437500Y-41950000D02*
X26437500Y-44482500D01*
X26437500Y-44482500D02*
X26420000Y-44500000D01*
%TO.N,+5V*%
X28500000Y-41500000D02*
X28000000Y-41000000D01*
X28000000Y-41000000D02*
X24562500Y-41000000D01*
%TO.N,+3V3*%
X41160000Y-53500000D02*
X41160000Y-50580000D01*
X41160000Y-50580000D02*
X41080000Y-50500000D01*
%TO.N,/RXD*%
X43550000Y-43420000D02*
X41580000Y-43420000D01*
X41580000Y-43420000D02*
X41500000Y-43500000D01*
%TO.N,/TXD*%
X43550000Y-42150000D02*
X45350000Y-42150000D01*
X45350000Y-42150000D02*
X46000000Y-41500000D01*
%TO.N,VCC*%
X51580000Y-52000000D02*
X49924000Y-50344000D01*
X49924000Y-48719000D02*
X49998000Y-48645000D01*
X49924000Y-50344000D02*
X49924000Y-48719000D01*
X49998000Y-48645000D02*
X50575000Y-48645000D01*
%TO.N,+5V*%
X35050000Y-59955000D02*
X35050000Y-59050000D01*
X35050000Y-59050000D02*
X33500000Y-57500000D01*
%TO.N,GND*%
X34250000Y-59955000D02*
X30985000Y-56690000D01*
X30985000Y-56690000D02*
X30500000Y-56690000D01*
%TO.N,Net-(U2-UD-)*%
X37701000Y-58299000D02*
X37402000Y-58000000D01*
X37402000Y-58000000D02*
X36500000Y-58000000D01*
X37701000Y-58929000D02*
X37701000Y-58299000D01*
%TO.N,Net-(U2-UD+)*%
X38250000Y-59955000D02*
X38250000Y-58750000D01*
X38250000Y-58750000D02*
X38500000Y-58500000D01*
%TO.N,Net-(U2-UD-)*%
X37750000Y-59955000D02*
X37750000Y-58978000D01*
X37701000Y-58929000D02*
X36799000Y-58929000D01*
X36750000Y-58978000D02*
X36750000Y-59955000D01*
X37750000Y-58978000D02*
X37701000Y-58929000D01*
X36799000Y-58929000D02*
X36750000Y-58978000D01*
%TO.N,Net-(U2-UD+)*%
X38250000Y-59955000D02*
X38250000Y-60932000D01*
X38250000Y-60932000D02*
X38201000Y-60981000D01*
X38201000Y-60981000D02*
X37299000Y-60981000D01*
X37299000Y-60981000D02*
X37250000Y-60932000D01*
X37250000Y-60932000D02*
X37250000Y-59955000D01*
%TO.N,/CC2*%
X39250000Y-59955000D02*
X39250000Y-55830000D01*
X39250000Y-55830000D02*
X30920000Y-47500000D01*
%TO.N,/CC1*%
X36250000Y-59955000D02*
X36250000Y-60932000D01*
X36250000Y-60932000D02*
X33233000Y-63949000D01*
X33233000Y-63949000D02*
X30861000Y-63949000D01*
X30861000Y-63949000D02*
X30500000Y-64310000D01*
%TO.N,+5V*%
X39950000Y-60732000D02*
X39950000Y-59955000D01*
%TO.N,GND*%
X40750000Y-59955000D02*
X41705000Y-59000000D01*
X41705000Y-59000000D02*
X42000000Y-59000000D01*
%TO.N,Net-(J5-Pin_4)*%
X31500000Y-30500000D02*
X33000000Y-30500000D01*
%TO.N,GND*%
X32535000Y-35520000D02*
X32535000Y-34465000D01*
X32535000Y-34465000D02*
X36050000Y-30950000D01*
%TO.N,+3V3*%
X29500000Y-19030000D02*
X31970000Y-19030000D01*
X31970000Y-19030000D02*
X32000000Y-19000000D01*
%TO.N,Net-(J1-Pin_2)*%
X29500000Y-24110000D02*
X31610000Y-24110000D01*
X31610000Y-24110000D02*
X32000000Y-24500000D01*
%TO.N,Net-(J1-Pin_5)*%
X29500000Y-25380000D02*
X31380000Y-25380000D01*
X31380000Y-25380000D02*
X31500000Y-25500000D01*
%TO.N,Net-(J5-Pin_3)*%
X29500000Y-29190000D02*
X31690000Y-29190000D01*
X31690000Y-29190000D02*
X32000000Y-29500000D01*
%TO.N,Net-(J5-Pin_4)*%
X29500000Y-30460000D02*
X31460000Y-30460000D01*
X31460000Y-30460000D02*
X31500000Y-30500000D01*
%TO.N,Net-(J5-Pin_2)*%
X29500000Y-31730000D02*
X28550000Y-31730000D01*
X28550000Y-31730000D02*
X28449000Y-31831000D01*
X28449000Y-31831000D02*
X28449000Y-39891950D01*
X28449000Y-39891950D02*
X29601000Y-41043950D01*
X29601000Y-41043950D02*
X29601000Y-43859000D01*
X29601000Y-43859000D02*
X28960000Y-44500000D01*
%TO.N,Net-(J7-Pin_2)*%
X32920000Y-38500000D02*
X30551000Y-36131000D01*
X30551000Y-33101000D02*
X30450000Y-33000000D01*
X30551000Y-36131000D02*
X30551000Y-33101000D01*
X30450000Y-33000000D02*
X29500000Y-33000000D01*
%TO.N,Net-(J7-Pin_1)*%
X33805000Y-35520000D02*
X34071000Y-35786000D01*
X31880000Y-40000000D02*
X30380000Y-38500000D01*
X34071000Y-35786000D02*
X34071000Y-38976760D01*
X34071000Y-38976760D02*
X33047760Y-40000000D01*
X33047760Y-40000000D02*
X31880000Y-40000000D01*
%TO.N,GND*%
X38150000Y-21150000D02*
X38150000Y-21500000D01*
X47000000Y-17760000D02*
X41890000Y-17760000D01*
X41890000Y-17760000D02*
X38150000Y-21500000D01*
X29500000Y-17760000D02*
X34760000Y-17760000D01*
X38150000Y-21500000D02*
X38150000Y-23700000D01*
X34760000Y-17760000D02*
X38150000Y-21150000D01*
%TO.N,+3V3*%
X50637500Y-42500000D02*
X50637500Y-42137500D01*
X50637500Y-42137500D02*
X50000000Y-41500000D01*
%TO.N,GND*%
X52362500Y-40500000D02*
X52000000Y-40500000D01*
X52000000Y-40500000D02*
X50000000Y-38500000D01*
X52362500Y-42500000D02*
X52362500Y-40500000D01*
%TO.N,Net-(U4-C-)*%
X53101000Y-45326000D02*
X52275000Y-44500000D01*
X53101000Y-48546000D02*
X53101000Y-45326000D01*
X52425000Y-48645000D02*
X53002000Y-48645000D01*
X53002000Y-48645000D02*
X53101000Y-48546000D01*
%TO.N,GND*%
X50575000Y-48145000D02*
X50575000Y-47925000D01*
X50575000Y-47925000D02*
X51000000Y-47500000D01*
%TO.N,VCC*%
X52425000Y-48145000D02*
X52425000Y-47953000D01*
X52425000Y-47953000D02*
X50982000Y-46510000D01*
X50982000Y-46510000D02*
X50725000Y-46510000D01*
X49998000Y-48645000D02*
X49924000Y-48571000D01*
X49924000Y-48571000D02*
X49924000Y-47311000D01*
X49924000Y-47311000D02*
X50725000Y-46510000D01*
%TO.N,GND*%
X52210000Y-46510000D02*
X52275000Y-46510000D01*
X43550000Y-40880000D02*
X43080000Y-40410000D01*
X43080000Y-40410000D02*
X43080000Y-38500000D01*
%TO.N,+3V3*%
X43550000Y-44690000D02*
X39310000Y-44690000D01*
X39310000Y-44690000D02*
X39120000Y-44500000D01*
%TO.N,+5V*%
X48500000Y-40880000D02*
X50257500Y-40880000D01*
X50257500Y-40880000D02*
X50637500Y-40500000D01*
%TO.N,Net-(U1-EN)*%
X34300000Y-20300000D02*
X35250000Y-21250000D01*
X47000000Y-34270000D02*
X41518000Y-34270000D01*
X41518000Y-34270000D02*
X34549000Y-27301000D01*
X34549000Y-27301000D02*
X34549000Y-21951000D01*
X34549000Y-21951000D02*
X35250000Y-21250000D01*
%TO.N,Net-(J7-Pin_3)*%
X42695000Y-35520000D02*
X42695000Y-36052000D01*
X42695000Y-36052000D02*
X42176000Y-36571000D01*
X42176000Y-36571000D02*
X37389000Y-36571000D01*
X37389000Y-36571000D02*
X35460000Y-38500000D01*
%TO.N,Net-(U1-EN)*%
X47000000Y-34270000D02*
X44270000Y-37000000D01*
X44270000Y-37000000D02*
X42952240Y-37000000D01*
X41691000Y-38261240D02*
X41691000Y-40809000D01*
X42952240Y-37000000D02*
X41691000Y-38261240D01*
X41691000Y-40809000D02*
X41000000Y-41500000D01*
%TO.N,/TXD*%
X47000000Y-22840000D02*
X46050000Y-22840000D01*
X46050000Y-22840000D02*
X45500000Y-23390000D01*
X45500000Y-23390000D02*
X45500000Y-24000000D01*
%TO.N,/RXD*%
X47000000Y-21570000D02*
X46050000Y-21570000D01*
X46050000Y-21570000D02*
X44000000Y-23620000D01*
X44000000Y-23620000D02*
X44000000Y-24000000D01*
%TO.N,Net-(J8-Pin_1)*%
X47000000Y-29190000D02*
X48610000Y-29190000D01*
X48610000Y-29190000D02*
X50000000Y-30580000D01*
%TO.N,Net-(J8-Pin_2)*%
X47000000Y-27920000D02*
X49880000Y-27920000D01*
X49880000Y-27920000D02*
X50000000Y-28040000D01*
%TO.N,Net-(J8-Pin_3)*%
X47000000Y-26650000D02*
X48850000Y-26650000D01*
X48850000Y-26650000D02*
X50000000Y-25500000D01*
%TO.N,Net-(J8-Pin_4)*%
X47000000Y-24110000D02*
X48850000Y-24110000D01*
X48850000Y-24110000D02*
X50000000Y-22960000D01*
%TO.N,Net-(J8-Pin_5)*%
X47000000Y-20300000D02*
X49880000Y-20300000D01*
X49880000Y-20300000D02*
X50000000Y-20420000D01*
%TO.N,GND*%
X47000000Y-17760000D02*
X49880000Y-17760000D01*
X49880000Y-17760000D02*
X50000000Y-17880000D01*
%TO.N,Net-(U1-EN)*%
X29500000Y-20300000D02*
X34300000Y-20300000D01*
X35250000Y-21250000D02*
X35500000Y-21500000D01*
%TO.N,/TXD*%
X47651000Y-50537968D02*
X46000000Y-48886968D01*
X46000000Y-44253032D02*
X43896968Y-42150000D01*
X47651000Y-53151000D02*
X47651000Y-50537968D01*
X49399000Y-63979000D02*
X49399000Y-54899000D01*
X49399000Y-54899000D02*
X47651000Y-53151000D01*
X50500000Y-65080000D02*
X49399000Y-63979000D01*
X46000000Y-48886968D02*
X46000000Y-44253032D01*
%TO.N,/DTR*%
X47356207Y-44690000D02*
X46223290Y-43557083D01*
%TO.N,/TXD*%
X43896968Y-42150000D02*
X43550000Y-42150000D01*
%TO.N,/DTR*%
X48500000Y-44690000D02*
X47356207Y-44690000D01*
%TD*%
M02*
