%TF.GenerationSoftware,KiCad,Pcbnew,9.0.7*%
%TF.CreationDate,2026-02-17T08:12:27+01:00*%
%TF.ProjectId,CatPhonesV2,43617450-686f-46e6-9573-56322e6b6963,rev?*%
%TF.SameCoordinates,Original*%
%TF.FileFunction,Legend,Top*%
%TF.FilePolarity,Positive*%
%FSLAX46Y46*%
G04 Gerber Fmt 4.6, Leading zero omitted, Abs format (unit mm)*
G04 Created by KiCad (PCBNEW 9.0.7) date 2026-02-17 08:12:27*
%MOMM*%
%LPD*%
G01*
G04 APERTURE LIST*
%ADD10C,0.150000*%
%ADD11C,0.120000*%
G04 APERTURE END LIST*
D10*
X30954819Y-60396666D02*
X30478628Y-60729999D01*
X30954819Y-60968094D02*
X29954819Y-60968094D01*
X29954819Y-60968094D02*
X29954819Y-60587142D01*
X29954819Y-60587142D02*
X30002438Y-60491904D01*
X30002438Y-60491904D02*
X30050057Y-60444285D01*
X30050057Y-60444285D02*
X30145295Y-60396666D01*
X30145295Y-60396666D02*
X30288152Y-60396666D01*
X30288152Y-60396666D02*
X30383390Y-60444285D01*
X30383390Y-60444285D02*
X30431009Y-60491904D01*
X30431009Y-60491904D02*
X30478628Y-60587142D01*
X30478628Y-60587142D02*
X30478628Y-60968094D01*
X30050057Y-60015713D02*
X30002438Y-59968094D01*
X30002438Y-59968094D02*
X29954819Y-59872856D01*
X29954819Y-59872856D02*
X29954819Y-59634761D01*
X29954819Y-59634761D02*
X30002438Y-59539523D01*
X30002438Y-59539523D02*
X30050057Y-59491904D01*
X30050057Y-59491904D02*
X30145295Y-59444285D01*
X30145295Y-59444285D02*
X30240533Y-59444285D01*
X30240533Y-59444285D02*
X30383390Y-59491904D01*
X30383390Y-59491904D02*
X30954819Y-60063332D01*
X30954819Y-60063332D02*
X30954819Y-59444285D01*
X35833333Y-47954819D02*
X35500000Y-47478628D01*
X35261905Y-47954819D02*
X35261905Y-46954819D01*
X35261905Y-46954819D02*
X35642857Y-46954819D01*
X35642857Y-46954819D02*
X35738095Y-47002438D01*
X35738095Y-47002438D02*
X35785714Y-47050057D01*
X35785714Y-47050057D02*
X35833333Y-47145295D01*
X35833333Y-47145295D02*
X35833333Y-47288152D01*
X35833333Y-47288152D02*
X35785714Y-47383390D01*
X35785714Y-47383390D02*
X35738095Y-47431009D01*
X35738095Y-47431009D02*
X35642857Y-47478628D01*
X35642857Y-47478628D02*
X35261905Y-47478628D01*
X36785714Y-47954819D02*
X36214286Y-47954819D01*
X36500000Y-47954819D02*
X36500000Y-46954819D01*
X36500000Y-46954819D02*
X36404762Y-47097676D01*
X36404762Y-47097676D02*
X36309524Y-47192914D01*
X36309524Y-47192914D02*
X36214286Y-47240533D01*
X35833333Y-50954819D02*
X35500000Y-50478628D01*
X35261905Y-50954819D02*
X35261905Y-49954819D01*
X35261905Y-49954819D02*
X35642857Y-49954819D01*
X35642857Y-49954819D02*
X35738095Y-50002438D01*
X35738095Y-50002438D02*
X35785714Y-50050057D01*
X35785714Y-50050057D02*
X35833333Y-50145295D01*
X35833333Y-50145295D02*
X35833333Y-50288152D01*
X35833333Y-50288152D02*
X35785714Y-50383390D01*
X35785714Y-50383390D02*
X35738095Y-50431009D01*
X35738095Y-50431009D02*
X35642857Y-50478628D01*
X35642857Y-50478628D02*
X35261905Y-50478628D01*
X36738095Y-49954819D02*
X36261905Y-49954819D01*
X36261905Y-49954819D02*
X36214286Y-50431009D01*
X36214286Y-50431009D02*
X36261905Y-50383390D01*
X36261905Y-50383390D02*
X36357143Y-50335771D01*
X36357143Y-50335771D02*
X36595238Y-50335771D01*
X36595238Y-50335771D02*
X36690476Y-50383390D01*
X36690476Y-50383390D02*
X36738095Y-50431009D01*
X36738095Y-50431009D02*
X36785714Y-50526247D01*
X36785714Y-50526247D02*
X36785714Y-50764342D01*
X36785714Y-50764342D02*
X36738095Y-50859580D01*
X36738095Y-50859580D02*
X36690476Y-50907200D01*
X36690476Y-50907200D02*
X36595238Y-50954819D01*
X36595238Y-50954819D02*
X36357143Y-50954819D01*
X36357143Y-50954819D02*
X36261905Y-50907200D01*
X36261905Y-50907200D02*
X36214286Y-50859580D01*
X27166666Y-64414819D02*
X27166666Y-65129104D01*
X27166666Y-65129104D02*
X27119047Y-65271961D01*
X27119047Y-65271961D02*
X27023809Y-65367200D01*
X27023809Y-65367200D02*
X26880952Y-65414819D01*
X26880952Y-65414819D02*
X26785714Y-65414819D01*
X28166666Y-65414819D02*
X27595238Y-65414819D01*
X27880952Y-65414819D02*
X27880952Y-64414819D01*
X27880952Y-64414819D02*
X27785714Y-64557676D01*
X27785714Y-64557676D02*
X27690476Y-64652914D01*
X27690476Y-64652914D02*
X27595238Y-64700533D01*
X43690476Y-53954819D02*
X43690476Y-54669104D01*
X43690476Y-54669104D02*
X43642857Y-54811961D01*
X43642857Y-54811961D02*
X43547619Y-54907200D01*
X43547619Y-54907200D02*
X43404762Y-54954819D01*
X43404762Y-54954819D02*
X43309524Y-54954819D01*
X44690476Y-54954819D02*
X44119048Y-54954819D01*
X44404762Y-54954819D02*
X44404762Y-53954819D01*
X44404762Y-53954819D02*
X44309524Y-54097676D01*
X44309524Y-54097676D02*
X44214286Y-54192914D01*
X44214286Y-54192914D02*
X44119048Y-54240533D01*
X45309524Y-53954819D02*
X45404762Y-53954819D01*
X45404762Y-53954819D02*
X45500000Y-54002438D01*
X45500000Y-54002438D02*
X45547619Y-54050057D01*
X45547619Y-54050057D02*
X45595238Y-54145295D01*
X45595238Y-54145295D02*
X45642857Y-54335771D01*
X45642857Y-54335771D02*
X45642857Y-54573866D01*
X45642857Y-54573866D02*
X45595238Y-54764342D01*
X45595238Y-54764342D02*
X45547619Y-54859580D01*
X45547619Y-54859580D02*
X45500000Y-54907200D01*
X45500000Y-54907200D02*
X45404762Y-54954819D01*
X45404762Y-54954819D02*
X45309524Y-54954819D01*
X45309524Y-54954819D02*
X45214286Y-54907200D01*
X45214286Y-54907200D02*
X45166667Y-54859580D01*
X45166667Y-54859580D02*
X45119048Y-54764342D01*
X45119048Y-54764342D02*
X45071429Y-54573866D01*
X45071429Y-54573866D02*
X45071429Y-54335771D01*
X45071429Y-54335771D02*
X45119048Y-54145295D01*
X45119048Y-54145295D02*
X45166667Y-54050057D01*
X45166667Y-54050057D02*
X45214286Y-54002438D01*
X45214286Y-54002438D02*
X45309524Y-53954819D01*
X35913333Y-53954819D02*
X35580000Y-53478628D01*
X35341905Y-53954819D02*
X35341905Y-52954819D01*
X35341905Y-52954819D02*
X35722857Y-52954819D01*
X35722857Y-52954819D02*
X35818095Y-53002438D01*
X35818095Y-53002438D02*
X35865714Y-53050057D01*
X35865714Y-53050057D02*
X35913333Y-53145295D01*
X35913333Y-53145295D02*
X35913333Y-53288152D01*
X35913333Y-53288152D02*
X35865714Y-53383390D01*
X35865714Y-53383390D02*
X35818095Y-53431009D01*
X35818095Y-53431009D02*
X35722857Y-53478628D01*
X35722857Y-53478628D02*
X35341905Y-53478628D01*
X36770476Y-53288152D02*
X36770476Y-53954819D01*
X36532381Y-52907200D02*
X36294286Y-53621485D01*
X36294286Y-53621485D02*
X36913333Y-53621485D01*
X50954819Y-60166666D02*
X50478628Y-60499999D01*
X50954819Y-60738094D02*
X49954819Y-60738094D01*
X49954819Y-60738094D02*
X49954819Y-60357142D01*
X49954819Y-60357142D02*
X50002438Y-60261904D01*
X50002438Y-60261904D02*
X50050057Y-60214285D01*
X50050057Y-60214285D02*
X50145295Y-60166666D01*
X50145295Y-60166666D02*
X50288152Y-60166666D01*
X50288152Y-60166666D02*
X50383390Y-60214285D01*
X50383390Y-60214285D02*
X50431009Y-60261904D01*
X50431009Y-60261904D02*
X50478628Y-60357142D01*
X50478628Y-60357142D02*
X50478628Y-60738094D01*
X49954819Y-59833332D02*
X49954819Y-59214285D01*
X49954819Y-59214285D02*
X50335771Y-59547618D01*
X50335771Y-59547618D02*
X50335771Y-59404761D01*
X50335771Y-59404761D02*
X50383390Y-59309523D01*
X50383390Y-59309523D02*
X50431009Y-59261904D01*
X50431009Y-59261904D02*
X50526247Y-59214285D01*
X50526247Y-59214285D02*
X50764342Y-59214285D01*
X50764342Y-59214285D02*
X50859580Y-59261904D01*
X50859580Y-59261904D02*
X50907200Y-59309523D01*
X50907200Y-59309523D02*
X50954819Y-59404761D01*
X50954819Y-59404761D02*
X50954819Y-59690475D01*
X50954819Y-59690475D02*
X50907200Y-59785713D01*
X50907200Y-59785713D02*
X50859580Y-59833332D01*
X37238095Y-17454819D02*
X37238095Y-18264342D01*
X37238095Y-18264342D02*
X37285714Y-18359580D01*
X37285714Y-18359580D02*
X37333333Y-18407200D01*
X37333333Y-18407200D02*
X37428571Y-18454819D01*
X37428571Y-18454819D02*
X37619047Y-18454819D01*
X37619047Y-18454819D02*
X37714285Y-18407200D01*
X37714285Y-18407200D02*
X37761904Y-18359580D01*
X37761904Y-18359580D02*
X37809523Y-18264342D01*
X37809523Y-18264342D02*
X37809523Y-17454819D01*
X38809523Y-18454819D02*
X38238095Y-18454819D01*
X38523809Y-18454819D02*
X38523809Y-17454819D01*
X38523809Y-17454819D02*
X38428571Y-17597676D01*
X38428571Y-17597676D02*
X38333333Y-17692914D01*
X38333333Y-17692914D02*
X38238095Y-17740533D01*
X48454819Y-65809523D02*
X49169104Y-65809523D01*
X49169104Y-65809523D02*
X49311961Y-65857142D01*
X49311961Y-65857142D02*
X49407200Y-65952380D01*
X49407200Y-65952380D02*
X49454819Y-66095237D01*
X49454819Y-66095237D02*
X49454819Y-66190475D01*
X49454819Y-64809523D02*
X49454819Y-65380951D01*
X49454819Y-65095237D02*
X48454819Y-65095237D01*
X48454819Y-65095237D02*
X48597676Y-65190475D01*
X48597676Y-65190475D02*
X48692914Y-65285713D01*
X48692914Y-65285713D02*
X48740533Y-65380951D01*
X49454819Y-63857142D02*
X49454819Y-64428570D01*
X49454819Y-64142856D02*
X48454819Y-64142856D01*
X48454819Y-64142856D02*
X48597676Y-64238094D01*
X48597676Y-64238094D02*
X48692914Y-64333332D01*
X48692914Y-64333332D02*
X48740533Y-64428570D01*
X36690476Y-63454819D02*
X36690476Y-64169104D01*
X36690476Y-64169104D02*
X36642857Y-64311961D01*
X36642857Y-64311961D02*
X36547619Y-64407200D01*
X36547619Y-64407200D02*
X36404762Y-64454819D01*
X36404762Y-64454819D02*
X36309524Y-64454819D01*
X37690476Y-64454819D02*
X37119048Y-64454819D01*
X37404762Y-64454819D02*
X37404762Y-63454819D01*
X37404762Y-63454819D02*
X37309524Y-63597676D01*
X37309524Y-63597676D02*
X37214286Y-63692914D01*
X37214286Y-63692914D02*
X37119048Y-63740533D01*
X38023810Y-63454819D02*
X38642857Y-63454819D01*
X38642857Y-63454819D02*
X38309524Y-63835771D01*
X38309524Y-63835771D02*
X38452381Y-63835771D01*
X38452381Y-63835771D02*
X38547619Y-63883390D01*
X38547619Y-63883390D02*
X38595238Y-63931009D01*
X38595238Y-63931009D02*
X38642857Y-64026247D01*
X38642857Y-64026247D02*
X38642857Y-64264342D01*
X38642857Y-64264342D02*
X38595238Y-64359580D01*
X38595238Y-64359580D02*
X38547619Y-64407200D01*
X38547619Y-64407200D02*
X38452381Y-64454819D01*
X38452381Y-64454819D02*
X38166667Y-64454819D01*
X38166667Y-64454819D02*
X38071429Y-64407200D01*
X38071429Y-64407200D02*
X38023810Y-64359580D01*
X50738095Y-49454819D02*
X50738095Y-50264342D01*
X50738095Y-50264342D02*
X50785714Y-50359580D01*
X50785714Y-50359580D02*
X50833333Y-50407200D01*
X50833333Y-50407200D02*
X50928571Y-50454819D01*
X50928571Y-50454819D02*
X51119047Y-50454819D01*
X51119047Y-50454819D02*
X51214285Y-50407200D01*
X51214285Y-50407200D02*
X51261904Y-50359580D01*
X51261904Y-50359580D02*
X51309523Y-50264342D01*
X51309523Y-50264342D02*
X51309523Y-49454819D01*
X52214285Y-49788152D02*
X52214285Y-50454819D01*
X51976190Y-49407200D02*
X51738095Y-50121485D01*
X51738095Y-50121485D02*
X52357142Y-50121485D01*
X24954819Y-41761904D02*
X25764342Y-41761904D01*
X25764342Y-41761904D02*
X25859580Y-41714285D01*
X25859580Y-41714285D02*
X25907200Y-41666666D01*
X25907200Y-41666666D02*
X25954819Y-41571428D01*
X25954819Y-41571428D02*
X25954819Y-41380952D01*
X25954819Y-41380952D02*
X25907200Y-41285714D01*
X25907200Y-41285714D02*
X25859580Y-41238095D01*
X25859580Y-41238095D02*
X25764342Y-41190476D01*
X25764342Y-41190476D02*
X24954819Y-41190476D01*
X24954819Y-40809523D02*
X24954819Y-40190476D01*
X24954819Y-40190476D02*
X25335771Y-40523809D01*
X25335771Y-40523809D02*
X25335771Y-40380952D01*
X25335771Y-40380952D02*
X25383390Y-40285714D01*
X25383390Y-40285714D02*
X25431009Y-40238095D01*
X25431009Y-40238095D02*
X25526247Y-40190476D01*
X25526247Y-40190476D02*
X25764342Y-40190476D01*
X25764342Y-40190476D02*
X25859580Y-40238095D01*
X25859580Y-40238095D02*
X25907200Y-40285714D01*
X25907200Y-40285714D02*
X25954819Y-40380952D01*
X25954819Y-40380952D02*
X25954819Y-40666666D01*
X25954819Y-40666666D02*
X25907200Y-40761904D01*
X25907200Y-40761904D02*
X25859580Y-40809523D01*
X45263095Y-44779819D02*
X45263095Y-45589342D01*
X45263095Y-45589342D02*
X45310714Y-45684580D01*
X45310714Y-45684580D02*
X45358333Y-45732200D01*
X45358333Y-45732200D02*
X45453571Y-45779819D01*
X45453571Y-45779819D02*
X45644047Y-45779819D01*
X45644047Y-45779819D02*
X45739285Y-45732200D01*
X45739285Y-45732200D02*
X45786904Y-45684580D01*
X45786904Y-45684580D02*
X45834523Y-45589342D01*
X45834523Y-45589342D02*
X45834523Y-44779819D01*
X46263095Y-44875057D02*
X46310714Y-44827438D01*
X46310714Y-44827438D02*
X46405952Y-44779819D01*
X46405952Y-44779819D02*
X46644047Y-44779819D01*
X46644047Y-44779819D02*
X46739285Y-44827438D01*
X46739285Y-44827438D02*
X46786904Y-44875057D01*
X46786904Y-44875057D02*
X46834523Y-44970295D01*
X46834523Y-44970295D02*
X46834523Y-45065533D01*
X46834523Y-45065533D02*
X46786904Y-45208390D01*
X46786904Y-45208390D02*
X46215476Y-45779819D01*
X46215476Y-45779819D02*
X46834523Y-45779819D01*
X27454819Y-25309523D02*
X28169104Y-25309523D01*
X28169104Y-25309523D02*
X28311961Y-25357142D01*
X28311961Y-25357142D02*
X28407200Y-25452380D01*
X28407200Y-25452380D02*
X28454819Y-25595237D01*
X28454819Y-25595237D02*
X28454819Y-25690475D01*
X28454819Y-24309523D02*
X28454819Y-24880951D01*
X28454819Y-24595237D02*
X27454819Y-24595237D01*
X27454819Y-24595237D02*
X27597676Y-24690475D01*
X27597676Y-24690475D02*
X27692914Y-24785713D01*
X27692914Y-24785713D02*
X27740533Y-24880951D01*
X27550057Y-23928570D02*
X27502438Y-23880951D01*
X27502438Y-23880951D02*
X27454819Y-23785713D01*
X27454819Y-23785713D02*
X27454819Y-23547618D01*
X27454819Y-23547618D02*
X27502438Y-23452380D01*
X27502438Y-23452380D02*
X27550057Y-23404761D01*
X27550057Y-23404761D02*
X27645295Y-23357142D01*
X27645295Y-23357142D02*
X27740533Y-23357142D01*
X27740533Y-23357142D02*
X27883390Y-23404761D01*
X27883390Y-23404761D02*
X28454819Y-23976189D01*
X28454819Y-23976189D02*
X28454819Y-23357142D01*
X49666666Y-30034819D02*
X49666666Y-30749104D01*
X49666666Y-30749104D02*
X49619047Y-30891961D01*
X49619047Y-30891961D02*
X49523809Y-30987200D01*
X49523809Y-30987200D02*
X49380952Y-31034819D01*
X49380952Y-31034819D02*
X49285714Y-31034819D01*
X50285714Y-30463390D02*
X50190476Y-30415771D01*
X50190476Y-30415771D02*
X50142857Y-30368152D01*
X50142857Y-30368152D02*
X50095238Y-30272914D01*
X50095238Y-30272914D02*
X50095238Y-30225295D01*
X50095238Y-30225295D02*
X50142857Y-30130057D01*
X50142857Y-30130057D02*
X50190476Y-30082438D01*
X50190476Y-30082438D02*
X50285714Y-30034819D01*
X50285714Y-30034819D02*
X50476190Y-30034819D01*
X50476190Y-30034819D02*
X50571428Y-30082438D01*
X50571428Y-30082438D02*
X50619047Y-30130057D01*
X50619047Y-30130057D02*
X50666666Y-30225295D01*
X50666666Y-30225295D02*
X50666666Y-30272914D01*
X50666666Y-30272914D02*
X50619047Y-30368152D01*
X50619047Y-30368152D02*
X50571428Y-30415771D01*
X50571428Y-30415771D02*
X50476190Y-30463390D01*
X50476190Y-30463390D02*
X50285714Y-30463390D01*
X50285714Y-30463390D02*
X50190476Y-30511009D01*
X50190476Y-30511009D02*
X50142857Y-30558628D01*
X50142857Y-30558628D02*
X50095238Y-30653866D01*
X50095238Y-30653866D02*
X50095238Y-30844342D01*
X50095238Y-30844342D02*
X50142857Y-30939580D01*
X50142857Y-30939580D02*
X50190476Y-30987200D01*
X50190476Y-30987200D02*
X50285714Y-31034819D01*
X50285714Y-31034819D02*
X50476190Y-31034819D01*
X50476190Y-31034819D02*
X50571428Y-30987200D01*
X50571428Y-30987200D02*
X50619047Y-30939580D01*
X50619047Y-30939580D02*
X50666666Y-30844342D01*
X50666666Y-30844342D02*
X50666666Y-30653866D01*
X50666666Y-30653866D02*
X50619047Y-30558628D01*
X50619047Y-30558628D02*
X50571428Y-30511009D01*
X50571428Y-30511009D02*
X50476190Y-30463390D01*
X29834819Y-38833333D02*
X30549104Y-38833333D01*
X30549104Y-38833333D02*
X30691961Y-38880952D01*
X30691961Y-38880952D02*
X30787200Y-38976190D01*
X30787200Y-38976190D02*
X30834819Y-39119047D01*
X30834819Y-39119047D02*
X30834819Y-39214285D01*
X29834819Y-38452380D02*
X29834819Y-37785714D01*
X29834819Y-37785714D02*
X30834819Y-38214285D01*
X28166666Y-45954819D02*
X28166666Y-46669104D01*
X28166666Y-46669104D02*
X28119047Y-46811961D01*
X28119047Y-46811961D02*
X28023809Y-46907200D01*
X28023809Y-46907200D02*
X27880952Y-46954819D01*
X27880952Y-46954819D02*
X27785714Y-46954819D01*
X29119047Y-45954819D02*
X28642857Y-45954819D01*
X28642857Y-45954819D02*
X28595238Y-46431009D01*
X28595238Y-46431009D02*
X28642857Y-46383390D01*
X28642857Y-46383390D02*
X28738095Y-46335771D01*
X28738095Y-46335771D02*
X28976190Y-46335771D01*
X28976190Y-46335771D02*
X29071428Y-46383390D01*
X29071428Y-46383390D02*
X29119047Y-46431009D01*
X29119047Y-46431009D02*
X29166666Y-46526247D01*
X29166666Y-46526247D02*
X29166666Y-46764342D01*
X29166666Y-46764342D02*
X29119047Y-46859580D01*
X29119047Y-46859580D02*
X29071428Y-46907200D01*
X29071428Y-46907200D02*
X28976190Y-46954819D01*
X28976190Y-46954819D02*
X28738095Y-46954819D01*
X28738095Y-46954819D02*
X28642857Y-46907200D01*
X28642857Y-46907200D02*
X28595238Y-46859580D01*
X30833333Y-41859580D02*
X30785714Y-41907200D01*
X30785714Y-41907200D02*
X30642857Y-41954819D01*
X30642857Y-41954819D02*
X30547619Y-41954819D01*
X30547619Y-41954819D02*
X30404762Y-41907200D01*
X30404762Y-41907200D02*
X30309524Y-41811961D01*
X30309524Y-41811961D02*
X30261905Y-41716723D01*
X30261905Y-41716723D02*
X30214286Y-41526247D01*
X30214286Y-41526247D02*
X30214286Y-41383390D01*
X30214286Y-41383390D02*
X30261905Y-41192914D01*
X30261905Y-41192914D02*
X30309524Y-41097676D01*
X30309524Y-41097676D02*
X30404762Y-41002438D01*
X30404762Y-41002438D02*
X30547619Y-40954819D01*
X30547619Y-40954819D02*
X30642857Y-40954819D01*
X30642857Y-40954819D02*
X30785714Y-41002438D01*
X30785714Y-41002438D02*
X30833333Y-41050057D01*
X31404762Y-41383390D02*
X31309524Y-41335771D01*
X31309524Y-41335771D02*
X31261905Y-41288152D01*
X31261905Y-41288152D02*
X31214286Y-41192914D01*
X31214286Y-41192914D02*
X31214286Y-41145295D01*
X31214286Y-41145295D02*
X31261905Y-41050057D01*
X31261905Y-41050057D02*
X31309524Y-41002438D01*
X31309524Y-41002438D02*
X31404762Y-40954819D01*
X31404762Y-40954819D02*
X31595238Y-40954819D01*
X31595238Y-40954819D02*
X31690476Y-41002438D01*
X31690476Y-41002438D02*
X31738095Y-41050057D01*
X31738095Y-41050057D02*
X31785714Y-41145295D01*
X31785714Y-41145295D02*
X31785714Y-41192914D01*
X31785714Y-41192914D02*
X31738095Y-41288152D01*
X31738095Y-41288152D02*
X31690476Y-41335771D01*
X31690476Y-41335771D02*
X31595238Y-41383390D01*
X31595238Y-41383390D02*
X31404762Y-41383390D01*
X31404762Y-41383390D02*
X31309524Y-41431009D01*
X31309524Y-41431009D02*
X31261905Y-41478628D01*
X31261905Y-41478628D02*
X31214286Y-41573866D01*
X31214286Y-41573866D02*
X31214286Y-41764342D01*
X31214286Y-41764342D02*
X31261905Y-41859580D01*
X31261905Y-41859580D02*
X31309524Y-41907200D01*
X31309524Y-41907200D02*
X31404762Y-41954819D01*
X31404762Y-41954819D02*
X31595238Y-41954819D01*
X31595238Y-41954819D02*
X31690476Y-41907200D01*
X31690476Y-41907200D02*
X31738095Y-41859580D01*
X31738095Y-41859580D02*
X31785714Y-41764342D01*
X31785714Y-41764342D02*
X31785714Y-41573866D01*
X31785714Y-41573866D02*
X31738095Y-41478628D01*
X31738095Y-41478628D02*
X31690476Y-41431009D01*
X31690476Y-41431009D02*
X31595238Y-41383390D01*
X38333333Y-41859580D02*
X38285714Y-41907200D01*
X38285714Y-41907200D02*
X38142857Y-41954819D01*
X38142857Y-41954819D02*
X38047619Y-41954819D01*
X38047619Y-41954819D02*
X37904762Y-41907200D01*
X37904762Y-41907200D02*
X37809524Y-41811961D01*
X37809524Y-41811961D02*
X37761905Y-41716723D01*
X37761905Y-41716723D02*
X37714286Y-41526247D01*
X37714286Y-41526247D02*
X37714286Y-41383390D01*
X37714286Y-41383390D02*
X37761905Y-41192914D01*
X37761905Y-41192914D02*
X37809524Y-41097676D01*
X37809524Y-41097676D02*
X37904762Y-41002438D01*
X37904762Y-41002438D02*
X38047619Y-40954819D01*
X38047619Y-40954819D02*
X38142857Y-40954819D01*
X38142857Y-40954819D02*
X38285714Y-41002438D01*
X38285714Y-41002438D02*
X38333333Y-41050057D01*
X38666667Y-40954819D02*
X39333333Y-40954819D01*
X39333333Y-40954819D02*
X38904762Y-41954819D01*
X50359580Y-35666666D02*
X50407200Y-35714285D01*
X50407200Y-35714285D02*
X50454819Y-35857142D01*
X50454819Y-35857142D02*
X50454819Y-35952380D01*
X50454819Y-35952380D02*
X50407200Y-36095237D01*
X50407200Y-36095237D02*
X50311961Y-36190475D01*
X50311961Y-36190475D02*
X50216723Y-36238094D01*
X50216723Y-36238094D02*
X50026247Y-36285713D01*
X50026247Y-36285713D02*
X49883390Y-36285713D01*
X49883390Y-36285713D02*
X49692914Y-36238094D01*
X49692914Y-36238094D02*
X49597676Y-36190475D01*
X49597676Y-36190475D02*
X49502438Y-36095237D01*
X49502438Y-36095237D02*
X49454819Y-35952380D01*
X49454819Y-35952380D02*
X49454819Y-35857142D01*
X49454819Y-35857142D02*
X49502438Y-35714285D01*
X49502438Y-35714285D02*
X49550057Y-35666666D01*
X49454819Y-34761904D02*
X49454819Y-35238094D01*
X49454819Y-35238094D02*
X49931009Y-35285713D01*
X49931009Y-35285713D02*
X49883390Y-35238094D01*
X49883390Y-35238094D02*
X49835771Y-35142856D01*
X49835771Y-35142856D02*
X49835771Y-34904761D01*
X49835771Y-34904761D02*
X49883390Y-34809523D01*
X49883390Y-34809523D02*
X49931009Y-34761904D01*
X49931009Y-34761904D02*
X50026247Y-34714285D01*
X50026247Y-34714285D02*
X50264342Y-34714285D01*
X50264342Y-34714285D02*
X50359580Y-34761904D01*
X50359580Y-34761904D02*
X50407200Y-34809523D01*
X50407200Y-34809523D02*
X50454819Y-34904761D01*
X50454819Y-34904761D02*
X50454819Y-35142856D01*
X50454819Y-35142856D02*
X50407200Y-35238094D01*
X50407200Y-35238094D02*
X50359580Y-35285713D01*
X51333333Y-45859580D02*
X51285714Y-45907200D01*
X51285714Y-45907200D02*
X51142857Y-45954819D01*
X51142857Y-45954819D02*
X51047619Y-45954819D01*
X51047619Y-45954819D02*
X50904762Y-45907200D01*
X50904762Y-45907200D02*
X50809524Y-45811961D01*
X50809524Y-45811961D02*
X50761905Y-45716723D01*
X50761905Y-45716723D02*
X50714286Y-45526247D01*
X50714286Y-45526247D02*
X50714286Y-45383390D01*
X50714286Y-45383390D02*
X50761905Y-45192914D01*
X50761905Y-45192914D02*
X50809524Y-45097676D01*
X50809524Y-45097676D02*
X50904762Y-45002438D01*
X50904762Y-45002438D02*
X51047619Y-44954819D01*
X51047619Y-44954819D02*
X51142857Y-44954819D01*
X51142857Y-44954819D02*
X51285714Y-45002438D01*
X51285714Y-45002438D02*
X51333333Y-45050057D01*
X52190476Y-45288152D02*
X52190476Y-45954819D01*
X51952381Y-44907200D02*
X51714286Y-45621485D01*
X51714286Y-45621485D02*
X52333333Y-45621485D01*
X51333333Y-41859580D02*
X51285714Y-41907200D01*
X51285714Y-41907200D02*
X51142857Y-41954819D01*
X51142857Y-41954819D02*
X51047619Y-41954819D01*
X51047619Y-41954819D02*
X50904762Y-41907200D01*
X50904762Y-41907200D02*
X50809524Y-41811961D01*
X50809524Y-41811961D02*
X50761905Y-41716723D01*
X50761905Y-41716723D02*
X50714286Y-41526247D01*
X50714286Y-41526247D02*
X50714286Y-41383390D01*
X50714286Y-41383390D02*
X50761905Y-41192914D01*
X50761905Y-41192914D02*
X50809524Y-41097676D01*
X50809524Y-41097676D02*
X50904762Y-41002438D01*
X50904762Y-41002438D02*
X51047619Y-40954819D01*
X51047619Y-40954819D02*
X51142857Y-40954819D01*
X51142857Y-40954819D02*
X51285714Y-41002438D01*
X51285714Y-41002438D02*
X51333333Y-41050057D01*
X51666667Y-40954819D02*
X52285714Y-40954819D01*
X52285714Y-40954819D02*
X51952381Y-41335771D01*
X51952381Y-41335771D02*
X52095238Y-41335771D01*
X52095238Y-41335771D02*
X52190476Y-41383390D01*
X52190476Y-41383390D02*
X52238095Y-41431009D01*
X52238095Y-41431009D02*
X52285714Y-41526247D01*
X52285714Y-41526247D02*
X52285714Y-41764342D01*
X52285714Y-41764342D02*
X52238095Y-41859580D01*
X52238095Y-41859580D02*
X52190476Y-41907200D01*
X52190476Y-41907200D02*
X52095238Y-41954819D01*
X52095238Y-41954819D02*
X51809524Y-41954819D01*
X51809524Y-41954819D02*
X51714286Y-41907200D01*
X51714286Y-41907200D02*
X51666667Y-41859580D01*
X51333333Y-39859580D02*
X51285714Y-39907200D01*
X51285714Y-39907200D02*
X51142857Y-39954819D01*
X51142857Y-39954819D02*
X51047619Y-39954819D01*
X51047619Y-39954819D02*
X50904762Y-39907200D01*
X50904762Y-39907200D02*
X50809524Y-39811961D01*
X50809524Y-39811961D02*
X50761905Y-39716723D01*
X50761905Y-39716723D02*
X50714286Y-39526247D01*
X50714286Y-39526247D02*
X50714286Y-39383390D01*
X50714286Y-39383390D02*
X50761905Y-39192914D01*
X50761905Y-39192914D02*
X50809524Y-39097676D01*
X50809524Y-39097676D02*
X50904762Y-39002438D01*
X50904762Y-39002438D02*
X51047619Y-38954819D01*
X51047619Y-38954819D02*
X51142857Y-38954819D01*
X51142857Y-38954819D02*
X51285714Y-39002438D01*
X51285714Y-39002438D02*
X51333333Y-39050057D01*
X51714286Y-39050057D02*
X51761905Y-39002438D01*
X51761905Y-39002438D02*
X51857143Y-38954819D01*
X51857143Y-38954819D02*
X52095238Y-38954819D01*
X52095238Y-38954819D02*
X52190476Y-39002438D01*
X52190476Y-39002438D02*
X52238095Y-39050057D01*
X52238095Y-39050057D02*
X52285714Y-39145295D01*
X52285714Y-39145295D02*
X52285714Y-39240533D01*
X52285714Y-39240533D02*
X52238095Y-39383390D01*
X52238095Y-39383390D02*
X51666667Y-39954819D01*
X51666667Y-39954819D02*
X52285714Y-39954819D01*
X51333333Y-43859580D02*
X51285714Y-43907200D01*
X51285714Y-43907200D02*
X51142857Y-43954819D01*
X51142857Y-43954819D02*
X51047619Y-43954819D01*
X51047619Y-43954819D02*
X50904762Y-43907200D01*
X50904762Y-43907200D02*
X50809524Y-43811961D01*
X50809524Y-43811961D02*
X50761905Y-43716723D01*
X50761905Y-43716723D02*
X50714286Y-43526247D01*
X50714286Y-43526247D02*
X50714286Y-43383390D01*
X50714286Y-43383390D02*
X50761905Y-43192914D01*
X50761905Y-43192914D02*
X50809524Y-43097676D01*
X50809524Y-43097676D02*
X50904762Y-43002438D01*
X50904762Y-43002438D02*
X51047619Y-42954819D01*
X51047619Y-42954819D02*
X51142857Y-42954819D01*
X51142857Y-42954819D02*
X51285714Y-43002438D01*
X51285714Y-43002438D02*
X51333333Y-43050057D01*
X52285714Y-43954819D02*
X51714286Y-43954819D01*
X52000000Y-43954819D02*
X52000000Y-42954819D01*
X52000000Y-42954819D02*
X51904762Y-43097676D01*
X51904762Y-43097676D02*
X51809524Y-43192914D01*
X51809524Y-43192914D02*
X51714286Y-43240533D01*
D11*
%TO.C,R2*%
X29130000Y-63770000D02*
X29130000Y-57230000D01*
X29460000Y-63770000D02*
X29130000Y-63770000D01*
X31540000Y-63770000D02*
X31870000Y-63770000D01*
X31870000Y-63770000D02*
X31870000Y-57230000D01*
X29130000Y-57230000D02*
X29460000Y-57230000D01*
X31870000Y-57230000D02*
X31540000Y-57230000D01*
%TO.C,R1*%
X31960000Y-47500000D02*
X32730000Y-47500000D01*
X40040000Y-47500000D02*
X39270000Y-47500000D01*
X32730000Y-46130000D02*
X39270000Y-46130000D01*
X39270000Y-48870000D01*
X32730000Y-48870000D01*
X32730000Y-46130000D01*
%TO.C,R5*%
X40040000Y-50500000D02*
X39270000Y-50500000D01*
X31960000Y-50500000D02*
X32730000Y-50500000D01*
X39270000Y-51870000D02*
X32730000Y-51870000D01*
X32730000Y-49130000D01*
X39270000Y-49130000D01*
X39270000Y-51870000D01*
%TO.C,J1*%
X26120000Y-61310000D02*
X26120000Y-48500000D01*
X28880000Y-48500000D02*
X26120000Y-48500000D01*
X28880000Y-61310000D02*
X26120000Y-61310000D01*
X28880000Y-61310000D02*
X28880000Y-48500000D01*
X28880000Y-62580000D02*
X28880000Y-63960000D01*
X28880000Y-63960000D02*
X27500000Y-63960000D01*
%TO.C,J10*%
X50310000Y-53380000D02*
X42580000Y-53380000D01*
X42580000Y-50620000D02*
X42580000Y-53380000D01*
X50310000Y-50620000D02*
X50310000Y-53380000D01*
X50310000Y-50620000D02*
X42580000Y-50620000D01*
X51580000Y-50620000D02*
X52960000Y-50620000D01*
X52960000Y-50620000D02*
X52960000Y-52000000D01*
%TO.C,R4*%
X40120000Y-53500000D02*
X39350000Y-53500000D01*
X32040000Y-53500000D02*
X32810000Y-53500000D01*
X39350000Y-54870000D02*
X32810000Y-54870000D01*
X32810000Y-52130000D01*
X39350000Y-52130000D01*
X39350000Y-54870000D01*
%TO.C,R3*%
X51870000Y-56730000D02*
X49130000Y-56730000D01*
X49130000Y-63270000D01*
X51870000Y-63270000D01*
X51870000Y-56730000D01*
X50500000Y-64040000D02*
X50500000Y-63270000D01*
X50500000Y-55960000D02*
X50500000Y-56730000D01*
%TO.C,U1*%
X29140000Y-17020000D02*
X28640000Y-17020000D01*
X29140000Y-16520000D01*
X29140000Y-17020000D01*
G36*
X29140000Y-17020000D02*
G01*
X28640000Y-17020000D01*
X29140000Y-16520000D01*
X29140000Y-17020000D01*
G37*
X47360000Y-34980000D02*
X47360000Y-35880000D01*
X47360000Y-16460000D02*
X47360000Y-17050000D01*
X44675000Y-35880000D02*
X47360000Y-35880000D01*
X29450000Y-16460000D02*
X47360000Y-16460000D01*
X29140000Y-35880000D02*
X31825000Y-35880000D01*
X29140000Y-34980000D02*
X29140000Y-35880000D01*
%TO.C,J11*%
X48380000Y-56190000D02*
X48380000Y-66460000D01*
X45620000Y-66460000D02*
X48380000Y-66460000D01*
X45620000Y-56190000D02*
X48380000Y-56190000D01*
X45620000Y-56190000D02*
X45620000Y-66460000D01*
X45620000Y-54920000D02*
X45620000Y-53540000D01*
X45620000Y-53540000D02*
X47000000Y-53540000D01*
%TO.C,J13*%
X42200000Y-66000000D02*
X42200000Y-67900000D01*
X42200000Y-62100000D02*
X42200000Y-64100000D01*
X32800000Y-67900000D02*
X42200000Y-67900000D01*
X32800000Y-66000000D02*
X32800000Y-67900000D01*
X32800000Y-62100000D02*
X32800000Y-64100000D01*
%TO.C,U4*%
X50040000Y-47825000D02*
X49760000Y-47825000D01*
X50040000Y-47545000D01*
X50040000Y-47825000D01*
G36*
X50040000Y-47825000D02*
G01*
X49760000Y-47825000D01*
X50040000Y-47545000D01*
X50040000Y-47825000D01*
G37*
X50500000Y-49755000D02*
X52500000Y-49755000D01*
X50500000Y-47535000D02*
X52500000Y-47535000D01*
%TO.C,U3*%
X26260000Y-42560000D02*
X24740000Y-42560000D01*
X26260000Y-42510000D02*
X26260000Y-42560000D01*
X26260000Y-40610000D02*
X26260000Y-41390000D01*
X26260000Y-39440000D02*
X26260000Y-39490000D01*
X24740000Y-42560000D02*
X24740000Y-41560000D01*
X24740000Y-40440000D02*
X24740000Y-39440000D01*
X24740000Y-39440000D02*
X26260000Y-39440000D01*
X26800000Y-41380000D02*
X26560000Y-41050000D01*
X27040000Y-41050000D01*
X26800000Y-41380000D01*
G36*
X26800000Y-41380000D02*
G01*
X26560000Y-41050000D01*
X27040000Y-41050000D01*
X26800000Y-41380000D01*
G37*
%TO.C,U2*%
X43965000Y-40265000D02*
X48085000Y-40265000D01*
X43965000Y-40320000D02*
X43965000Y-40265000D01*
X43965000Y-50385000D02*
X43965000Y-50330000D01*
X48085000Y-40265000D02*
X48085000Y-40320000D01*
X48085000Y-50330000D02*
X48085000Y-50385000D01*
X48085000Y-50385000D02*
X43965000Y-50385000D01*
X43425000Y-40315000D02*
X43185000Y-39985000D01*
X43665000Y-39985000D01*
X43425000Y-40315000D01*
G36*
X43425000Y-40315000D02*
G01*
X43185000Y-39985000D01*
X43665000Y-39985000D01*
X43425000Y-40315000D01*
G37*
%TO.C,J12*%
X25120000Y-16300000D02*
X26500000Y-16300000D01*
X25120000Y-17680000D02*
X25120000Y-16300000D01*
X25120000Y-18950000D02*
X25120000Y-39380000D01*
X25120000Y-18950000D02*
X27880000Y-18950000D01*
X25120000Y-39380000D02*
X27880000Y-39380000D01*
X27880000Y-18950000D02*
X27880000Y-39380000D01*
%TO.C,J8*%
X51380000Y-31960000D02*
X50000000Y-31960000D01*
X51380000Y-30580000D02*
X51380000Y-31960000D01*
X51380000Y-29310000D02*
X51380000Y-16500000D01*
X51380000Y-29310000D02*
X48620000Y-29310000D01*
X51380000Y-16500000D02*
X48620000Y-16500000D01*
X48620000Y-29310000D02*
X48620000Y-16500000D01*
%TO.C,J7*%
X29000000Y-39880000D02*
X29000000Y-38500000D01*
X30380000Y-39880000D02*
X29000000Y-39880000D01*
X31650000Y-39880000D02*
X47000000Y-39880000D01*
X31650000Y-39880000D02*
X31650000Y-37120000D01*
X47000000Y-39880000D02*
X47000000Y-37120000D01*
X31650000Y-37120000D02*
X47000000Y-37120000D01*
%TO.C,J5*%
X25040000Y-45880000D02*
X25040000Y-44500000D01*
X26420000Y-45880000D02*
X25040000Y-45880000D01*
X27690000Y-45880000D02*
X40500000Y-45880000D01*
X27690000Y-45880000D02*
X27690000Y-43120000D01*
X40500000Y-45880000D02*
X40500000Y-43120000D01*
X27690000Y-43120000D02*
X40500000Y-43120000D01*
%TO.C,C8*%
X28730000Y-40430000D02*
X33270000Y-40430000D01*
X28730000Y-40486000D02*
X28730000Y-40430000D01*
X33270000Y-42514000D02*
X33270000Y-42570000D01*
X33270000Y-42570000D02*
X28730000Y-42570000D01*
%TO.C,C7*%
X36230000Y-40430000D02*
X40770000Y-40430000D01*
X36230000Y-40486000D02*
X36230000Y-40430000D01*
X40770000Y-42514000D02*
X40770000Y-42570000D01*
X40770000Y-42570000D02*
X36230000Y-42570000D01*
%TO.C,C5*%
X51070000Y-33730000D02*
X51070000Y-38270000D01*
X51014000Y-33730000D02*
X51070000Y-33730000D01*
X48986000Y-38270000D02*
X48930000Y-38270000D01*
X48930000Y-38270000D02*
X48930000Y-33730000D01*
%TO.C,C4*%
X51359420Y-46000000D02*
X51640580Y-46000000D01*
X51359420Y-47020000D02*
X51640580Y-47020000D01*
%TO.C,C3*%
X51353733Y-41990000D02*
X51646267Y-41990000D01*
X51353733Y-43010000D02*
X51646267Y-43010000D01*
%TO.C,C2*%
X51353733Y-39990000D02*
X51646267Y-39990000D01*
X51353733Y-41010000D02*
X51646267Y-41010000D01*
%TO.C,C1*%
X51640580Y-45010000D02*
X51359420Y-45010000D01*
X51640580Y-43990000D02*
X51359420Y-43990000D01*
%TD*%
M02*
