%TF.GenerationSoftware,KiCad,Pcbnew,9.0.7*%
%TF.CreationDate,2026-02-17T08:12:27+01:00*%
%TF.ProjectId,CatPhonesV2,43617450-686f-46e6-9573-56322e6b6963,rev?*%
%TF.SameCoordinates,Original*%
%TF.FileFunction,Soldermask,Bot*%
%TF.FilePolarity,Negative*%
%FSLAX46Y46*%
G04 Gerber Fmt 4.6, Leading zero omitted, Abs format (unit mm)*
G04 Created by KiCad (PCBNEW 9.0.7) date 2026-02-17 08:12:27*
%MOMM*%
%LPD*%
G01*
G04 APERTURE LIST*
%ADD10C,1.600000*%
%ADD11C,1.700000*%
%ADD12R,1.700000X1.700000*%
%ADD13C,1.500000*%
%ADD14R,2.000000X1.500000*%
%ADD15O,1.000000X1.600000*%
%ADD16O,1.000000X2.100000*%
%ADD17C,0.650000*%
G04 APERTURE END LIST*
D10*
%TO.C,R2*%
X30500000Y-64310000D03*
X30500000Y-56690000D03*
%TD*%
%TO.C,R1*%
X30920000Y-47500000D03*
X41080000Y-47500000D03*
%TD*%
%TO.C,R5*%
X41080000Y-50500000D03*
X30920000Y-50500000D03*
%TD*%
D11*
%TO.C,J1*%
X27500000Y-49880000D03*
X27500000Y-52420000D03*
X27500000Y-54960000D03*
X27500000Y-57500000D03*
X27500000Y-60040000D03*
D12*
X27500000Y-62580000D03*
%TD*%
D13*
%TO.C,J6*%
X40500000Y-64800000D03*
X40500000Y-57800000D03*
D14*
X37000000Y-65200000D03*
X44000000Y-65200000D03*
X37000000Y-61800000D03*
X44000000Y-58000000D03*
X44000000Y-55800000D03*
X37000000Y-56300000D03*
%TD*%
D11*
%TO.C,J10*%
X43960000Y-52000000D03*
X46500000Y-52000000D03*
X49040000Y-52000000D03*
D12*
X51580000Y-52000000D03*
%TD*%
D10*
%TO.C,R4*%
X41160000Y-53500000D03*
X31000000Y-53500000D03*
%TD*%
%TO.C,R3*%
X50500000Y-65080000D03*
X50500000Y-54920000D03*
%TD*%
D11*
%TO.C,J11*%
X47000000Y-65080000D03*
X47000000Y-62540000D03*
X47000000Y-60000000D03*
X47000000Y-57460000D03*
D12*
X47000000Y-54920000D03*
%TD*%
D15*
%TO.C,J13*%
X41820000Y-65050000D03*
D16*
X41820000Y-60870000D03*
D15*
X33180000Y-65050000D03*
D16*
X33180000Y-60870000D03*
D17*
X40390000Y-61400000D03*
X34610000Y-61400000D03*
%TD*%
D12*
%TO.C,J12*%
X26500000Y-17680000D03*
D11*
X26500000Y-20220000D03*
X26500000Y-22760000D03*
X26500000Y-25300000D03*
X26500000Y-27840000D03*
X26500000Y-30380000D03*
X26500000Y-32920000D03*
X26500000Y-35460000D03*
X26500000Y-38000000D03*
%TD*%
D12*
%TO.C,J8*%
X50000000Y-30580000D03*
D11*
X50000000Y-28040000D03*
X50000000Y-25500000D03*
X50000000Y-22960000D03*
X50000000Y-20420000D03*
X50000000Y-17880000D03*
%TD*%
D12*
%TO.C,J7*%
X30380000Y-38500000D03*
D11*
X32920000Y-38500000D03*
X35460000Y-38500000D03*
X38000000Y-38500000D03*
X40540000Y-38500000D03*
X43080000Y-38500000D03*
X45620000Y-38500000D03*
%TD*%
D12*
%TO.C,J5*%
X26420000Y-44500000D03*
D11*
X28960000Y-44500000D03*
X31500000Y-44500000D03*
X34040000Y-44500000D03*
X36580000Y-44500000D03*
X39120000Y-44500000D03*
%TD*%
D10*
%TO.C,C8*%
X28500000Y-41500000D03*
X33500000Y-41500000D03*
%TD*%
%TO.C,C7*%
X36000000Y-41500000D03*
X41000000Y-41500000D03*
%TD*%
%TO.C,C5*%
X50000000Y-33500000D03*
X50000000Y-38500000D03*
%TD*%
M02*
